<?xml version="1.0" encoding="utf-8" standalone="no"?>
<!DOCTYPE svg PUBLIC "-//W3C//DTD SVG 1.1//EN"
  "http://www.w3.org/Graphics/SVG/1.1/DTD/svg11.dtd">
<!-- Created with matplotlib (http://matplotlib.org/) -->
<svg height="345.6pt" version="1.1" viewBox="0 0 460.8 345.6" width="460.8pt" xmlns="http://www.w3.org/2000/svg" xmlns:xlink="http://www.w3.org/1999/xlink">
 <defs>
  <style type="text/css">
*{stroke-linecap:butt;stroke-linejoin:round;}
  </style>
 </defs>
 <g id="figure_1">
  <g id="patch_1">
   <path d="M 0 345.6 
L 460.8 345.6 
L 460.8 0 
L 0 0 
z
" style="fill:#ffffff;"/>
  </g>
  <g id="axes_1">
   <g id="patch_2">
    <path d="M 44.195375 320.83175 
L 440.740125 320.83175 
L 440.740125 13.32 
L 44.195375 13.32 
z
" style="fill:#ffffff;"/>
   </g>
   <g id="LineCollection_1">
    <path clip-path="url(#pc7b37cf8a0)" d="M 64.154417 28.021478 
L 64.154417 27.980002 
" style="fill:none;stroke:#000080;stroke-width:4;"/>
   </g>
   <g id="LineCollection_2"/>
   <g id="LineCollection_3">
    <path clip-path="url(#pc7b37cf8a0)" d="M 114.365845 27.995526 
L 114.365845 27.963417 
" style="fill:none;stroke:#0010ff;stroke-width:4;"/>
   </g>
   <g id="LineCollection_4"/>
   <g id="LineCollection_5">
    <path clip-path="url(#pc7b37cf8a0)" d="M 164.577273 28.044493 
L 164.577273 27.981339 
" style="fill:none;stroke:#00a4ff;stroke-width:4;"/>
   </g>
   <g id="LineCollection_6"/>
   <g id="LineCollection_7">
    <path clip-path="url(#pc7b37cf8a0)" d="M 214.7887 28.090806 
L 214.7887 27.983993 
" style="fill:none;stroke:#40ffb7;stroke-width:4;"/>
   </g>
   <g id="LineCollection_8"/>
   <g id="LineCollection_9"/>
   <g id="LineCollection_10"/>
   <g id="LineCollection_11"/>
   <g id="LineCollection_12"/>
   <g id="LineCollection_13"/>
   <g id="LineCollection_14"/>
   <g id="LineCollection_15"/>
   <g id="LineCollection_16"/>
   <g id="line2d_1">
    <defs>
     <path d="M 10 0 
L -10 -0 
" id="m1a44f71544" style="stroke:#000080;stroke-width:4;"/>
    </defs>
    <g clip-path="url(#pc7b37cf8a0)">
     <use style="fill:#000080;stroke:#000080;stroke-width:4;" x="64.154417" xlink:href="#m1a44f71544" y="28.021478"/>
    </g>
   </g>
   <g id="line2d_2">
    <g clip-path="url(#pc7b37cf8a0)">
     <use style="fill:#000080;stroke:#000080;stroke-width:4;" x="64.154417" xlink:href="#m1a44f71544" y="27.980002"/>
    </g>
   </g>
   <g id="line2d_3">
    <g clip-path="url(#pc7b37cf8a0)">
     <use style="fill:#000080;stroke:#000080;stroke-width:4;" x="0" xlink:href="#m1a44f71544" y="0"/>
    </g>
   </g>
   <g id="line2d_4">
    <g clip-path="url(#pc7b37cf8a0)">
     <use style="fill:#000080;stroke:#000080;stroke-width:4;" x="0" xlink:href="#m1a44f71544" y="0"/>
    </g>
   </g>
   <g id="line2d_5">
    <defs>
     <path d="M 10 0 
L -10 -0 
" id="mb9f59406cb" style="stroke:#0010ff;stroke-width:4;"/>
    </defs>
    <g clip-path="url(#pc7b37cf8a0)">
     <use style="fill:#0010ff;stroke:#0010ff;stroke-width:4;" x="114.365845" xlink:href="#mb9f59406cb" y="27.995526"/>
    </g>
   </g>
   <g id="line2d_6">
    <g clip-path="url(#pc7b37cf8a0)">
     <use style="fill:#0010ff;stroke:#0010ff;stroke-width:4;" x="114.365845" xlink:href="#mb9f59406cb" y="27.963417"/>
    </g>
   </g>
   <g id="line2d_7">
    <g clip-path="url(#pc7b37cf8a0)">
     <use style="fill:#0010ff;stroke:#0010ff;stroke-width:4;" x="0" xlink:href="#mb9f59406cb" y="0"/>
    </g>
   </g>
   <g id="line2d_8">
    <g clip-path="url(#pc7b37cf8a0)">
     <use style="fill:#0010ff;stroke:#0010ff;stroke-width:4;" x="0" xlink:href="#mb9f59406cb" y="0"/>
    </g>
   </g>
   <g id="line2d_9">
    <defs>
     <path d="M 10 0 
L -10 -0 
" id="me0fb7f7d3d" style="stroke:#00a4ff;stroke-width:4;"/>
    </defs>
    <g clip-path="url(#pc7b37cf8a0)">
     <use style="fill:#00a4ff;stroke:#00a4ff;stroke-width:4;" x="164.577273" xlink:href="#me0fb7f7d3d" y="28.044493"/>
    </g>
   </g>
   <g id="line2d_10">
    <g clip-path="url(#pc7b37cf8a0)">
     <use style="fill:#00a4ff;stroke:#00a4ff;stroke-width:4;" x="164.577273" xlink:href="#me0fb7f7d3d" y="27.981339"/>
    </g>
   </g>
   <g id="line2d_11">
    <g clip-path="url(#pc7b37cf8a0)">
     <use style="fill:#00a4ff;stroke:#00a4ff;stroke-width:4;" x="0" xlink:href="#me0fb7f7d3d" y="0"/>
    </g>
   </g>
   <g id="line2d_12">
    <g clip-path="url(#pc7b37cf8a0)">
     <use style="fill:#00a4ff;stroke:#00a4ff;stroke-width:4;" x="0" xlink:href="#me0fb7f7d3d" y="0"/>
    </g>
   </g>
   <g id="line2d_13">
    <defs>
     <path d="M 10 0 
L -10 -0 
" id="m23ec295a31" style="stroke:#40ffb7;stroke-width:4;"/>
    </defs>
    <g clip-path="url(#pc7b37cf8a0)">
     <use style="fill:#40ffb7;stroke:#40ffb7;stroke-width:4;" x="214.7887" xlink:href="#m23ec295a31" y="28.090806"/>
    </g>
   </g>
   <g id="line2d_14">
    <g clip-path="url(#pc7b37cf8a0)">
     <use style="fill:#40ffb7;stroke:#40ffb7;stroke-width:4;" x="214.7887" xlink:href="#m23ec295a31" y="27.983993"/>
    </g>
   </g>
   <g id="line2d_15">
    <g clip-path="url(#pc7b37cf8a0)">
     <use style="fill:#40ffb7;stroke:#40ffb7;stroke-width:4;" x="0" xlink:href="#m23ec295a31" y="0"/>
    </g>
   </g>
   <g id="line2d_16">
    <g clip-path="url(#pc7b37cf8a0)">
     <use style="fill:#40ffb7;stroke:#40ffb7;stroke-width:4;" x="0" xlink:href="#m23ec295a31" y="0"/>
    </g>
   </g>
   <g id="line2d_17">
    <defs>
     <path d="M 10 0 
L -10 -0 
" id="m7f4dd026f4" style="stroke:#b7ff40;stroke-width:4;"/>
    </defs>
    <g clip-path="url(#pc7b37cf8a0)">
     <use style="fill:#b7ff40;stroke:#b7ff40;stroke-width:4;" x="0" xlink:href="#m7f4dd026f4" y="0"/>
    </g>
   </g>
   <g id="line2d_18">
    <g clip-path="url(#pc7b37cf8a0)">
     <use style="fill:#b7ff40;stroke:#b7ff40;stroke-width:4;" x="0" xlink:href="#m7f4dd026f4" y="0"/>
    </g>
   </g>
   <g id="line2d_19">
    <g clip-path="url(#pc7b37cf8a0)">
     <use style="fill:#b7ff40;stroke:#b7ff40;stroke-width:4;" x="0" xlink:href="#m7f4dd026f4" y="0"/>
    </g>
   </g>
   <g id="line2d_20">
    <g clip-path="url(#pc7b37cf8a0)">
     <use style="fill:#b7ff40;stroke:#b7ff40;stroke-width:4;" x="0" xlink:href="#m7f4dd026f4" y="0"/>
    </g>
   </g>
   <g id="line2d_21">
    <defs>
     <path d="M 10 0 
L -10 -0 
" id="med3688e2b3" style="stroke:#ffb900;stroke-width:4;"/>
    </defs>
    <g clip-path="url(#pc7b37cf8a0)">
     <use style="fill:#ffb900;stroke:#ffb900;stroke-width:4;" x="0" xlink:href="#med3688e2b3" y="0"/>
    </g>
   </g>
   <g id="line2d_22">
    <g clip-path="url(#pc7b37cf8a0)">
     <use style="fill:#ffb900;stroke:#ffb900;stroke-width:4;" x="0" xlink:href="#med3688e2b3" y="0"/>
    </g>
   </g>
   <g id="line2d_23">
    <g clip-path="url(#pc7b37cf8a0)">
     <use style="fill:#ffb900;stroke:#ffb900;stroke-width:4;" x="0" xlink:href="#med3688e2b3" y="0"/>
    </g>
   </g>
   <g id="line2d_24">
    <g clip-path="url(#pc7b37cf8a0)">
     <use style="fill:#ffb900;stroke:#ffb900;stroke-width:4;" x="0" xlink:href="#med3688e2b3" y="0"/>
    </g>
   </g>
   <g id="line2d_25">
    <defs>
     <path d="M 10 0 
L -10 -0 
" id="m55af6c220d" style="stroke:#ff3000;stroke-width:4;"/>
    </defs>
    <g clip-path="url(#pc7b37cf8a0)">
     <use style="fill:#ff3000;stroke:#ff3000;stroke-width:4;" x="0" xlink:href="#m55af6c220d" y="0"/>
    </g>
   </g>
   <g id="line2d_26">
    <g clip-path="url(#pc7b37cf8a0)">
     <use style="fill:#ff3000;stroke:#ff3000;stroke-width:4;" x="0" xlink:href="#m55af6c220d" y="0"/>
    </g>
   </g>
   <g id="line2d_27">
    <g clip-path="url(#pc7b37cf8a0)">
     <use style="fill:#ff3000;stroke:#ff3000;stroke-width:4;" x="0" xlink:href="#m55af6c220d" y="0"/>
    </g>
   </g>
   <g id="line2d_28">
    <g clip-path="url(#pc7b37cf8a0)">
     <use style="fill:#ff3000;stroke:#ff3000;stroke-width:4;" x="0" xlink:href="#m55af6c220d" y="0"/>
    </g>
   </g>
   <g id="line2d_29">
    <defs>
     <path d="M 10 0 
L -10 -0 
" id="m4d13acc00e" style="stroke:#800000;stroke-width:4;"/>
    </defs>
    <g clip-path="url(#pc7b37cf8a0)">
     <use style="fill:#800000;stroke:#800000;stroke-width:4;" x="0" xlink:href="#m4d13acc00e" y="0"/>
    </g>
   </g>
   <g id="line2d_30">
    <g clip-path="url(#pc7b37cf8a0)">
     <use style="fill:#800000;stroke:#800000;stroke-width:4;" x="0" xlink:href="#m4d13acc00e" y="0"/>
    </g>
   </g>
   <g id="line2d_31">
    <g clip-path="url(#pc7b37cf8a0)">
     <use style="fill:#800000;stroke:#800000;stroke-width:4;" x="0" xlink:href="#m4d13acc00e" y="0"/>
    </g>
   </g>
   <g id="line2d_32">
    <g clip-path="url(#pc7b37cf8a0)">
     <use style="fill:#800000;stroke:#800000;stroke-width:4;" x="0" xlink:href="#m4d13acc00e" y="0"/>
    </g>
   </g>
   <g id="line2d_33">
    <path clip-path="url(#pc7b37cf8a0)" d="M 64.154417 28.00074 
" style="fill:none;stroke:#1f77b4;stroke-dasharray:1.5,2.475;stroke-dashoffset:0;stroke-width:1.5;"/>
   </g>
   <g id="line2d_34">
    <path clip-path="url(#pc7b37cf8a0)" d="M 0 0 
" style="fill:none;stroke:#1f77b4;stroke-dasharray:1.5,2.475;stroke-dashoffset:0;stroke-width:1.5;"/>
   </g>
   <g id="line2d_35">
    <path clip-path="url(#pc7b37cf8a0)" d="M 114.365845 27.979471 
" style="fill:none;stroke:#1f77b4;stroke-dasharray:1.5,2.475;stroke-dashoffset:0;stroke-width:1.5;"/>
   </g>
   <g id="line2d_36">
    <path clip-path="url(#pc7b37cf8a0)" d="M 0 0 
" style="fill:none;stroke:#1f77b4;stroke-dasharray:1.5,2.475;stroke-dashoffset:0;stroke-width:1.5;"/>
   </g>
   <g id="line2d_37">
    <path clip-path="url(#pc7b37cf8a0)" d="M 164.577273 28.012916 
" style="fill:none;stroke:#1f77b4;stroke-dasharray:1.5,2.475;stroke-dashoffset:0;stroke-width:1.5;"/>
   </g>
   <g id="line2d_38">
    <path clip-path="url(#pc7b37cf8a0)" d="M 0 0 
" style="fill:none;stroke:#1f77b4;stroke-dasharray:1.5,2.475;stroke-dashoffset:0;stroke-width:1.5;"/>
   </g>
   <g id="line2d_39">
    <path clip-path="url(#pc7b37cf8a0)" d="M 214.7887 28.037399 
" style="fill:none;stroke:#1f77b4;stroke-dasharray:1.5,2.475;stroke-dashoffset:0;stroke-width:1.5;"/>
   </g>
   <g id="line2d_40">
    <path clip-path="url(#pc7b37cf8a0)" d="M 0 0 
" style="fill:none;stroke:#1f77b4;stroke-dasharray:1.5,2.475;stroke-dashoffset:0;stroke-width:1.5;"/>
   </g>
   <g id="line2d_41">
    <path clip-path="url(#pc7b37cf8a0)" d="M 0 0 
" style="fill:none;stroke:#1f77b4;stroke-dasharray:1.5,2.475;stroke-dashoffset:0;stroke-width:1.5;"/>
   </g>
   <g id="line2d_42">
    <path clip-path="url(#pc7b37cf8a0)" d="M 0 0 
" style="fill:none;stroke:#1f77b4;stroke-dasharray:1.5,2.475;stroke-dashoffset:0;stroke-width:1.5;"/>
   </g>
   <g id="line2d_43">
    <path clip-path="url(#pc7b37cf8a0)" d="M 0 0 
" style="fill:none;stroke:#1f77b4;stroke-dasharray:1.5,2.475;stroke-dashoffset:0;stroke-width:1.5;"/>
   </g>
   <g id="line2d_44">
    <path clip-path="url(#pc7b37cf8a0)" d="M 0 0 
" style="fill:none;stroke:#1f77b4;stroke-dasharray:1.5,2.475;stroke-dashoffset:0;stroke-width:1.5;"/>
   </g>
   <g id="line2d_45">
    <path clip-path="url(#pc7b37cf8a0)" d="M 0 0 
" style="fill:none;stroke:#1f77b4;stroke-dasharray:1.5,2.475;stroke-dashoffset:0;stroke-width:1.5;"/>
   </g>
   <g id="line2d_46">
    <path clip-path="url(#pc7b37cf8a0)" d="M 0 0 
" style="fill:none;stroke:#1f77b4;stroke-dasharray:1.5,2.475;stroke-dashoffset:0;stroke-width:1.5;"/>
   </g>
   <g id="line2d_47">
    <path clip-path="url(#pc7b37cf8a0)" d="M 0 0 
" style="fill:none;stroke:#1f77b4;stroke-dasharray:1.5,2.475;stroke-dashoffset:0;stroke-width:1.5;"/>
   </g>
   <g id="line2d_48">
    <path clip-path="url(#pc7b37cf8a0)" d="M 0 0 
" style="fill:none;stroke:#1f77b4;stroke-dasharray:1.5,2.475;stroke-dashoffset:0;stroke-width:1.5;"/>
   </g>
   <g id="matplotlib.axis_1">
    <g id="xtick_1">
     <g id="line2d_49">
      <defs>
       <path d="M 0 0 
L 0 3.5 
" id="mc5b626d858" style="stroke:#000000;stroke-width:0.8;"/>
      </defs>
      <g>
       <use style="stroke:#000000;stroke-width:0.8;" x="64.154417" xlink:href="#mc5b626d858" y="320.83175"/>
      </g>
     </g>
     <g id="text_1">
      <!-- day -->
      <defs>
       <path d="M 45.40625 46.390625 
L 45.40625 75.984375 
L 54.390625 75.984375 
L 54.390625 0 
L 45.40625 0 
L 45.40625 8.203125 
Q 42.578125 3.328125 38.25 0.953125 
Q 33.9375 -1.421875 27.875 -1.421875 
Q 17.96875 -1.421875 11.734375 6.484375 
Q 5.515625 14.40625 5.515625 27.296875 
Q 5.515625 40.1875 11.734375 48.09375 
Q 17.96875 56 27.875 56 
Q 33.9375 56 38.25 53.625 
Q 42.578125 51.265625 45.40625 46.390625 
z
M 14.796875 27.296875 
Q 14.796875 17.390625 18.875 11.75 
Q 22.953125 6.109375 30.078125 6.109375 
Q 37.203125 6.109375 41.296875 11.75 
Q 45.40625 17.390625 45.40625 27.296875 
Q 45.40625 37.203125 41.296875 42.84375 
Q 37.203125 48.484375 30.078125 48.484375 
Q 22.953125 48.484375 18.875 42.84375 
Q 14.796875 37.203125 14.796875 27.296875 
z
" id="DejaVuSans-64"/>
       <path d="M 34.28125 27.484375 
Q 23.390625 27.484375 19.1875 25 
Q 14.984375 22.515625 14.984375 16.5 
Q 14.984375 11.71875 18.140625 8.90625 
Q 21.296875 6.109375 26.703125 6.109375 
Q 34.1875 6.109375 38.703125 11.40625 
Q 43.21875 16.703125 43.21875 25.484375 
L 43.21875 27.484375 
z
M 52.203125 31.203125 
L 52.203125 0 
L 43.21875 0 
L 43.21875 8.296875 
Q 40.140625 3.328125 35.546875 0.953125 
Q 30.953125 -1.421875 24.3125 -1.421875 
Q 15.921875 -1.421875 10.953125 3.296875 
Q 6 8.015625 6 15.921875 
Q 6 25.140625 12.171875 29.828125 
Q 18.359375 34.515625 30.609375 34.515625 
L 43.21875 34.515625 
L 43.21875 35.40625 
Q 43.21875 41.609375 39.140625 45 
Q 35.0625 48.390625 27.6875 48.390625 
Q 23 48.390625 18.546875 47.265625 
Q 14.109375 46.140625 10.015625 43.890625 
L 10.015625 52.203125 
Q 14.9375 54.109375 19.578125 55.046875 
Q 24.21875 56 28.609375 56 
Q 40.484375 56 46.34375 49.84375 
Q 52.203125 43.703125 52.203125 31.203125 
z
" id="DejaVuSans-61"/>
       <path d="M 32.171875 -5.078125 
Q 28.375 -14.84375 24.75 -17.8125 
Q 21.140625 -20.796875 15.09375 -20.796875 
L 7.90625 -20.796875 
L 7.90625 -13.28125 
L 13.1875 -13.28125 
Q 16.890625 -13.28125 18.9375 -11.515625 
Q 21 -9.765625 23.484375 -3.21875 
L 25.09375 0.875 
L 2.984375 54.6875 
L 12.5 54.6875 
L 29.59375 11.921875 
L 46.6875 54.6875 
L 56.203125 54.6875 
z
" id="DejaVuSans-79"/>
      </defs>
      <g transform="translate(54.956761 335.430187)scale(0.1 -0.1)">
       <use xlink:href="#DejaVuSans-64"/>
       <use x="63.476562" xlink:href="#DejaVuSans-61"/>
       <use x="124.755859" xlink:href="#DejaVuSans-79"/>
      </g>
     </g>
    </g>
    <g id="xtick_2">
     <g id="line2d_50">
      <g>
       <use style="stroke:#000000;stroke-width:0.8;" x="89.260131" xlink:href="#mc5b626d858" y="320.83175"/>
      </g>
     </g>
     <g id="text_2">
      <!-- night -->
      <defs>
       <path d="M 54.890625 33.015625 
L 54.890625 0 
L 45.90625 0 
L 45.90625 32.71875 
Q 45.90625 40.484375 42.875 44.328125 
Q 39.84375 48.1875 33.796875 48.1875 
Q 26.515625 48.1875 22.3125 43.546875 
Q 18.109375 38.921875 18.109375 30.90625 
L 18.109375 0 
L 9.078125 0 
L 9.078125 54.6875 
L 18.109375 54.6875 
L 18.109375 46.1875 
Q 21.34375 51.125 25.703125 53.5625 
Q 30.078125 56 35.796875 56 
Q 45.21875 56 50.046875 50.171875 
Q 54.890625 44.34375 54.890625 33.015625 
z
" id="DejaVuSans-6e"/>
       <path d="M 9.421875 54.6875 
L 18.40625 54.6875 
L 18.40625 0 
L 9.421875 0 
z
M 9.421875 75.984375 
L 18.40625 75.984375 
L 18.40625 64.59375 
L 9.421875 64.59375 
z
" id="DejaVuSans-69"/>
       <path d="M 45.40625 27.984375 
Q 45.40625 37.75 41.375 43.109375 
Q 37.359375 48.484375 30.078125 48.484375 
Q 22.859375 48.484375 18.828125 43.109375 
Q 14.796875 37.75 14.796875 27.984375 
Q 14.796875 18.265625 18.828125 12.890625 
Q 22.859375 7.515625 30.078125 7.515625 
Q 37.359375 7.515625 41.375 12.890625 
Q 45.40625 18.265625 45.40625 27.984375 
z
M 54.390625 6.78125 
Q 54.390625 -7.171875 48.1875 -13.984375 
Q 42 -20.796875 29.203125 -20.796875 
Q 24.46875 -20.796875 20.265625 -20.09375 
Q 16.0625 -19.390625 12.109375 -17.921875 
L 12.109375 -9.1875 
Q 16.0625 -11.328125 19.921875 -12.34375 
Q 23.78125 -13.375 27.78125 -13.375 
Q 36.625 -13.375 41.015625 -8.765625 
Q 45.40625 -4.15625 45.40625 5.171875 
L 45.40625 9.625 
Q 42.625 4.78125 38.28125 2.390625 
Q 33.9375 0 27.875 0 
Q 17.828125 0 11.671875 7.65625 
Q 5.515625 15.328125 5.515625 27.984375 
Q 5.515625 40.671875 11.671875 48.328125 
Q 17.828125 56 27.875 56 
Q 33.9375 56 38.28125 53.609375 
Q 42.625 51.21875 45.40625 46.390625 
L 45.40625 54.6875 
L 54.390625 54.6875 
z
" id="DejaVuSans-67"/>
       <path d="M 54.890625 33.015625 
L 54.890625 0 
L 45.90625 0 
L 45.90625 32.71875 
Q 45.90625 40.484375 42.875 44.328125 
Q 39.84375 48.1875 33.796875 48.1875 
Q 26.515625 48.1875 22.3125 43.546875 
Q 18.109375 38.921875 18.109375 30.90625 
L 18.109375 0 
L 9.078125 0 
L 9.078125 75.984375 
L 18.109375 75.984375 
L 18.109375 46.1875 
Q 21.34375 51.125 25.703125 53.5625 
Q 30.078125 56 35.796875 56 
Q 45.21875 56 50.046875 50.171875 
Q 54.890625 44.34375 54.890625 33.015625 
z
" id="DejaVuSans-68"/>
       <path d="M 18.3125 70.21875 
L 18.3125 54.6875 
L 36.8125 54.6875 
L 36.8125 47.703125 
L 18.3125 47.703125 
L 18.3125 18.015625 
Q 18.3125 11.328125 20.140625 9.421875 
Q 21.96875 7.515625 27.59375 7.515625 
L 36.8125 7.515625 
L 36.8125 0 
L 27.59375 0 
Q 17.1875 0 13.234375 3.875 
Q 9.28125 7.765625 9.28125 18.015625 
L 9.28125 47.703125 
L 2.6875 47.703125 
L 2.6875 54.6875 
L 9.28125 54.6875 
L 9.28125 70.21875 
z
" id="DejaVuSans-74"/>
      </defs>
      <g transform="translate(76.399194 335.430187)scale(0.1 -0.1)">
       <use xlink:href="#DejaVuSans-6e"/>
       <use x="63.378906" xlink:href="#DejaVuSans-69"/>
       <use x="91.162109" xlink:href="#DejaVuSans-67"/>
       <use x="154.638672" xlink:href="#DejaVuSans-68"/>
       <use x="218.017578" xlink:href="#DejaVuSans-74"/>
      </g>
     </g>
    </g>
    <g id="xtick_3">
     <g id="line2d_51">
      <g>
       <use style="stroke:#000000;stroke-width:0.8;" x="114.365845" xlink:href="#mc5b626d858" y="320.83175"/>
      </g>
     </g>
     <g id="text_3">
      <!-- day -->
      <g transform="translate(105.168189 335.430187)scale(0.1 -0.1)">
       <use xlink:href="#DejaVuSans-64"/>
       <use x="63.476562" xlink:href="#DejaVuSans-61"/>
       <use x="124.755859" xlink:href="#DejaVuSans-79"/>
      </g>
     </g>
    </g>
    <g id="xtick_4">
     <g id="line2d_52">
      <g>
       <use style="stroke:#000000;stroke-width:0.8;" x="139.471559" xlink:href="#mc5b626d858" y="320.83175"/>
      </g>
     </g>
     <g id="text_4">
      <!-- night -->
      <g transform="translate(126.610621 335.430187)scale(0.1 -0.1)">
       <use xlink:href="#DejaVuSans-6e"/>
       <use x="63.378906" xlink:href="#DejaVuSans-69"/>
       <use x="91.162109" xlink:href="#DejaVuSans-67"/>
       <use x="154.638672" xlink:href="#DejaVuSans-68"/>
       <use x="218.017578" xlink:href="#DejaVuSans-74"/>
      </g>
     </g>
    </g>
    <g id="xtick_5">
     <g id="line2d_53">
      <g>
       <use style="stroke:#000000;stroke-width:0.8;" x="164.577273" xlink:href="#mc5b626d858" y="320.83175"/>
      </g>
     </g>
     <g id="text_5">
      <!-- day -->
      <g transform="translate(155.379617 335.430187)scale(0.1 -0.1)">
       <use xlink:href="#DejaVuSans-64"/>
       <use x="63.476562" xlink:href="#DejaVuSans-61"/>
       <use x="124.755859" xlink:href="#DejaVuSans-79"/>
      </g>
     </g>
    </g>
    <g id="xtick_6">
     <g id="line2d_54">
      <g>
       <use style="stroke:#000000;stroke-width:0.8;" x="189.682987" xlink:href="#mc5b626d858" y="320.83175"/>
      </g>
     </g>
     <g id="text_6">
      <!-- night -->
      <g transform="translate(176.822049 335.430187)scale(0.1 -0.1)">
       <use xlink:href="#DejaVuSans-6e"/>
       <use x="63.378906" xlink:href="#DejaVuSans-69"/>
       <use x="91.162109" xlink:href="#DejaVuSans-67"/>
       <use x="154.638672" xlink:href="#DejaVuSans-68"/>
       <use x="218.017578" xlink:href="#DejaVuSans-74"/>
      </g>
     </g>
    </g>
    <g id="xtick_7">
     <g id="line2d_55">
      <g>
       <use style="stroke:#000000;stroke-width:0.8;" x="214.7887" xlink:href="#mc5b626d858" y="320.83175"/>
      </g>
     </g>
     <g id="text_7">
      <!-- day -->
      <g transform="translate(205.591044 335.430187)scale(0.1 -0.1)">
       <use xlink:href="#DejaVuSans-64"/>
       <use x="63.476562" xlink:href="#DejaVuSans-61"/>
       <use x="124.755859" xlink:href="#DejaVuSans-79"/>
      </g>
     </g>
    </g>
    <g id="xtick_8">
     <g id="line2d_56">
      <g>
       <use style="stroke:#000000;stroke-width:0.8;" x="239.894414" xlink:href="#mc5b626d858" y="320.83175"/>
      </g>
     </g>
     <g id="text_8">
      <!-- night -->
      <g transform="translate(227.033477 335.430187)scale(0.1 -0.1)">
       <use xlink:href="#DejaVuSans-6e"/>
       <use x="63.378906" xlink:href="#DejaVuSans-69"/>
       <use x="91.162109" xlink:href="#DejaVuSans-67"/>
       <use x="154.638672" xlink:href="#DejaVuSans-68"/>
       <use x="218.017578" xlink:href="#DejaVuSans-74"/>
      </g>
     </g>
    </g>
    <g id="xtick_9">
     <g id="line2d_57">
      <g>
       <use style="stroke:#000000;stroke-width:0.8;" x="265.000128" xlink:href="#mc5b626d858" y="320.83175"/>
      </g>
     </g>
     <g id="text_9">
      <!-- day -->
      <g transform="translate(255.802472 335.430187)scale(0.1 -0.1)">
       <use xlink:href="#DejaVuSans-64"/>
       <use x="63.476562" xlink:href="#DejaVuSans-61"/>
       <use x="124.755859" xlink:href="#DejaVuSans-79"/>
      </g>
     </g>
    </g>
    <g id="xtick_10">
     <g id="line2d_58">
      <g>
       <use style="stroke:#000000;stroke-width:0.8;" x="290.105842" xlink:href="#mc5b626d858" y="320.83175"/>
      </g>
     </g>
     <g id="text_10">
      <!-- night -->
      <g transform="translate(277.244904 335.430187)scale(0.1 -0.1)">
       <use xlink:href="#DejaVuSans-6e"/>
       <use x="63.378906" xlink:href="#DejaVuSans-69"/>
       <use x="91.162109" xlink:href="#DejaVuSans-67"/>
       <use x="154.638672" xlink:href="#DejaVuSans-68"/>
       <use x="218.017578" xlink:href="#DejaVuSans-74"/>
      </g>
     </g>
    </g>
    <g id="xtick_11">
     <g id="line2d_59">
      <g>
       <use style="stroke:#000000;stroke-width:0.8;" x="315.211556" xlink:href="#mc5b626d858" y="320.83175"/>
      </g>
     </g>
     <g id="text_11">
      <!-- day -->
      <g transform="translate(306.0139 335.430187)scale(0.1 -0.1)">
       <use xlink:href="#DejaVuSans-64"/>
       <use x="63.476562" xlink:href="#DejaVuSans-61"/>
       <use x="124.755859" xlink:href="#DejaVuSans-79"/>
      </g>
     </g>
    </g>
    <g id="xtick_12">
     <g id="line2d_60">
      <g>
       <use style="stroke:#000000;stroke-width:0.8;" x="340.31727" xlink:href="#mc5b626d858" y="320.83175"/>
      </g>
     </g>
     <g id="text_12">
      <!-- night -->
      <g transform="translate(327.456332 335.430187)scale(0.1 -0.1)">
       <use xlink:href="#DejaVuSans-6e"/>
       <use x="63.378906" xlink:href="#DejaVuSans-69"/>
       <use x="91.162109" xlink:href="#DejaVuSans-67"/>
       <use x="154.638672" xlink:href="#DejaVuSans-68"/>
       <use x="218.017578" xlink:href="#DejaVuSans-74"/>
      </g>
     </g>
    </g>
    <g id="xtick_13">
     <g id="line2d_61">
      <g>
       <use style="stroke:#000000;stroke-width:0.8;" x="365.422983" xlink:href="#mc5b626d858" y="320.83175"/>
      </g>
     </g>
     <g id="text_13">
      <!-- day -->
      <g transform="translate(356.225327 335.430187)scale(0.1 -0.1)">
       <use xlink:href="#DejaVuSans-64"/>
       <use x="63.476562" xlink:href="#DejaVuSans-61"/>
       <use x="124.755859" xlink:href="#DejaVuSans-79"/>
      </g>
     </g>
    </g>
    <g id="xtick_14">
     <g id="line2d_62">
      <g>
       <use style="stroke:#000000;stroke-width:0.8;" x="390.528697" xlink:href="#mc5b626d858" y="320.83175"/>
      </g>
     </g>
     <g id="text_14">
      <!-- night -->
      <g transform="translate(377.66776 335.430187)scale(0.1 -0.1)">
       <use xlink:href="#DejaVuSans-6e"/>
       <use x="63.378906" xlink:href="#DejaVuSans-69"/>
       <use x="91.162109" xlink:href="#DejaVuSans-67"/>
       <use x="154.638672" xlink:href="#DejaVuSans-68"/>
       <use x="218.017578" xlink:href="#DejaVuSans-74"/>
      </g>
     </g>
    </g>
    <g id="xtick_15">
     <g id="line2d_63">
      <g>
       <use style="stroke:#000000;stroke-width:0.8;" x="415.634411" xlink:href="#mc5b626d858" y="320.83175"/>
      </g>
     </g>
     <g id="text_15">
      <!-- day -->
      <g transform="translate(406.436755 335.430187)scale(0.1 -0.1)">
       <use xlink:href="#DejaVuSans-64"/>
       <use x="63.476562" xlink:href="#DejaVuSans-61"/>
       <use x="124.755859" xlink:href="#DejaVuSans-79"/>
      </g>
     </g>
    </g>
    <g id="xtick_16">
     <g id="line2d_64">
      <g>
       <use style="stroke:#000000;stroke-width:0.8;" x="440.740125" xlink:href="#mc5b626d858" y="320.83175"/>
      </g>
     </g>
     <g id="text_16">
      <!-- night -->
      <g transform="translate(427.879188 335.430187)scale(0.1 -0.1)">
       <use xlink:href="#DejaVuSans-6e"/>
       <use x="63.378906" xlink:href="#DejaVuSans-69"/>
       <use x="91.162109" xlink:href="#DejaVuSans-67"/>
       <use x="154.638672" xlink:href="#DejaVuSans-68"/>
       <use x="218.017578" xlink:href="#DejaVuSans-74"/>
      </g>
     </g>
    </g>
   </g>
   <g id="matplotlib.axis_2">
    <g id="ytick_1">
     <g id="line2d_65">
      <defs>
       <path d="M 0 0 
L -3.5 0 
" id="m204fbf6525" style="stroke:#000000;stroke-width:0.8;"/>
      </defs>
      <g>
       <use style="stroke:#000000;stroke-width:0.8;" x="44.195375" xlink:href="#m204fbf6525" y="264.623378"/>
      </g>
     </g>
     <g id="text_17">
      <!-- −80 -->
      <defs>
       <path d="M 10.59375 35.5 
L 73.1875 35.5 
L 73.1875 27.203125 
L 10.59375 27.203125 
z
" id="DejaVuSans-2212"/>
       <path d="M 31.78125 34.625 
Q 24.75 34.625 20.71875 30.859375 
Q 16.703125 27.09375 16.703125 20.515625 
Q 16.703125 13.921875 20.71875 10.15625 
Q 24.75 6.390625 31.78125 6.390625 
Q 38.8125 6.390625 42.859375 10.171875 
Q 46.921875 13.96875 46.921875 20.515625 
Q 46.921875 27.09375 42.890625 30.859375 
Q 38.875 34.625 31.78125 34.625 
z
M 21.921875 38.8125 
Q 15.578125 40.375 12.03125 44.71875 
Q 8.5 49.078125 8.5 55.328125 
Q 8.5 64.0625 14.71875 69.140625 
Q 20.953125 74.21875 31.78125 74.21875 
Q 42.671875 74.21875 48.875 69.140625 
Q 55.078125 64.0625 55.078125 55.328125 
Q 55.078125 49.078125 51.53125 44.71875 
Q 48 40.375 41.703125 38.8125 
Q 48.828125 37.15625 52.796875 32.3125 
Q 56.78125 27.484375 56.78125 20.515625 
Q 56.78125 9.90625 50.3125 4.234375 
Q 43.84375 -1.421875 31.78125 -1.421875 
Q 19.734375 -1.421875 13.25 4.234375 
Q 6.78125 9.90625 6.78125 20.515625 
Q 6.78125 27.484375 10.78125 32.3125 
Q 14.796875 37.15625 21.921875 38.8125 
z
M 18.3125 54.390625 
Q 18.3125 48.734375 21.84375 45.5625 
Q 25.390625 42.390625 31.78125 42.390625 
Q 38.140625 42.390625 41.71875 45.5625 
Q 45.3125 48.734375 45.3125 54.390625 
Q 45.3125 60.0625 41.71875 63.234375 
Q 38.140625 66.40625 31.78125 66.40625 
Q 25.390625 66.40625 21.84375 63.234375 
Q 18.3125 60.0625 18.3125 54.390625 
z
" id="DejaVuSans-38"/>
       <path d="M 31.78125 66.40625 
Q 24.171875 66.40625 20.328125 58.90625 
Q 16.5 51.421875 16.5 36.375 
Q 16.5 21.390625 20.328125 13.890625 
Q 24.171875 6.390625 31.78125 6.390625 
Q 39.453125 6.390625 43.28125 13.890625 
Q 47.125 21.390625 47.125 36.375 
Q 47.125 51.421875 43.28125 58.90625 
Q 39.453125 66.40625 31.78125 66.40625 
z
M 31.78125 74.21875 
Q 44.046875 74.21875 50.515625 64.515625 
Q 56.984375 54.828125 56.984375 36.375 
Q 56.984375 17.96875 50.515625 8.265625 
Q 44.046875 -1.421875 31.78125 -1.421875 
Q 19.53125 -1.421875 13.0625 8.265625 
Q 6.59375 17.96875 6.59375 36.375 
Q 6.59375 54.828125 13.0625 64.515625 
Q 19.53125 74.21875 31.78125 74.21875 
z
" id="DejaVuSans-30"/>
      </defs>
      <g transform="translate(16.090687 268.422597)scale(0.1 -0.1)">
       <use xlink:href="#DejaVuSans-2212"/>
       <use x="83.789062" xlink:href="#DejaVuSans-38"/>
       <use x="147.412109" xlink:href="#DejaVuSans-30"/>
      </g>
     </g>
    </g>
    <g id="ytick_2">
     <g id="line2d_66">
      <g>
       <use style="stroke:#000000;stroke-width:0.8;" x="44.195375" xlink:href="#m204fbf6525" y="205.456671"/>
      </g>
     </g>
     <g id="text_18">
      <!-- −60 -->
      <defs>
       <path d="M 33.015625 40.375 
Q 26.375 40.375 22.484375 35.828125 
Q 18.609375 31.296875 18.609375 23.390625 
Q 18.609375 15.53125 22.484375 10.953125 
Q 26.375 6.390625 33.015625 6.390625 
Q 39.65625 6.390625 43.53125 10.953125 
Q 47.40625 15.53125 47.40625 23.390625 
Q 47.40625 31.296875 43.53125 35.828125 
Q 39.65625 40.375 33.015625 40.375 
z
M 52.59375 71.296875 
L 52.59375 62.3125 
Q 48.875 64.0625 45.09375 64.984375 
Q 41.3125 65.921875 37.59375 65.921875 
Q 27.828125 65.921875 22.671875 59.328125 
Q 17.53125 52.734375 16.796875 39.40625 
Q 19.671875 43.65625 24.015625 45.921875 
Q 28.375 48.1875 33.59375 48.1875 
Q 44.578125 48.1875 50.953125 41.515625 
Q 57.328125 34.859375 57.328125 23.390625 
Q 57.328125 12.15625 50.6875 5.359375 
Q 44.046875 -1.421875 33.015625 -1.421875 
Q 20.359375 -1.421875 13.671875 8.265625 
Q 6.984375 17.96875 6.984375 36.375 
Q 6.984375 53.65625 15.1875 63.9375 
Q 23.390625 74.21875 37.203125 74.21875 
Q 40.921875 74.21875 44.703125 73.484375 
Q 48.484375 72.75 52.59375 71.296875 
z
" id="DejaVuSans-36"/>
      </defs>
      <g transform="translate(16.090687 209.25589)scale(0.1 -0.1)">
       <use xlink:href="#DejaVuSans-2212"/>
       <use x="83.789062" xlink:href="#DejaVuSans-36"/>
       <use x="147.412109" xlink:href="#DejaVuSans-30"/>
      </g>
     </g>
    </g>
    <g id="ytick_3">
     <g id="line2d_67">
      <g>
       <use style="stroke:#000000;stroke-width:0.8;" x="44.195375" xlink:href="#m204fbf6525" y="146.289964"/>
      </g>
     </g>
     <g id="text_19">
      <!-- −40 -->
      <defs>
       <path d="M 37.796875 64.3125 
L 12.890625 25.390625 
L 37.796875 25.390625 
z
M 35.203125 72.90625 
L 47.609375 72.90625 
L 47.609375 25.390625 
L 58.015625 25.390625 
L 58.015625 17.1875 
L 47.609375 17.1875 
L 47.609375 0 
L 37.796875 0 
L 37.796875 17.1875 
L 4.890625 17.1875 
L 4.890625 26.703125 
z
" id="DejaVuSans-34"/>
      </defs>
      <g transform="translate(16.090687 150.089182)scale(0.1 -0.1)">
       <use xlink:href="#DejaVuSans-2212"/>
       <use x="83.789062" xlink:href="#DejaVuSans-34"/>
       <use x="147.412109" xlink:href="#DejaVuSans-30"/>
      </g>
     </g>
    </g>
    <g id="ytick_4">
     <g id="line2d_68">
      <g>
       <use style="stroke:#000000;stroke-width:0.8;" x="44.195375" xlink:href="#m204fbf6525" y="87.123257"/>
      </g>
     </g>
     <g id="text_20">
      <!-- −20 -->
      <defs>
       <path d="M 19.1875 8.296875 
L 53.609375 8.296875 
L 53.609375 0 
L 7.328125 0 
L 7.328125 8.296875 
Q 12.9375 14.109375 22.625 23.890625 
Q 32.328125 33.6875 34.8125 36.53125 
Q 39.546875 41.84375 41.421875 45.53125 
Q 43.3125 49.21875 43.3125 52.78125 
Q 43.3125 58.59375 39.234375 62.25 
Q 35.15625 65.921875 28.609375 65.921875 
Q 23.96875 65.921875 18.8125 64.3125 
Q 13.671875 62.703125 7.8125 59.421875 
L 7.8125 69.390625 
Q 13.765625 71.78125 18.9375 73 
Q 24.125 74.21875 28.421875 74.21875 
Q 39.75 74.21875 46.484375 68.546875 
Q 53.21875 62.890625 53.21875 53.421875 
Q 53.21875 48.921875 51.53125 44.890625 
Q 49.859375 40.875 45.40625 35.40625 
Q 44.1875 33.984375 37.640625 27.21875 
Q 31.109375 20.453125 19.1875 8.296875 
z
" id="DejaVuSans-32"/>
      </defs>
      <g transform="translate(16.090687 90.922475)scale(0.1 -0.1)">
       <use xlink:href="#DejaVuSans-2212"/>
       <use x="83.789062" xlink:href="#DejaVuSans-32"/>
       <use x="147.412109" xlink:href="#DejaVuSans-30"/>
      </g>
     </g>
    </g>
    <g id="ytick_5">
     <g id="line2d_69">
      <g>
       <use style="stroke:#000000;stroke-width:0.8;" x="44.195375" xlink:href="#m204fbf6525" y="27.956549"/>
      </g>
     </g>
     <g id="text_21">
      <!-- 0 -->
      <g transform="translate(30.832875 31.755768)scale(0.1 -0.1)">
       <use xlink:href="#DejaVuSans-30"/>
      </g>
     </g>
    </g>
    <g id="text_22">
     <!-- z_origin_tip [$^{\circ}$] -->
     <defs>
      <path d="M 5.515625 54.6875 
L 48.1875 54.6875 
L 48.1875 46.484375 
L 14.40625 7.171875 
L 48.1875 7.171875 
L 48.1875 0 
L 4.296875 0 
L 4.296875 8.203125 
L 38.09375 47.515625 
L 5.515625 47.515625 
z
" id="DejaVuSans-7a"/>
      <path d="M 50.984375 -16.609375 
L 50.984375 -23.578125 
L -0.984375 -23.578125 
L -0.984375 -16.609375 
z
" id="DejaVuSans-5f"/>
      <path d="M 30.609375 48.390625 
Q 23.390625 48.390625 19.1875 42.75 
Q 14.984375 37.109375 14.984375 27.296875 
Q 14.984375 17.484375 19.15625 11.84375 
Q 23.34375 6.203125 30.609375 6.203125 
Q 37.796875 6.203125 41.984375 11.859375 
Q 46.1875 17.53125 46.1875 27.296875 
Q 46.1875 37.015625 41.984375 42.703125 
Q 37.796875 48.390625 30.609375 48.390625 
z
M 30.609375 56 
Q 42.328125 56 49.015625 48.375 
Q 55.71875 40.765625 55.71875 27.296875 
Q 55.71875 13.875 49.015625 6.21875 
Q 42.328125 -1.421875 30.609375 -1.421875 
Q 18.84375 -1.421875 12.171875 6.21875 
Q 5.515625 13.875 5.515625 27.296875 
Q 5.515625 40.765625 12.171875 48.375 
Q 18.84375 56 30.609375 56 
z
" id="DejaVuSans-6f"/>
      <path d="M 41.109375 46.296875 
Q 39.59375 47.171875 37.8125 47.578125 
Q 36.03125 48 33.890625 48 
Q 26.265625 48 22.1875 43.046875 
Q 18.109375 38.09375 18.109375 28.8125 
L 18.109375 0 
L 9.078125 0 
L 9.078125 54.6875 
L 18.109375 54.6875 
L 18.109375 46.1875 
Q 20.953125 51.171875 25.484375 53.578125 
Q 30.03125 56 36.53125 56 
Q 37.453125 56 38.578125 55.875 
Q 39.703125 55.765625 41.0625 55.515625 
z
" id="DejaVuSans-72"/>
      <path d="M 18.109375 8.203125 
L 18.109375 -20.796875 
L 9.078125 -20.796875 
L 9.078125 54.6875 
L 18.109375 54.6875 
L 18.109375 46.390625 
Q 20.953125 51.265625 25.265625 53.625 
Q 29.59375 56 35.59375 56 
Q 45.5625 56 51.78125 48.09375 
Q 58.015625 40.1875 58.015625 27.296875 
Q 58.015625 14.40625 51.78125 6.484375 
Q 45.5625 -1.421875 35.59375 -1.421875 
Q 29.59375 -1.421875 25.265625 0.953125 
Q 20.953125 3.328125 18.109375 8.203125 
z
M 48.6875 27.296875 
Q 48.6875 37.203125 44.609375 42.84375 
Q 40.53125 48.484375 33.40625 48.484375 
Q 26.265625 48.484375 22.1875 42.84375 
Q 18.109375 37.203125 18.109375 27.296875 
Q 18.109375 17.390625 22.1875 11.75 
Q 26.265625 6.109375 33.40625 6.109375 
Q 40.53125 6.109375 44.609375 11.75 
Q 48.6875 17.390625 48.6875 27.296875 
z
" id="DejaVuSans-70"/>
      <path id="DejaVuSans-20"/>
      <path d="M 8.59375 75.984375 
L 29.296875 75.984375 
L 29.296875 69 
L 17.578125 69 
L 17.578125 -6.203125 
L 29.296875 -6.203125 
L 29.296875 -13.1875 
L 8.59375 -13.1875 
z
" id="DejaVuSans-5b"/>
      <path d="M 31.25 40.921875 
Q 27.34375 40.921875 24.65625 38.203125 
Q 21.96875 35.5 21.96875 31.59375 
Q 21.96875 27.734375 24.65625 25.078125 
Q 27.34375 22.421875 31.25 22.421875 
Q 35.15625 22.421875 37.84375 25.078125 
Q 40.53125 27.734375 40.53125 31.59375 
Q 40.53125 35.453125 37.8125 38.1875 
Q 35.109375 40.921875 31.25 40.921875 
z
M 31.25 47.21875 
Q 34.375 47.21875 37.25 46.015625 
Q 40.140625 44.828125 42.234375 42.578125 
Q 44.484375 40.390625 45.609375 37.59375 
Q 46.734375 34.8125 46.734375 31.59375 
Q 46.734375 25.15625 42.21875 20.6875 
Q 37.703125 16.21875 31.15625 16.21875 
Q 24.5625 16.21875 20.15625 20.609375 
Q 15.765625 25 15.765625 31.59375 
Q 15.765625 38.140625 20.25 42.671875 
Q 24.75 47.21875 31.25 47.21875 
z
" id="DejaVuSans-2218"/>
      <path d="M 30.421875 75.984375 
L 30.421875 -13.1875 
L 9.71875 -13.1875 
L 9.71875 -6.203125 
L 21.390625 -6.203125 
L 21.390625 69 
L 9.71875 69 
L 9.71875 75.984375 
z
" id="DejaVuSans-5d"/>
     </defs>
     <g transform="translate(9.690687 203.325875)rotate(-90)scale(0.1 -0.1)">
      <use transform="translate(0 0.015625)" xlink:href="#DejaVuSans-7a"/>
      <use transform="translate(52.490234 0.015625)" xlink:href="#DejaVuSans-5f"/>
      <use transform="translate(102.490234 0.015625)" xlink:href="#DejaVuSans-6f"/>
      <use transform="translate(163.671875 0.015625)" xlink:href="#DejaVuSans-72"/>
      <use transform="translate(204.785156 0.015625)" xlink:href="#DejaVuSans-69"/>
      <use transform="translate(232.568359 0.015625)" xlink:href="#DejaVuSans-67"/>
      <use transform="translate(296.044922 0.015625)" xlink:href="#DejaVuSans-69"/>
      <use transform="translate(323.828125 0.015625)" xlink:href="#DejaVuSans-6e"/>
      <use transform="translate(387.207031 0.015625)" xlink:href="#DejaVuSans-5f"/>
      <use transform="translate(437.207031 0.015625)" xlink:href="#DejaVuSans-74"/>
      <use transform="translate(476.416016 0.015625)" xlink:href="#DejaVuSans-69"/>
      <use transform="translate(504.199219 0.015625)" xlink:href="#DejaVuSans-70"/>
      <use transform="translate(567.675781 0.015625)" xlink:href="#DejaVuSans-20"/>
      <use transform="translate(599.462891 0.015625)" xlink:href="#DejaVuSans-5b"/>
      <use transform="translate(639.433594 38.296875)scale(0.7)" xlink:href="#DejaVuSans-2218"/>
      <use transform="translate(685.986328 0.015625)" xlink:href="#DejaVuSans-5d"/>
     </g>
    </g>
   </g>
   <g id="patch_3">
    <path clip-path="url(#pc7b37cf8a0)" d="M 52.856846 320.83175 
L 75.451989 320.83175 
L 75.451989 28.00074 
L 52.856846 28.00074 
z
" style="fill:#ffffff;stroke:#000080;stroke-linejoin:miter;stroke-width:4;"/>
   </g>
   <g id="patch_4">
    <path clip-path="url(#pc7b37cf8a0)" d="z
" style="fill:#ffffff;stroke:#000080;stroke-linejoin:miter;stroke-width:4;"/>
   </g>
   <g id="patch_5">
    <path clip-path="url(#pc7b37cf8a0)" d="M 103.068274 320.83175 
L 125.663416 320.83175 
L 125.663416 27.979471 
L 103.068274 27.979471 
z
" style="fill:#ffffff;stroke:#0010ff;stroke-linejoin:miter;stroke-width:4;"/>
   </g>
   <g id="patch_6">
    <path clip-path="url(#pc7b37cf8a0)" d="z
" style="fill:#ffffff;stroke:#0010ff;stroke-linejoin:miter;stroke-width:4;"/>
   </g>
   <g id="patch_7">
    <path clip-path="url(#pc7b37cf8a0)" d="M 153.279702 320.83175 
L 175.874844 320.83175 
L 175.874844 28.012916 
L 153.279702 28.012916 
z
" style="fill:#ffffff;stroke:#00a4ff;stroke-linejoin:miter;stroke-width:4;"/>
   </g>
   <g id="patch_8">
    <path clip-path="url(#pc7b37cf8a0)" d="z
" style="fill:#ffffff;stroke:#00a4ff;stroke-linejoin:miter;stroke-width:4;"/>
   </g>
   <g id="patch_9">
    <path clip-path="url(#pc7b37cf8a0)" d="M 203.491129 320.83175 
L 226.086272 320.83175 
L 226.086272 28.037399 
L 203.491129 28.037399 
z
" style="fill:#ffffff;stroke:#40ffb7;stroke-linejoin:miter;stroke-width:4;"/>
   </g>
   <g id="patch_10">
    <path clip-path="url(#pc7b37cf8a0)" d="z
" style="fill:#ffffff;stroke:#40ffb7;stroke-linejoin:miter;stroke-width:4;"/>
   </g>
   <g id="patch_11">
    <path clip-path="url(#pc7b37cf8a0)" d="z
" style="fill:#ffffff;stroke:#b7ff40;stroke-linejoin:miter;stroke-width:4;"/>
   </g>
   <g id="patch_12">
    <path clip-path="url(#pc7b37cf8a0)" d="z
" style="fill:#ffffff;stroke:#b7ff40;stroke-linejoin:miter;stroke-width:4;"/>
   </g>
   <g id="patch_13">
    <path clip-path="url(#pc7b37cf8a0)" d="z
" style="fill:#ffffff;stroke:#ffb900;stroke-linejoin:miter;stroke-width:4;"/>
   </g>
   <g id="patch_14">
    <path clip-path="url(#pc7b37cf8a0)" d="z
" style="fill:#ffffff;stroke:#ffb900;stroke-linejoin:miter;stroke-width:4;"/>
   </g>
   <g id="patch_15">
    <path clip-path="url(#pc7b37cf8a0)" d="z
" style="fill:#ffffff;stroke:#ff3000;stroke-linejoin:miter;stroke-width:4;"/>
   </g>
   <g id="patch_16">
    <path clip-path="url(#pc7b37cf8a0)" d="z
" style="fill:#ffffff;stroke:#ff3000;stroke-linejoin:miter;stroke-width:4;"/>
   </g>
   <g id="patch_17">
    <path clip-path="url(#pc7b37cf8a0)" d="z
" style="fill:#ffffff;stroke:#800000;stroke-linejoin:miter;stroke-width:4;"/>
   </g>
   <g id="patch_18">
    <path clip-path="url(#pc7b37cf8a0)" d="z
" style="fill:#ffffff;stroke:#800000;stroke-linejoin:miter;stroke-width:4;"/>
   </g>
   <g id="patch_19">
    <path d="M 44.195375 320.83175 
L 44.195375 13.32 
" style="fill:none;stroke:#000000;stroke-linecap:square;stroke-linejoin:miter;stroke-width:0.8;"/>
   </g>
   <g id="patch_20">
    <path d="M 440.740125 320.83175 
L 440.740125 13.32 
" style="fill:none;stroke:#000000;stroke-linecap:square;stroke-linejoin:miter;stroke-width:0.8;"/>
   </g>
   <g id="patch_21">
    <path d="M 44.195375 320.83175 
L 440.740125 320.83175 
" style="fill:none;stroke:#000000;stroke-linecap:square;stroke-linejoin:miter;stroke-width:0.8;"/>
   </g>
   <g id="patch_22">
    <path d="M 44.195375 13.32 
L 440.740125 13.32 
" style="fill:none;stroke:#000000;stroke-linecap:square;stroke-linejoin:miter;stroke-width:0.8;"/>
   </g>
   <g id="text_23">
    <!-- p=1.0e+00 -->
    <defs>
     <path d="M 10.59375 45.40625 
L 73.1875 45.40625 
L 73.1875 37.203125 
L 10.59375 37.203125 
z
M 10.59375 25.484375 
L 73.1875 25.484375 
L 73.1875 17.1875 
L 10.59375 17.1875 
z
" id="DejaVuSans-3d"/>
     <path d="M 12.40625 8.296875 
L 28.515625 8.296875 
L 28.515625 63.921875 
L 10.984375 60.40625 
L 10.984375 69.390625 
L 28.421875 72.90625 
L 38.28125 72.90625 
L 38.28125 8.296875 
L 54.390625 8.296875 
L 54.390625 0 
L 12.40625 0 
z
" id="DejaVuSans-31"/>
     <path d="M 10.6875 12.40625 
L 21 12.40625 
L 21 0 
L 10.6875 0 
z
" id="DejaVuSans-2e"/>
     <path d="M 56.203125 29.59375 
L 56.203125 25.203125 
L 14.890625 25.203125 
Q 15.484375 15.921875 20.484375 11.0625 
Q 25.484375 6.203125 34.421875 6.203125 
Q 39.59375 6.203125 44.453125 7.46875 
Q 49.3125 8.734375 54.109375 11.28125 
L 54.109375 2.78125 
Q 49.265625 0.734375 44.1875 -0.34375 
Q 39.109375 -1.421875 33.890625 -1.421875 
Q 20.796875 -1.421875 13.15625 6.1875 
Q 5.515625 13.8125 5.515625 26.8125 
Q 5.515625 40.234375 12.765625 48.109375 
Q 20.015625 56 32.328125 56 
Q 43.359375 56 49.78125 48.890625 
Q 56.203125 41.796875 56.203125 29.59375 
z
M 47.21875 32.234375 
Q 47.125 39.59375 43.09375 43.984375 
Q 39.0625 48.390625 32.421875 48.390625 
Q 24.90625 48.390625 20.390625 44.140625 
Q 15.875 39.890625 15.1875 32.171875 
z
" id="DejaVuSans-65"/>
     <path d="M 46 62.703125 
L 46 35.5 
L 73.1875 35.5 
L 73.1875 27.203125 
L 46 27.203125 
L 46 0 
L 37.796875 0 
L 37.796875 27.203125 
L 10.59375 27.203125 
L 10.59375 35.5 
L 37.796875 35.5 
L 37.796875 62.703125 
z
" id="DejaVuSans-2b"/>
    </defs>
    <g transform="translate(47.762743 14.783655)scale(0.1 -0.1)">
     <use xlink:href="#DejaVuSans-70"/>
     <use x="63.476562" xlink:href="#DejaVuSans-3d"/>
     <use x="147.265625" xlink:href="#DejaVuSans-31"/>
     <use x="210.888672" xlink:href="#DejaVuSans-2e"/>
     <use x="242.675781" xlink:href="#DejaVuSans-30"/>
     <use x="306.298828" xlink:href="#DejaVuSans-65"/>
     <use x="367.822266" xlink:href="#DejaVuSans-2b"/>
     <use x="451.611328" xlink:href="#DejaVuSans-30"/>
     <use x="515.234375" xlink:href="#DejaVuSans-30"/>
    </g>
   </g>
   <g id="text_24">
    <!-- p=1.0e+00 -->
    <g transform="translate(72.868457 14.783655)scale(0.1 -0.1)">
     <use xlink:href="#DejaVuSans-70"/>
     <use x="63.476562" xlink:href="#DejaVuSans-3d"/>
     <use x="147.265625" xlink:href="#DejaVuSans-31"/>
     <use x="210.888672" xlink:href="#DejaVuSans-2e"/>
     <use x="242.675781" xlink:href="#DejaVuSans-30"/>
     <use x="306.298828" xlink:href="#DejaVuSans-65"/>
     <use x="367.822266" xlink:href="#DejaVuSans-2b"/>
     <use x="451.611328" xlink:href="#DejaVuSans-30"/>
     <use x="515.234375" xlink:href="#DejaVuSans-30"/>
    </g>
   </g>
   <g id="text_25">
    <!-- p=1.0e+00 -->
    <g transform="translate(97.974171 14.783655)scale(0.1 -0.1)">
     <use xlink:href="#DejaVuSans-70"/>
     <use x="63.476562" xlink:href="#DejaVuSans-3d"/>
     <use x="147.265625" xlink:href="#DejaVuSans-31"/>
     <use x="210.888672" xlink:href="#DejaVuSans-2e"/>
     <use x="242.675781" xlink:href="#DejaVuSans-30"/>
     <use x="306.298828" xlink:href="#DejaVuSans-65"/>
     <use x="367.822266" xlink:href="#DejaVuSans-2b"/>
     <use x="451.611328" xlink:href="#DejaVuSans-30"/>
     <use x="515.234375" xlink:href="#DejaVuSans-30"/>
    </g>
   </g>
   <g id="text_26">
    <!-- p=1.0e+00 -->
    <g transform="translate(123.079885 14.783655)scale(0.1 -0.1)">
     <use xlink:href="#DejaVuSans-70"/>
     <use x="63.476562" xlink:href="#DejaVuSans-3d"/>
     <use x="147.265625" xlink:href="#DejaVuSans-31"/>
     <use x="210.888672" xlink:href="#DejaVuSans-2e"/>
     <use x="242.675781" xlink:href="#DejaVuSans-30"/>
     <use x="306.298828" xlink:href="#DejaVuSans-65"/>
     <use x="367.822266" xlink:href="#DejaVuSans-2b"/>
     <use x="451.611328" xlink:href="#DejaVuSans-30"/>
     <use x="515.234375" xlink:href="#DejaVuSans-30"/>
    </g>
   </g>
   <g id="text_27">
    <!-- p=1.0e+00 -->
    <g transform="translate(148.185598 14.783655)scale(0.1 -0.1)">
     <use xlink:href="#DejaVuSans-70"/>
     <use x="63.476562" xlink:href="#DejaVuSans-3d"/>
     <use x="147.265625" xlink:href="#DejaVuSans-31"/>
     <use x="210.888672" xlink:href="#DejaVuSans-2e"/>
     <use x="242.675781" xlink:href="#DejaVuSans-30"/>
     <use x="306.298828" xlink:href="#DejaVuSans-65"/>
     <use x="367.822266" xlink:href="#DejaVuSans-2b"/>
     <use x="451.611328" xlink:href="#DejaVuSans-30"/>
     <use x="515.234375" xlink:href="#DejaVuSans-30"/>
    </g>
   </g>
   <g id="text_28">
    <!-- p=1.0e+00 -->
    <g transform="translate(173.291312 14.783655)scale(0.1 -0.1)">
     <use xlink:href="#DejaVuSans-70"/>
     <use x="63.476562" xlink:href="#DejaVuSans-3d"/>
     <use x="147.265625" xlink:href="#DejaVuSans-31"/>
     <use x="210.888672" xlink:href="#DejaVuSans-2e"/>
     <use x="242.675781" xlink:href="#DejaVuSans-30"/>
     <use x="306.298828" xlink:href="#DejaVuSans-65"/>
     <use x="367.822266" xlink:href="#DejaVuSans-2b"/>
     <use x="451.611328" xlink:href="#DejaVuSans-30"/>
     <use x="515.234375" xlink:href="#DejaVuSans-30"/>
    </g>
   </g>
   <g id="text_29">
    <!-- p=1.0e+00 -->
    <g transform="translate(198.397026 14.783655)scale(0.1 -0.1)">
     <use xlink:href="#DejaVuSans-70"/>
     <use x="63.476562" xlink:href="#DejaVuSans-3d"/>
     <use x="147.265625" xlink:href="#DejaVuSans-31"/>
     <use x="210.888672" xlink:href="#DejaVuSans-2e"/>
     <use x="242.675781" xlink:href="#DejaVuSans-30"/>
     <use x="306.298828" xlink:href="#DejaVuSans-65"/>
     <use x="367.822266" xlink:href="#DejaVuSans-2b"/>
     <use x="451.611328" xlink:href="#DejaVuSans-30"/>
     <use x="515.234375" xlink:href="#DejaVuSans-30"/>
    </g>
   </g>
   <g id="text_30">
    <!-- p=1.0e+00 -->
    <g transform="translate(223.50274 14.783655)scale(0.1 -0.1)">
     <use xlink:href="#DejaVuSans-70"/>
     <use x="63.476562" xlink:href="#DejaVuSans-3d"/>
     <use x="147.265625" xlink:href="#DejaVuSans-31"/>
     <use x="210.888672" xlink:href="#DejaVuSans-2e"/>
     <use x="242.675781" xlink:href="#DejaVuSans-30"/>
     <use x="306.298828" xlink:href="#DejaVuSans-65"/>
     <use x="367.822266" xlink:href="#DejaVuSans-2b"/>
     <use x="451.611328" xlink:href="#DejaVuSans-30"/>
     <use x="515.234375" xlink:href="#DejaVuSans-30"/>
    </g>
   </g>
  </g>
 </g>
 <defs>
  <clipPath id="pc7b37cf8a0">
   <rect height="307.51175" width="396.54475" x="44.195375" y="13.32"/>
  </clipPath>
 </defs>
</svg>
