<?xml version="1.0" encoding="utf-8" standalone="no"?>
<!DOCTYPE svg PUBLIC "-//W3C//DTD SVG 1.1//EN"
  "http://www.w3.org/Graphics/SVG/1.1/DTD/svg11.dtd">
<!-- Created with matplotlib (http://matplotlib.org/) -->
<svg height="345.6pt" version="1.1" viewBox="0 0 460.8 345.6" width="460.8pt" xmlns="http://www.w3.org/2000/svg" xmlns:xlink="http://www.w3.org/1999/xlink">
 <defs>
  <style type="text/css">
*{stroke-linecap:butt;stroke-linejoin:round;}
  </style>
 </defs>
 <g id="figure_1">
  <g id="patch_1">
   <path d="M 0 345.6 
L 460.8 345.6 
L 460.8 0 
L 0 0 
z
" style="fill:#ffffff;"/>
  </g>
  <g id="axes_1">
   <g id="patch_2">
    <path d="M 57.6 307.584 
L 414.72 307.584 
L 414.72 41.472 
L 57.6 41.472 
z
" style="fill:#ffffff;"/>
   </g>
   <g id="LineCollection_1"/>
   <g id="LineCollection_2"/>
   <g id="LineCollection_3"/>
   <g id="LineCollection_4"/>
   <g id="LineCollection_5"/>
   <g id="LineCollection_6"/>
   <g id="LineCollection_7"/>
   <g id="LineCollection_8"/>
   <g id="LineCollection_9"/>
   <g id="LineCollection_10"/>
   <g id="LineCollection_11"/>
   <g id="LineCollection_12"/>
   <g id="LineCollection_13"/>
   <g id="LineCollection_14"/>
   <g id="LineCollection_15"/>
   <g id="LineCollection_16"/>
   <g id="line2d_1">
    <defs>
     <path d="M 10 0 
L -10 -0 
" id="m1485c921f1" style="stroke:#000080;stroke-width:4;"/>
    </defs>
    <g clip-path="url(#pe168ed99ca)">
     <use style="fill:#000080;stroke:#000080;stroke-width:4;" x="0" xlink:href="#m1485c921f1" y="0"/>
    </g>
   </g>
   <g id="line2d_2">
    <g clip-path="url(#pe168ed99ca)">
     <use style="fill:#000080;stroke:#000080;stroke-width:4;" x="0" xlink:href="#m1485c921f1" y="0"/>
    </g>
   </g>
   <g id="line2d_3">
    <g clip-path="url(#pe168ed99ca)">
     <use style="fill:#000080;stroke:#000080;stroke-width:4;" x="0" xlink:href="#m1485c921f1" y="0"/>
    </g>
   </g>
   <g id="line2d_4">
    <g clip-path="url(#pe168ed99ca)">
     <use style="fill:#000080;stroke:#000080;stroke-width:4;" x="0" xlink:href="#m1485c921f1" y="0"/>
    </g>
   </g>
   <g id="line2d_5">
    <defs>
     <path d="M 10 0 
L -10 -0 
" id="md5ef8e9dc8" style="stroke:#0010ff;stroke-width:4;"/>
    </defs>
    <g clip-path="url(#pe168ed99ca)">
     <use style="fill:#0010ff;stroke:#0010ff;stroke-width:4;" x="0" xlink:href="#md5ef8e9dc8" y="0"/>
    </g>
   </g>
   <g id="line2d_6">
    <g clip-path="url(#pe168ed99ca)">
     <use style="fill:#0010ff;stroke:#0010ff;stroke-width:4;" x="0" xlink:href="#md5ef8e9dc8" y="0"/>
    </g>
   </g>
   <g id="line2d_7">
    <g clip-path="url(#pe168ed99ca)">
     <use style="fill:#0010ff;stroke:#0010ff;stroke-width:4;" x="0" xlink:href="#md5ef8e9dc8" y="0"/>
    </g>
   </g>
   <g id="line2d_8">
    <g clip-path="url(#pe168ed99ca)">
     <use style="fill:#0010ff;stroke:#0010ff;stroke-width:4;" x="0" xlink:href="#md5ef8e9dc8" y="0"/>
    </g>
   </g>
   <g id="line2d_9">
    <defs>
     <path d="M 10 0 
L -10 -0 
" id="m9c0deb872a" style="stroke:#00a4ff;stroke-width:4;"/>
    </defs>
    <g clip-path="url(#pe168ed99ca)">
     <use style="fill:#00a4ff;stroke:#00a4ff;stroke-width:4;" x="0" xlink:href="#m9c0deb872a" y="0"/>
    </g>
   </g>
   <g id="line2d_10">
    <g clip-path="url(#pe168ed99ca)">
     <use style="fill:#00a4ff;stroke:#00a4ff;stroke-width:4;" x="0" xlink:href="#m9c0deb872a" y="0"/>
    </g>
   </g>
   <g id="line2d_11">
    <g clip-path="url(#pe168ed99ca)">
     <use style="fill:#00a4ff;stroke:#00a4ff;stroke-width:4;" x="0" xlink:href="#m9c0deb872a" y="0"/>
    </g>
   </g>
   <g id="line2d_12">
    <g clip-path="url(#pe168ed99ca)">
     <use style="fill:#00a4ff;stroke:#00a4ff;stroke-width:4;" x="0" xlink:href="#m9c0deb872a" y="0"/>
    </g>
   </g>
   <g id="line2d_13">
    <defs>
     <path d="M 10 0 
L -10 -0 
" id="m6ff1a6f5e9" style="stroke:#40ffb7;stroke-width:4;"/>
    </defs>
    <g clip-path="url(#pe168ed99ca)">
     <use style="fill:#40ffb7;stroke:#40ffb7;stroke-width:4;" x="0" xlink:href="#m6ff1a6f5e9" y="0"/>
    </g>
   </g>
   <g id="line2d_14">
    <g clip-path="url(#pe168ed99ca)">
     <use style="fill:#40ffb7;stroke:#40ffb7;stroke-width:4;" x="0" xlink:href="#m6ff1a6f5e9" y="0"/>
    </g>
   </g>
   <g id="line2d_15">
    <g clip-path="url(#pe168ed99ca)">
     <use style="fill:#40ffb7;stroke:#40ffb7;stroke-width:4;" x="0" xlink:href="#m6ff1a6f5e9" y="0"/>
    </g>
   </g>
   <g id="line2d_16">
    <g clip-path="url(#pe168ed99ca)">
     <use style="fill:#40ffb7;stroke:#40ffb7;stroke-width:4;" x="0" xlink:href="#m6ff1a6f5e9" y="0"/>
    </g>
   </g>
   <g id="line2d_17">
    <defs>
     <path d="M 10 0 
L -10 -0 
" id="md49f86426f" style="stroke:#b7ff40;stroke-width:4;"/>
    </defs>
    <g clip-path="url(#pe168ed99ca)">
     <use style="fill:#b7ff40;stroke:#b7ff40;stroke-width:4;" x="0" xlink:href="#md49f86426f" y="0"/>
    </g>
   </g>
   <g id="line2d_18">
    <g clip-path="url(#pe168ed99ca)">
     <use style="fill:#b7ff40;stroke:#b7ff40;stroke-width:4;" x="0" xlink:href="#md49f86426f" y="0"/>
    </g>
   </g>
   <g id="line2d_19">
    <g clip-path="url(#pe168ed99ca)">
     <use style="fill:#b7ff40;stroke:#b7ff40;stroke-width:4;" x="0" xlink:href="#md49f86426f" y="0"/>
    </g>
   </g>
   <g id="line2d_20">
    <g clip-path="url(#pe168ed99ca)">
     <use style="fill:#b7ff40;stroke:#b7ff40;stroke-width:4;" x="0" xlink:href="#md49f86426f" y="0"/>
    </g>
   </g>
   <g id="line2d_21">
    <defs>
     <path d="M 10 0 
L -10 -0 
" id="mf7f1f8f952" style="stroke:#ffb900;stroke-width:4;"/>
    </defs>
    <g clip-path="url(#pe168ed99ca)">
     <use style="fill:#ffb900;stroke:#ffb900;stroke-width:4;" x="0" xlink:href="#mf7f1f8f952" y="0"/>
    </g>
   </g>
   <g id="line2d_22">
    <g clip-path="url(#pe168ed99ca)">
     <use style="fill:#ffb900;stroke:#ffb900;stroke-width:4;" x="0" xlink:href="#mf7f1f8f952" y="0"/>
    </g>
   </g>
   <g id="line2d_23">
    <g clip-path="url(#pe168ed99ca)">
     <use style="fill:#ffb900;stroke:#ffb900;stroke-width:4;" x="0" xlink:href="#mf7f1f8f952" y="0"/>
    </g>
   </g>
   <g id="line2d_24">
    <g clip-path="url(#pe168ed99ca)">
     <use style="fill:#ffb900;stroke:#ffb900;stroke-width:4;" x="0" xlink:href="#mf7f1f8f952" y="0"/>
    </g>
   </g>
   <g id="line2d_25">
    <defs>
     <path d="M 10 0 
L -10 -0 
" id="mb9a47dc756" style="stroke:#ff3000;stroke-width:4;"/>
    </defs>
    <g clip-path="url(#pe168ed99ca)">
     <use style="fill:#ff3000;stroke:#ff3000;stroke-width:4;" x="0" xlink:href="#mb9a47dc756" y="0"/>
    </g>
   </g>
   <g id="line2d_26">
    <g clip-path="url(#pe168ed99ca)">
     <use style="fill:#ff3000;stroke:#ff3000;stroke-width:4;" x="0" xlink:href="#mb9a47dc756" y="0"/>
    </g>
   </g>
   <g id="line2d_27">
    <g clip-path="url(#pe168ed99ca)">
     <use style="fill:#ff3000;stroke:#ff3000;stroke-width:4;" x="0" xlink:href="#mb9a47dc756" y="0"/>
    </g>
   </g>
   <g id="line2d_28">
    <g clip-path="url(#pe168ed99ca)">
     <use style="fill:#ff3000;stroke:#ff3000;stroke-width:4;" x="0" xlink:href="#mb9a47dc756" y="0"/>
    </g>
   </g>
   <g id="line2d_29">
    <defs>
     <path d="M 10 0 
L -10 -0 
" id="meb86d6da74" style="stroke:#800000;stroke-width:4;"/>
    </defs>
    <g clip-path="url(#pe168ed99ca)">
     <use style="fill:#800000;stroke:#800000;stroke-width:4;" x="0" xlink:href="#meb86d6da74" y="0"/>
    </g>
   </g>
   <g id="line2d_30">
    <g clip-path="url(#pe168ed99ca)">
     <use style="fill:#800000;stroke:#800000;stroke-width:4;" x="0" xlink:href="#meb86d6da74" y="0"/>
    </g>
   </g>
   <g id="line2d_31">
    <g clip-path="url(#pe168ed99ca)">
     <use style="fill:#800000;stroke:#800000;stroke-width:4;" x="0" xlink:href="#meb86d6da74" y="0"/>
    </g>
   </g>
   <g id="line2d_32">
    <g clip-path="url(#pe168ed99ca)">
     <use style="fill:#800000;stroke:#800000;stroke-width:4;" x="0" xlink:href="#meb86d6da74" y="0"/>
    </g>
   </g>
   <g id="line2d_33">
    <path clip-path="url(#pe168ed99ca)" style="fill:none;stroke:#1f77b4;stroke-linecap:square;stroke-width:1.5;"/>
   </g>
   <g id="line2d_34">
    <path clip-path="url(#pe168ed99ca)" style="fill:none;stroke:#1f77b4;stroke-linecap:square;stroke-width:1.5;"/>
   </g>
   <g id="line2d_35">
    <path clip-path="url(#pe168ed99ca)" d="M 12.96 235.005954 
" style="fill:none;stroke:#1f77b4;stroke-linecap:square;stroke-width:1.5;"/>
   </g>
   <g id="line2d_36">
    <path clip-path="url(#pe168ed99ca)" d="M 42.72 235.005954 
" style="fill:none;stroke:#1f77b4;stroke-linecap:square;stroke-width:1.5;"/>
   </g>
   <g id="line2d_37">
    <path clip-path="url(#pe168ed99ca)" d="M 72.48 218.713985 
" style="fill:none;stroke:#1f77b4;stroke-linecap:square;stroke-width:1.5;"/>
   </g>
   <g id="line2d_38">
    <path clip-path="url(#pe168ed99ca)" d="M 102.24 218.713985 
" style="fill:none;stroke:#1f77b4;stroke-linecap:square;stroke-width:1.5;"/>
   </g>
   <g id="line2d_39">
    <path clip-path="url(#pe168ed99ca)" d="M 132 218.533893 
" style="fill:none;stroke:#1f77b4;stroke-linecap:square;stroke-width:1.5;"/>
   </g>
   <g id="line2d_40">
    <path clip-path="url(#pe168ed99ca)" d="M 161.76 218.533893 
" style="fill:none;stroke:#1f77b4;stroke-linecap:square;stroke-width:1.5;"/>
   </g>
   <g id="line2d_41">
    <path clip-path="url(#pe168ed99ca)" d="M 0 0 
" style="fill:none;stroke:#1f77b4;stroke-linecap:square;stroke-width:1.5;"/>
   </g>
   <g id="line2d_42">
    <path clip-path="url(#pe168ed99ca)" d="M 0 0 
" style="fill:none;stroke:#1f77b4;stroke-linecap:square;stroke-width:1.5;"/>
   </g>
   <g id="line2d_43">
    <path clip-path="url(#pe168ed99ca)" d="M 0 0 
" style="fill:none;stroke:#1f77b4;stroke-linecap:square;stroke-width:1.5;"/>
   </g>
   <g id="line2d_44">
    <path clip-path="url(#pe168ed99ca)" d="M 0 0 
" style="fill:none;stroke:#1f77b4;stroke-linecap:square;stroke-width:1.5;"/>
   </g>
   <g id="line2d_45">
    <path clip-path="url(#pe168ed99ca)" d="M 0 0 
" style="fill:none;stroke:#1f77b4;stroke-linecap:square;stroke-width:1.5;"/>
   </g>
   <g id="line2d_46">
    <path clip-path="url(#pe168ed99ca)" d="M 0 0 
" style="fill:none;stroke:#1f77b4;stroke-linecap:square;stroke-width:1.5;"/>
   </g>
   <g id="line2d_47">
    <path clip-path="url(#pe168ed99ca)" d="M 0 0 
" style="fill:none;stroke:#1f77b4;stroke-linecap:square;stroke-width:1.5;"/>
   </g>
   <g id="line2d_48">
    <path clip-path="url(#pe168ed99ca)" d="M 0 0 
" style="fill:none;stroke:#1f77b4;stroke-linecap:square;stroke-width:1.5;"/>
   </g>
   <g id="matplotlib.axis_1">
    <g id="xtick_1">
     <g id="line2d_49">
      <defs>
       <path d="M 0 0 
L 0 3.5 
" id="m416e1217d3" style="stroke:#000000;stroke-width:0.8;"/>
      </defs>
      <g>
       <use style="stroke:#000000;stroke-width:0.8;" x="87.36" xlink:href="#m416e1217d3" y="307.584"/>
      </g>
     </g>
     <g id="text_1">
      <!-- 1 -->
      <defs>
       <path d="M 12.40625 8.296875 
L 28.515625 8.296875 
L 28.515625 63.921875 
L 10.984375 60.40625 
L 10.984375 69.390625 
L 28.421875 72.90625 
L 38.28125 72.90625 
L 38.28125 8.296875 
L 54.390625 8.296875 
L 54.390625 0 
L 12.40625 0 
z
" id="DejaVuSans-31"/>
      </defs>
      <g transform="translate(81.63375 328.261187)scale(0.18 -0.18)">
       <use xlink:href="#DejaVuSans-31"/>
      </g>
     </g>
    </g>
    <g id="xtick_2">
     <g id="line2d_50">
      <g>
       <use style="stroke:#000000;stroke-width:0.8;" x="146.88" xlink:href="#m416e1217d3" y="307.584"/>
      </g>
     </g>
     <g id="text_2">
      <!-- 2 -->
      <defs>
       <path d="M 19.1875 8.296875 
L 53.609375 8.296875 
L 53.609375 0 
L 7.328125 0 
L 7.328125 8.296875 
Q 12.9375 14.109375 22.625 23.890625 
Q 32.328125 33.6875 34.8125 36.53125 
Q 39.546875 41.84375 41.421875 45.53125 
Q 43.3125 49.21875 43.3125 52.78125 
Q 43.3125 58.59375 39.234375 62.25 
Q 35.15625 65.921875 28.609375 65.921875 
Q 23.96875 65.921875 18.8125 64.3125 
Q 13.671875 62.703125 7.8125 59.421875 
L 7.8125 69.390625 
Q 13.765625 71.78125 18.9375 73 
Q 24.125 74.21875 28.421875 74.21875 
Q 39.75 74.21875 46.484375 68.546875 
Q 53.21875 62.890625 53.21875 53.421875 
Q 53.21875 48.921875 51.53125 44.890625 
Q 49.859375 40.875 45.40625 35.40625 
Q 44.1875 33.984375 37.640625 27.21875 
Q 31.109375 20.453125 19.1875 8.296875 
z
" id="DejaVuSans-32"/>
      </defs>
      <g transform="translate(141.15375 328.261187)scale(0.18 -0.18)">
       <use xlink:href="#DejaVuSans-32"/>
      </g>
     </g>
    </g>
    <g id="xtick_3">
     <g id="line2d_51">
      <g>
       <use style="stroke:#000000;stroke-width:0.8;" x="206.4" xlink:href="#m416e1217d3" y="307.584"/>
      </g>
     </g>
     <g id="text_3">
      <!-- 3 -->
      <defs>
       <path d="M 40.578125 39.3125 
Q 47.65625 37.796875 51.625 33 
Q 55.609375 28.21875 55.609375 21.1875 
Q 55.609375 10.40625 48.1875 4.484375 
Q 40.765625 -1.421875 27.09375 -1.421875 
Q 22.515625 -1.421875 17.65625 -0.515625 
Q 12.796875 0.390625 7.625 2.203125 
L 7.625 11.71875 
Q 11.71875 9.328125 16.59375 8.109375 
Q 21.484375 6.890625 26.8125 6.890625 
Q 36.078125 6.890625 40.9375 10.546875 
Q 45.796875 14.203125 45.796875 21.1875 
Q 45.796875 27.640625 41.28125 31.265625 
Q 36.765625 34.90625 28.71875 34.90625 
L 20.21875 34.90625 
L 20.21875 43.015625 
L 29.109375 43.015625 
Q 36.375 43.015625 40.234375 45.921875 
Q 44.09375 48.828125 44.09375 54.296875 
Q 44.09375 59.90625 40.109375 62.90625 
Q 36.140625 65.921875 28.71875 65.921875 
Q 24.65625 65.921875 20.015625 65.03125 
Q 15.375 64.15625 9.8125 62.3125 
L 9.8125 71.09375 
Q 15.4375 72.65625 20.34375 73.4375 
Q 25.25 74.21875 29.59375 74.21875 
Q 40.828125 74.21875 47.359375 69.109375 
Q 53.90625 64.015625 53.90625 55.328125 
Q 53.90625 49.265625 50.4375 45.09375 
Q 46.96875 40.921875 40.578125 39.3125 
z
" id="DejaVuSans-33"/>
      </defs>
      <g transform="translate(200.67375 328.261187)scale(0.18 -0.18)">
       <use xlink:href="#DejaVuSans-33"/>
      </g>
     </g>
    </g>
    <g id="xtick_4">
     <g id="line2d_52">
      <g>
       <use style="stroke:#000000;stroke-width:0.8;" x="265.92" xlink:href="#m416e1217d3" y="307.584"/>
      </g>
     </g>
     <g id="text_4">
      <!-- 4 -->
      <defs>
       <path d="M 37.796875 64.3125 
L 12.890625 25.390625 
L 37.796875 25.390625 
z
M 35.203125 72.90625 
L 47.609375 72.90625 
L 47.609375 25.390625 
L 58.015625 25.390625 
L 58.015625 17.1875 
L 47.609375 17.1875 
L 47.609375 0 
L 37.796875 0 
L 37.796875 17.1875 
L 4.890625 17.1875 
L 4.890625 26.703125 
z
" id="DejaVuSans-34"/>
      </defs>
      <g transform="translate(260.19375 328.261187)scale(0.18 -0.18)">
       <use xlink:href="#DejaVuSans-34"/>
      </g>
     </g>
    </g>
    <g id="xtick_5">
     <g id="line2d_53">
      <g>
       <use style="stroke:#000000;stroke-width:0.8;" x="325.44" xlink:href="#m416e1217d3" y="307.584"/>
      </g>
     </g>
     <g id="text_5">
      <!-- 5 -->
      <defs>
       <path d="M 10.796875 72.90625 
L 49.515625 72.90625 
L 49.515625 64.59375 
L 19.828125 64.59375 
L 19.828125 46.734375 
Q 21.96875 47.46875 24.109375 47.828125 
Q 26.265625 48.1875 28.421875 48.1875 
Q 40.625 48.1875 47.75 41.5 
Q 54.890625 34.8125 54.890625 23.390625 
Q 54.890625 11.625 47.5625 5.09375 
Q 40.234375 -1.421875 26.90625 -1.421875 
Q 22.3125 -1.421875 17.546875 -0.640625 
Q 12.796875 0.140625 7.71875 1.703125 
L 7.71875 11.625 
Q 12.109375 9.234375 16.796875 8.0625 
Q 21.484375 6.890625 26.703125 6.890625 
Q 35.15625 6.890625 40.078125 11.328125 
Q 45.015625 15.765625 45.015625 23.390625 
Q 45.015625 31 40.078125 35.4375 
Q 35.15625 39.890625 26.703125 39.890625 
Q 22.75 39.890625 18.8125 39.015625 
Q 14.890625 38.140625 10.796875 36.28125 
z
" id="DejaVuSans-35"/>
      </defs>
      <g transform="translate(319.71375 328.261187)scale(0.18 -0.18)">
       <use xlink:href="#DejaVuSans-35"/>
      </g>
     </g>
    </g>
    <g id="xtick_6">
     <g id="line2d_54">
      <g>
       <use style="stroke:#000000;stroke-width:0.8;" x="384.96" xlink:href="#m416e1217d3" y="307.584"/>
      </g>
     </g>
     <g id="text_6">
      <!-- 6 -->
      <defs>
       <path d="M 33.015625 40.375 
Q 26.375 40.375 22.484375 35.828125 
Q 18.609375 31.296875 18.609375 23.390625 
Q 18.609375 15.53125 22.484375 10.953125 
Q 26.375 6.390625 33.015625 6.390625 
Q 39.65625 6.390625 43.53125 10.953125 
Q 47.40625 15.53125 47.40625 23.390625 
Q 47.40625 31.296875 43.53125 35.828125 
Q 39.65625 40.375 33.015625 40.375 
z
M 52.59375 71.296875 
L 52.59375 62.3125 
Q 48.875 64.0625 45.09375 64.984375 
Q 41.3125 65.921875 37.59375 65.921875 
Q 27.828125 65.921875 22.671875 59.328125 
Q 17.53125 52.734375 16.796875 39.40625 
Q 19.671875 43.65625 24.015625 45.921875 
Q 28.375 48.1875 33.59375 48.1875 
Q 44.578125 48.1875 50.953125 41.515625 
Q 57.328125 34.859375 57.328125 23.390625 
Q 57.328125 12.15625 50.6875 5.359375 
Q 44.046875 -1.421875 33.015625 -1.421875 
Q 20.359375 -1.421875 13.671875 8.265625 
Q 6.984375 17.96875 6.984375 36.375 
Q 6.984375 53.65625 15.1875 63.9375 
Q 23.390625 74.21875 37.203125 74.21875 
Q 40.921875 74.21875 44.703125 73.484375 
Q 48.484375 72.75 52.59375 71.296875 
z
" id="DejaVuSans-36"/>
      </defs>
      <g transform="translate(379.23375 328.261187)scale(0.18 -0.18)">
       <use xlink:href="#DejaVuSans-36"/>
      </g>
     </g>
    </g>
    <g id="text_7">
     <!-- leaf number -->
     <defs>
      <path d="M 9.421875 75.984375 
L 18.40625 75.984375 
L 18.40625 0 
L 9.421875 0 
z
" id="DejaVuSans-6c"/>
      <path d="M 56.203125 29.59375 
L 56.203125 25.203125 
L 14.890625 25.203125 
Q 15.484375 15.921875 20.484375 11.0625 
Q 25.484375 6.203125 34.421875 6.203125 
Q 39.59375 6.203125 44.453125 7.46875 
Q 49.3125 8.734375 54.109375 11.28125 
L 54.109375 2.78125 
Q 49.265625 0.734375 44.1875 -0.34375 
Q 39.109375 -1.421875 33.890625 -1.421875 
Q 20.796875 -1.421875 13.15625 6.1875 
Q 5.515625 13.8125 5.515625 26.8125 
Q 5.515625 40.234375 12.765625 48.109375 
Q 20.015625 56 32.328125 56 
Q 43.359375 56 49.78125 48.890625 
Q 56.203125 41.796875 56.203125 29.59375 
z
M 47.21875 32.234375 
Q 47.125 39.59375 43.09375 43.984375 
Q 39.0625 48.390625 32.421875 48.390625 
Q 24.90625 48.390625 20.390625 44.140625 
Q 15.875 39.890625 15.1875 32.171875 
z
" id="DejaVuSans-65"/>
      <path d="M 34.28125 27.484375 
Q 23.390625 27.484375 19.1875 25 
Q 14.984375 22.515625 14.984375 16.5 
Q 14.984375 11.71875 18.140625 8.90625 
Q 21.296875 6.109375 26.703125 6.109375 
Q 34.1875 6.109375 38.703125 11.40625 
Q 43.21875 16.703125 43.21875 25.484375 
L 43.21875 27.484375 
z
M 52.203125 31.203125 
L 52.203125 0 
L 43.21875 0 
L 43.21875 8.296875 
Q 40.140625 3.328125 35.546875 0.953125 
Q 30.953125 -1.421875 24.3125 -1.421875 
Q 15.921875 -1.421875 10.953125 3.296875 
Q 6 8.015625 6 15.921875 
Q 6 25.140625 12.171875 29.828125 
Q 18.359375 34.515625 30.609375 34.515625 
L 43.21875 34.515625 
L 43.21875 35.40625 
Q 43.21875 41.609375 39.140625 45 
Q 35.0625 48.390625 27.6875 48.390625 
Q 23 48.390625 18.546875 47.265625 
Q 14.109375 46.140625 10.015625 43.890625 
L 10.015625 52.203125 
Q 14.9375 54.109375 19.578125 55.046875 
Q 24.21875 56 28.609375 56 
Q 40.484375 56 46.34375 49.84375 
Q 52.203125 43.703125 52.203125 31.203125 
z
" id="DejaVuSans-61"/>
      <path d="M 37.109375 75.984375 
L 37.109375 68.5 
L 28.515625 68.5 
Q 23.6875 68.5 21.796875 66.546875 
Q 19.921875 64.59375 19.921875 59.515625 
L 19.921875 54.6875 
L 34.71875 54.6875 
L 34.71875 47.703125 
L 19.921875 47.703125 
L 19.921875 0 
L 10.890625 0 
L 10.890625 47.703125 
L 2.296875 47.703125 
L 2.296875 54.6875 
L 10.890625 54.6875 
L 10.890625 58.5 
Q 10.890625 67.625 15.140625 71.796875 
Q 19.390625 75.984375 28.609375 75.984375 
z
" id="DejaVuSans-66"/>
      <path id="DejaVuSans-20"/>
      <path d="M 54.890625 33.015625 
L 54.890625 0 
L 45.90625 0 
L 45.90625 32.71875 
Q 45.90625 40.484375 42.875 44.328125 
Q 39.84375 48.1875 33.796875 48.1875 
Q 26.515625 48.1875 22.3125 43.546875 
Q 18.109375 38.921875 18.109375 30.90625 
L 18.109375 0 
L 9.078125 0 
L 9.078125 54.6875 
L 18.109375 54.6875 
L 18.109375 46.1875 
Q 21.34375 51.125 25.703125 53.5625 
Q 30.078125 56 35.796875 56 
Q 45.21875 56 50.046875 50.171875 
Q 54.890625 44.34375 54.890625 33.015625 
z
" id="DejaVuSans-6e"/>
      <path d="M 8.5 21.578125 
L 8.5 54.6875 
L 17.484375 54.6875 
L 17.484375 21.921875 
Q 17.484375 14.15625 20.5 10.265625 
Q 23.53125 6.390625 29.59375 6.390625 
Q 36.859375 6.390625 41.078125 11.03125 
Q 45.3125 15.671875 45.3125 23.6875 
L 45.3125 54.6875 
L 54.296875 54.6875 
L 54.296875 0 
L 45.3125 0 
L 45.3125 8.40625 
Q 42.046875 3.421875 37.71875 1 
Q 33.40625 -1.421875 27.6875 -1.421875 
Q 18.265625 -1.421875 13.375 4.4375 
Q 8.5 10.296875 8.5 21.578125 
z
M 31.109375 56 
z
" id="DejaVuSans-75"/>
      <path d="M 52 44.1875 
Q 55.375 50.25 60.0625 53.125 
Q 64.75 56 71.09375 56 
Q 79.640625 56 84.28125 50.015625 
Q 88.921875 44.046875 88.921875 33.015625 
L 88.921875 0 
L 79.890625 0 
L 79.890625 32.71875 
Q 79.890625 40.578125 77.09375 44.375 
Q 74.3125 48.1875 68.609375 48.1875 
Q 61.625 48.1875 57.5625 43.546875 
Q 53.515625 38.921875 53.515625 30.90625 
L 53.515625 0 
L 44.484375 0 
L 44.484375 32.71875 
Q 44.484375 40.625 41.703125 44.40625 
Q 38.921875 48.1875 33.109375 48.1875 
Q 26.21875 48.1875 22.15625 43.53125 
Q 18.109375 38.875 18.109375 30.90625 
L 18.109375 0 
L 9.078125 0 
L 9.078125 54.6875 
L 18.109375 54.6875 
L 18.109375 46.1875 
Q 21.1875 51.21875 25.484375 53.609375 
Q 29.78125 56 35.6875 56 
Q 41.65625 56 45.828125 52.96875 
Q 50 49.953125 52 44.1875 
z
" id="DejaVuSans-6d"/>
      <path d="M 48.6875 27.296875 
Q 48.6875 37.203125 44.609375 42.84375 
Q 40.53125 48.484375 33.40625 48.484375 
Q 26.265625 48.484375 22.1875 42.84375 
Q 18.109375 37.203125 18.109375 27.296875 
Q 18.109375 17.390625 22.1875 11.75 
Q 26.265625 6.109375 33.40625 6.109375 
Q 40.53125 6.109375 44.609375 11.75 
Q 48.6875 17.390625 48.6875 27.296875 
z
M 18.109375 46.390625 
Q 20.953125 51.265625 25.265625 53.625 
Q 29.59375 56 35.59375 56 
Q 45.5625 56 51.78125 48.09375 
Q 58.015625 40.1875 58.015625 27.296875 
Q 58.015625 14.40625 51.78125 6.484375 
Q 45.5625 -1.421875 35.59375 -1.421875 
Q 29.59375 -1.421875 25.265625 0.953125 
Q 20.953125 3.328125 18.109375 8.203125 
L 18.109375 0 
L 9.078125 0 
L 9.078125 75.984375 
L 18.109375 75.984375 
z
" id="DejaVuSans-62"/>
      <path d="M 41.109375 46.296875 
Q 39.59375 47.171875 37.8125 47.578125 
Q 36.03125 48 33.890625 48 
Q 26.265625 48 22.1875 43.046875 
Q 18.109375 38.09375 18.109375 28.8125 
L 18.109375 0 
L 9.078125 0 
L 9.078125 54.6875 
L 18.109375 54.6875 
L 18.109375 46.1875 
Q 20.953125 51.171875 25.484375 53.578125 
Q 30.03125 56 36.53125 56 
Q 37.453125 56 38.578125 55.875 
Q 39.703125 55.765625 41.0625 55.515625 
z
" id="DejaVuSans-72"/>
     </defs>
     <g transform="translate(181.452656 349.681812)scale(0.18 -0.18)">
      <use xlink:href="#DejaVuSans-6c"/>
      <use x="27.783203" xlink:href="#DejaVuSans-65"/>
      <use x="89.306641" xlink:href="#DejaVuSans-61"/>
      <use x="150.585938" xlink:href="#DejaVuSans-66"/>
      <use x="185.791016" xlink:href="#DejaVuSans-20"/>
      <use x="217.578125" xlink:href="#DejaVuSans-6e"/>
      <use x="280.957031" xlink:href="#DejaVuSans-75"/>
      <use x="344.335938" xlink:href="#DejaVuSans-6d"/>
      <use x="441.748047" xlink:href="#DejaVuSans-62"/>
      <use x="505.224609" xlink:href="#DejaVuSans-65"/>
      <use x="566.748047" xlink:href="#DejaVuSans-72"/>
     </g>
    </g>
   </g>
   <g id="matplotlib.axis_2">
    <g id="ytick_1">
     <g id="line2d_55">
      <defs>
       <path d="M 0 0 
L -3.5 0 
" id="m55fb947d2a" style="stroke:#000000;stroke-width:0.8;"/>
      </defs>
      <g>
       <use style="stroke:#000000;stroke-width:0.8;" x="57.6" xlink:href="#m55fb947d2a" y="307.584"/>
      </g>
     </g>
     <g id="text_8">
      <!-- 10 -->
      <defs>
       <path d="M 31.78125 66.40625 
Q 24.171875 66.40625 20.328125 58.90625 
Q 16.5 51.421875 16.5 36.375 
Q 16.5 21.390625 20.328125 13.890625 
Q 24.171875 6.390625 31.78125 6.390625 
Q 39.453125 6.390625 43.28125 13.890625 
Q 47.125 21.390625 47.125 36.375 
Q 47.125 51.421875 43.28125 58.90625 
Q 39.453125 66.40625 31.78125 66.40625 
z
M 31.78125 74.21875 
Q 44.046875 74.21875 50.515625 64.515625 
Q 56.984375 54.828125 56.984375 36.375 
Q 56.984375 17.96875 50.515625 8.265625 
Q 44.046875 -1.421875 31.78125 -1.421875 
Q 19.53125 -1.421875 13.0625 8.265625 
Q 6.59375 17.96875 6.59375 36.375 
Q 6.59375 54.828125 13.0625 64.515625 
Q 19.53125 74.21875 31.78125 74.21875 
z
" id="DejaVuSans-30"/>
      </defs>
      <g transform="translate(27.695 314.422594)scale(0.18 -0.18)">
       <use xlink:href="#DejaVuSans-31"/>
       <use x="63.623047" xlink:href="#DejaVuSans-30"/>
      </g>
     </g>
    </g>
    <g id="ytick_2">
     <g id="line2d_56">
      <g>
       <use style="stroke:#000000;stroke-width:0.8;" x="57.6" xlink:href="#m55fb947d2a" y="241.056"/>
      </g>
     </g>
     <g id="text_9">
      <!-- 15 -->
      <g transform="translate(27.695 247.894594)scale(0.18 -0.18)">
       <use xlink:href="#DejaVuSans-31"/>
       <use x="63.623047" xlink:href="#DejaVuSans-35"/>
      </g>
     </g>
    </g>
    <g id="ytick_3">
     <g id="line2d_57">
      <g>
       <use style="stroke:#000000;stroke-width:0.8;" x="57.6" xlink:href="#m55fb947d2a" y="174.528"/>
      </g>
     </g>
     <g id="text_10">
      <!-- 20 -->
      <g transform="translate(27.695 181.366594)scale(0.18 -0.18)">
       <use xlink:href="#DejaVuSans-32"/>
       <use x="63.623047" xlink:href="#DejaVuSans-30"/>
      </g>
     </g>
    </g>
    <g id="ytick_4">
     <g id="line2d_58">
      <g>
       <use style="stroke:#000000;stroke-width:0.8;" x="57.6" xlink:href="#m55fb947d2a" y="108"/>
      </g>
     </g>
     <g id="text_11">
      <!-- 25 -->
      <g transform="translate(27.695 114.838594)scale(0.18 -0.18)">
       <use xlink:href="#DejaVuSans-32"/>
       <use x="63.623047" xlink:href="#DejaVuSans-35"/>
      </g>
     </g>
    </g>
    <g id="ytick_5">
     <g id="line2d_59">
      <g>
       <use style="stroke:#000000;stroke-width:0.8;" x="57.6" xlink:href="#m55fb947d2a" y="41.472"/>
      </g>
     </g>
     <g id="text_12">
      <!-- 30 -->
      <g transform="translate(27.695 48.310594)scale(0.18 -0.18)">
       <use xlink:href="#DejaVuSans-33"/>
       <use x="63.623047" xlink:href="#DejaVuSans-30"/>
      </g>
     </g>
    </g>
    <g id="text_13">
     <!-- leaf appearances [$\mathrm{DAS}$] -->
     <defs>
      <path d="M 18.109375 8.203125 
L 18.109375 -20.796875 
L 9.078125 -20.796875 
L 9.078125 54.6875 
L 18.109375 54.6875 
L 18.109375 46.390625 
Q 20.953125 51.265625 25.265625 53.625 
Q 29.59375 56 35.59375 56 
Q 45.5625 56 51.78125 48.09375 
Q 58.015625 40.1875 58.015625 27.296875 
Q 58.015625 14.40625 51.78125 6.484375 
Q 45.5625 -1.421875 35.59375 -1.421875 
Q 29.59375 -1.421875 25.265625 0.953125 
Q 20.953125 3.328125 18.109375 8.203125 
z
M 48.6875 27.296875 
Q 48.6875 37.203125 44.609375 42.84375 
Q 40.53125 48.484375 33.40625 48.484375 
Q 26.265625 48.484375 22.1875 42.84375 
Q 18.109375 37.203125 18.109375 27.296875 
Q 18.109375 17.390625 22.1875 11.75 
Q 26.265625 6.109375 33.40625 6.109375 
Q 40.53125 6.109375 44.609375 11.75 
Q 48.6875 17.390625 48.6875 27.296875 
z
" id="DejaVuSans-70"/>
      <path d="M 48.78125 52.59375 
L 48.78125 44.1875 
Q 44.96875 46.296875 41.140625 47.34375 
Q 37.3125 48.390625 33.40625 48.390625 
Q 24.65625 48.390625 19.8125 42.84375 
Q 14.984375 37.3125 14.984375 27.296875 
Q 14.984375 17.28125 19.8125 11.734375 
Q 24.65625 6.203125 33.40625 6.203125 
Q 37.3125 6.203125 41.140625 7.25 
Q 44.96875 8.296875 48.78125 10.40625 
L 48.78125 2.09375 
Q 45.015625 0.34375 40.984375 -0.53125 
Q 36.96875 -1.421875 32.421875 -1.421875 
Q 20.0625 -1.421875 12.78125 6.34375 
Q 5.515625 14.109375 5.515625 27.296875 
Q 5.515625 40.671875 12.859375 48.328125 
Q 20.21875 56 33.015625 56 
Q 37.15625 56 41.109375 55.140625 
Q 45.0625 54.296875 48.78125 52.59375 
z
" id="DejaVuSans-63"/>
      <path d="M 44.28125 53.078125 
L 44.28125 44.578125 
Q 40.484375 46.53125 36.375 47.5 
Q 32.28125 48.484375 27.875 48.484375 
Q 21.1875 48.484375 17.84375 46.4375 
Q 14.5 44.390625 14.5 40.28125 
Q 14.5 37.15625 16.890625 35.375 
Q 19.28125 33.59375 26.515625 31.984375 
L 29.59375 31.296875 
Q 39.15625 29.25 43.1875 25.515625 
Q 47.21875 21.78125 47.21875 15.09375 
Q 47.21875 7.46875 41.1875 3.015625 
Q 35.15625 -1.421875 24.609375 -1.421875 
Q 20.21875 -1.421875 15.453125 -0.5625 
Q 10.6875 0.296875 5.421875 2 
L 5.421875 11.28125 
Q 10.40625 8.6875 15.234375 7.390625 
Q 20.0625 6.109375 24.8125 6.109375 
Q 31.15625 6.109375 34.5625 8.28125 
Q 37.984375 10.453125 37.984375 14.40625 
Q 37.984375 18.0625 35.515625 20.015625 
Q 33.0625 21.96875 24.703125 23.78125 
L 21.578125 24.515625 
Q 13.234375 26.265625 9.515625 29.90625 
Q 5.8125 33.546875 5.8125 39.890625 
Q 5.8125 47.609375 11.28125 51.796875 
Q 16.75 56 26.8125 56 
Q 31.78125 56 36.171875 55.265625 
Q 40.578125 54.546875 44.28125 53.078125 
z
" id="DejaVuSans-73"/>
      <path d="M 8.59375 75.984375 
L 29.296875 75.984375 
L 29.296875 69 
L 17.578125 69 
L 17.578125 -6.203125 
L 29.296875 -6.203125 
L 29.296875 -13.1875 
L 8.59375 -13.1875 
z
" id="DejaVuSans-5b"/>
      <path d="M 19.671875 64.796875 
L 19.671875 8.109375 
L 31.59375 8.109375 
Q 46.6875 8.109375 53.6875 14.9375 
Q 60.6875 21.78125 60.6875 36.53125 
Q 60.6875 51.171875 53.6875 57.984375 
Q 46.6875 64.796875 31.59375 64.796875 
z
M 9.8125 72.90625 
L 30.078125 72.90625 
Q 51.265625 72.90625 61.171875 64.09375 
Q 71.09375 55.28125 71.09375 36.53125 
Q 71.09375 17.671875 61.125 8.828125 
Q 51.171875 0 30.078125 0 
L 9.8125 0 
z
" id="DejaVuSans-44"/>
      <path d="M 34.1875 63.1875 
L 20.796875 26.90625 
L 47.609375 26.90625 
z
M 28.609375 72.90625 
L 39.796875 72.90625 
L 67.578125 0 
L 57.328125 0 
L 50.6875 18.703125 
L 17.828125 18.703125 
L 11.1875 0 
L 0.78125 0 
z
" id="DejaVuSans-41"/>
      <path d="M 53.515625 70.515625 
L 53.515625 60.890625 
Q 47.90625 63.578125 42.921875 64.890625 
Q 37.9375 66.21875 33.296875 66.21875 
Q 25.25 66.21875 20.875 63.09375 
Q 16.5 59.96875 16.5 54.203125 
Q 16.5 49.359375 19.40625 46.890625 
Q 22.3125 44.4375 30.421875 42.921875 
L 36.375 41.703125 
Q 47.40625 39.59375 52.65625 34.296875 
Q 57.90625 29 57.90625 20.125 
Q 57.90625 9.515625 50.796875 4.046875 
Q 43.703125 -1.421875 29.984375 -1.421875 
Q 24.8125 -1.421875 18.96875 -0.25 
Q 13.140625 0.921875 6.890625 3.21875 
L 6.890625 13.375 
Q 12.890625 10.015625 18.65625 8.296875 
Q 24.421875 6.59375 29.984375 6.59375 
Q 38.421875 6.59375 43.015625 9.90625 
Q 47.609375 13.234375 47.609375 19.390625 
Q 47.609375 24.75 44.3125 27.78125 
Q 41.015625 30.8125 33.5 32.328125 
L 27.484375 33.5 
Q 16.453125 35.6875 11.515625 40.375 
Q 6.59375 45.0625 6.59375 53.421875 
Q 6.59375 63.09375 13.40625 68.65625 
Q 20.21875 74.21875 32.171875 74.21875 
Q 37.3125 74.21875 42.625 73.28125 
Q 47.953125 72.359375 53.515625 70.515625 
z
" id="DejaVuSans-53"/>
      <path d="M 30.421875 75.984375 
L 30.421875 -13.1875 
L 9.71875 -13.1875 
L 9.71875 -6.203125 
L 21.390625 -6.203125 
L 21.390625 69 
L 9.71875 69 
L 9.71875 75.984375 
z
" id="DejaVuSans-5d"/>
     </defs>
     <g transform="translate(19.915 280.908)rotate(-90)scale(0.18 -0.18)">
      <use transform="translate(0 0.015625)" xlink:href="#DejaVuSans-6c"/>
      <use transform="translate(27.783203 0.015625)" xlink:href="#DejaVuSans-65"/>
      <use transform="translate(89.306641 0.015625)" xlink:href="#DejaVuSans-61"/>
      <use transform="translate(150.585938 0.015625)" xlink:href="#DejaVuSans-66"/>
      <use transform="translate(185.791016 0.015625)" xlink:href="#DejaVuSans-20"/>
      <use transform="translate(217.578125 0.015625)" xlink:href="#DejaVuSans-61"/>
      <use transform="translate(278.857422 0.015625)" xlink:href="#DejaVuSans-70"/>
      <use transform="translate(342.333984 0.015625)" xlink:href="#DejaVuSans-70"/>
      <use transform="translate(405.810547 0.015625)" xlink:href="#DejaVuSans-65"/>
      <use transform="translate(467.333984 0.015625)" xlink:href="#DejaVuSans-61"/>
      <use transform="translate(528.613281 0.015625)" xlink:href="#DejaVuSans-72"/>
      <use transform="translate(569.726562 0.015625)" xlink:href="#DejaVuSans-61"/>
      <use transform="translate(631.005859 0.015625)" xlink:href="#DejaVuSans-6e"/>
      <use transform="translate(694.384766 0.015625)" xlink:href="#DejaVuSans-63"/>
      <use transform="translate(749.365234 0.015625)" xlink:href="#DejaVuSans-65"/>
      <use transform="translate(810.888672 0.015625)" xlink:href="#DejaVuSans-73"/>
      <use transform="translate(862.988281 0.015625)" xlink:href="#DejaVuSans-20"/>
      <use transform="translate(894.775391 0.015625)" xlink:href="#DejaVuSans-5b"/>
      <use transform="translate(933.789062 0.015625)" xlink:href="#DejaVuSans-44"/>
      <use transform="translate(1010.791016 0.015625)" xlink:href="#DejaVuSans-41"/>
      <use transform="translate(1079.199219 0.015625)" xlink:href="#DejaVuSans-53"/>
      <use transform="translate(1142.675781 0.015625)" xlink:href="#DejaVuSans-5d"/>
     </g>
    </g>
   </g>
   <g id="patch_3">
    <path clip-path="url(#pe168ed99ca)" d="M -59.952 453.9456 
L -33.168 453.9456 
L -33.168 260.194685 
L -59.952 260.194685 
z
" style="fill:#ffffff;stroke:#000080;stroke-linejoin:miter;stroke-width:4;"/>
   </g>
   <g id="patch_4">
    <path clip-path="url(#pe168ed99ca)" d="M -30.192 453.9456 
L -3.408 453.9456 
L -3.408 260.194685 
L -30.192 260.194685 
z
" style="fill:#ffffff;stroke:#000080;stroke-dasharray:14.8,6.4;stroke-dashoffset:0;stroke-linejoin:miter;stroke-width:4;"/>
   </g>
   <g id="patch_5">
    <path clip-path="url(#pe168ed99ca)" d="M -0.432 453.9456 
L 26.352 453.9456 
L 26.352 235.005954 
L -0.432 235.005954 
z
" style="fill:#ffffff;stroke:#0010ff;stroke-linejoin:miter;stroke-width:4;"/>
   </g>
   <g id="patch_6">
    <path clip-path="url(#pe168ed99ca)" d="M 29.328 453.9456 
L 56.112 453.9456 
L 56.112 235.005954 
L 29.328 235.005954 
z
" style="fill:#ffffff;stroke:#0010ff;stroke-dasharray:14.8,6.4;stroke-dashoffset:0;stroke-linejoin:miter;stroke-width:4;"/>
   </g>
   <g id="patch_7">
    <path clip-path="url(#pe168ed99ca)" d="M 59.088 453.9456 
L 85.872 453.9456 
L 85.872 218.713985 
L 59.088 218.713985 
z
" style="fill:#ffffff;stroke:#00a4ff;stroke-linejoin:miter;stroke-width:4;"/>
   </g>
   <g id="patch_8">
    <path clip-path="url(#pe168ed99ca)" d="M 88.848 453.9456 
L 115.632 453.9456 
L 115.632 218.713985 
L 88.848 218.713985 
z
" style="fill:#ffffff;stroke:#00a4ff;stroke-dasharray:14.8,6.4;stroke-dashoffset:0;stroke-linejoin:miter;stroke-width:4;"/>
   </g>
   <g id="patch_9">
    <path clip-path="url(#pe168ed99ca)" d="M 118.608 453.9456 
L 145.392 453.9456 
L 145.392 218.533893 
L 118.608 218.533893 
z
" style="fill:#ffffff;stroke:#40ffb7;stroke-linejoin:miter;stroke-width:4;"/>
   </g>
   <g id="patch_10">
    <path clip-path="url(#pe168ed99ca)" d="M 148.368 453.9456 
L 175.152 453.9456 
L 175.152 218.533893 
L 148.368 218.533893 
z
" style="fill:#ffffff;stroke:#40ffb7;stroke-dasharray:14.8,6.4;stroke-dashoffset:0;stroke-linejoin:miter;stroke-width:4;"/>
   </g>
   <g id="patch_11">
    <path clip-path="url(#pe168ed99ca)" d="z
" style="fill:#ffffff;stroke:#b7ff40;stroke-linejoin:miter;stroke-width:4;"/>
   </g>
   <g id="patch_12">
    <path clip-path="url(#pe168ed99ca)" d="z
" style="fill:#ffffff;stroke:#b7ff40;stroke-dasharray:14.8,6.4;stroke-dashoffset:0;stroke-linejoin:miter;stroke-width:4;"/>
   </g>
   <g id="patch_13">
    <path clip-path="url(#pe168ed99ca)" d="z
" style="fill:#ffffff;stroke:#ffb900;stroke-linejoin:miter;stroke-width:4;"/>
   </g>
   <g id="patch_14">
    <path clip-path="url(#pe168ed99ca)" d="z
" style="fill:#ffffff;stroke:#ffb900;stroke-dasharray:14.8,6.4;stroke-dashoffset:0;stroke-linejoin:miter;stroke-width:4;"/>
   </g>
   <g id="patch_15">
    <path clip-path="url(#pe168ed99ca)" d="z
" style="fill:#ffffff;stroke:#ff3000;stroke-linejoin:miter;stroke-width:4;"/>
   </g>
   <g id="patch_16">
    <path clip-path="url(#pe168ed99ca)" d="z
" style="fill:#ffffff;stroke:#ff3000;stroke-dasharray:14.8,6.4;stroke-dashoffset:0;stroke-linejoin:miter;stroke-width:4;"/>
   </g>
   <g id="patch_17">
    <path clip-path="url(#pe168ed99ca)" d="z
" style="fill:#ffffff;stroke:#800000;stroke-linejoin:miter;stroke-width:4;"/>
   </g>
   <g id="patch_18">
    <path clip-path="url(#pe168ed99ca)" d="z
" style="fill:#ffffff;stroke:#800000;stroke-dasharray:14.8,6.4;stroke-dashoffset:0;stroke-linejoin:miter;stroke-width:4;"/>
   </g>
   <g id="patch_19">
    <path d="M 57.6 307.584 
L 57.6 41.472 
" style="fill:none;stroke:#000000;stroke-linecap:square;stroke-linejoin:miter;stroke-width:0.8;"/>
   </g>
   <g id="patch_20">
    <path d="M 414.72 307.584 
L 414.72 41.472 
" style="fill:none;stroke:#000000;stroke-linecap:square;stroke-linejoin:miter;stroke-width:0.8;"/>
   </g>
   <g id="patch_21">
    <path d="M 57.6 307.584 
L 414.72 307.584 
" style="fill:none;stroke:#000000;stroke-linecap:square;stroke-linejoin:miter;stroke-width:0.8;"/>
   </g>
   <g id="patch_22">
    <path d="M 57.6 41.472 
L 414.72 41.472 
" style="fill:none;stroke:#000000;stroke-linecap:square;stroke-linejoin:miter;stroke-width:0.8;"/>
   </g>
   <g id="text_14">
    <!-- p=nan -->
    <defs>
     <path d="M 10.59375 45.40625 
L 73.1875 45.40625 
L 73.1875 37.203125 
L 10.59375 37.203125 
z
M 10.59375 25.484375 
L 73.1875 25.484375 
L 73.1875 17.1875 
L 10.59375 17.1875 
z
" id="DejaVuSans-3d"/>
    </defs>
    <g transform="translate(-61.858125 153.23904)scale(0.18 -0.18)">
     <use xlink:href="#DejaVuSans-70"/>
     <use x="63.476562" xlink:href="#DejaVuSans-3d"/>
     <use x="147.265625" xlink:href="#DejaVuSans-6e"/>
     <use x="210.644531" xlink:href="#DejaVuSans-61"/>
     <use x="271.923828" xlink:href="#DejaVuSans-6e"/>
    </g>
   </g>
   <g id="text_15">
    <!-- p=nan -->
    <g transform="translate(-2.338125 153.23904)scale(0.18 -0.18)">
     <use xlink:href="#DejaVuSans-70"/>
     <use x="63.476562" xlink:href="#DejaVuSans-3d"/>
     <use x="147.265625" xlink:href="#DejaVuSans-6e"/>
     <use x="210.644531" xlink:href="#DejaVuSans-61"/>
     <use x="271.923828" xlink:href="#DejaVuSans-6e"/>
    </g>
   </g>
   <g id="text_16">
    <!-- p=nan -->
    <g transform="translate(57.181875 153.23904)scale(0.18 -0.18)">
     <use xlink:href="#DejaVuSans-70"/>
     <use x="63.476562" xlink:href="#DejaVuSans-3d"/>
     <use x="147.265625" xlink:href="#DejaVuSans-6e"/>
     <use x="210.644531" xlink:href="#DejaVuSans-61"/>
     <use x="271.923828" xlink:href="#DejaVuSans-6e"/>
    </g>
   </g>
   <g id="text_17">
    <!-- p=nan -->
    <g transform="translate(116.701875 153.23904)scale(0.18 -0.18)">
     <use xlink:href="#DejaVuSans-70"/>
     <use x="63.476562" xlink:href="#DejaVuSans-3d"/>
     <use x="147.265625" xlink:href="#DejaVuSans-6e"/>
     <use x="210.644531" xlink:href="#DejaVuSans-61"/>
     <use x="271.923828" xlink:href="#DejaVuSans-6e"/>
    </g>
   </g>
   <g id="text_18">
    <!-- p=0.0e+00 -->
    <defs>
     <path d="M 10.6875 12.40625 
L 21 12.40625 
L 21 0 
L 10.6875 0 
z
" id="DejaVuSans-2e"/>
     <path d="M 46 62.703125 
L 46 35.5 
L 73.1875 35.5 
L 73.1875 27.203125 
L 46 27.203125 
L 46 0 
L 37.796875 0 
L 37.796875 27.203125 
L 10.59375 27.203125 
L 10.59375 35.5 
L 37.796875 35.5 
L 37.796875 62.703125 
z
" id="DejaVuSans-2b"/>
    </defs>
    <g transform="translate(154.299844 153.23904)scale(0.18 -0.18)">
     <use xlink:href="#DejaVuSans-70"/>
     <use x="63.476562" xlink:href="#DejaVuSans-3d"/>
     <use x="147.265625" xlink:href="#DejaVuSans-30"/>
     <use x="210.888672" xlink:href="#DejaVuSans-2e"/>
     <use x="242.675781" xlink:href="#DejaVuSans-30"/>
     <use x="306.298828" xlink:href="#DejaVuSans-65"/>
     <use x="367.822266" xlink:href="#DejaVuSans-2b"/>
     <use x="451.611328" xlink:href="#DejaVuSans-30"/>
     <use x="515.234375" xlink:href="#DejaVuSans-30"/>
    </g>
   </g>
   <g id="text_19">
    <!-- p=0.0e+00 -->
    <g transform="translate(213.819844 153.23904)scale(0.18 -0.18)">
     <use xlink:href="#DejaVuSans-70"/>
     <use x="63.476562" xlink:href="#DejaVuSans-3d"/>
     <use x="147.265625" xlink:href="#DejaVuSans-30"/>
     <use x="210.888672" xlink:href="#DejaVuSans-2e"/>
     <use x="242.675781" xlink:href="#DejaVuSans-30"/>
     <use x="306.298828" xlink:href="#DejaVuSans-65"/>
     <use x="367.822266" xlink:href="#DejaVuSans-2b"/>
     <use x="451.611328" xlink:href="#DejaVuSans-30"/>
     <use x="515.234375" xlink:href="#DejaVuSans-30"/>
    </g>
   </g>
   <g id="text_20">
    <!-- p=0.0e+00 -->
    <g transform="translate(273.339844 153.23904)scale(0.18 -0.18)">
     <use xlink:href="#DejaVuSans-70"/>
     <use x="63.476562" xlink:href="#DejaVuSans-3d"/>
     <use x="147.265625" xlink:href="#DejaVuSans-30"/>
     <use x="210.888672" xlink:href="#DejaVuSans-2e"/>
     <use x="242.675781" xlink:href="#DejaVuSans-30"/>
     <use x="306.298828" xlink:href="#DejaVuSans-65"/>
     <use x="367.822266" xlink:href="#DejaVuSans-2b"/>
     <use x="451.611328" xlink:href="#DejaVuSans-30"/>
     <use x="515.234375" xlink:href="#DejaVuSans-30"/>
    </g>
   </g>
   <g id="text_21">
    <!-- p=0.0e+00 -->
    <g transform="translate(332.859844 153.23904)scale(0.18 -0.18)">
     <use xlink:href="#DejaVuSans-70"/>
     <use x="63.476562" xlink:href="#DejaVuSans-3d"/>
     <use x="147.265625" xlink:href="#DejaVuSans-30"/>
     <use x="210.888672" xlink:href="#DejaVuSans-2e"/>
     <use x="242.675781" xlink:href="#DejaVuSans-30"/>
     <use x="306.298828" xlink:href="#DejaVuSans-65"/>
     <use x="367.822266" xlink:href="#DejaVuSans-2b"/>
     <use x="451.611328" xlink:href="#DejaVuSans-30"/>
     <use x="515.234375" xlink:href="#DejaVuSans-30"/>
    </g>
   </g>
  </g>
 </g>
 <defs>
  <clipPath id="pe168ed99ca">
   <rect height="266.112" width="357.12" x="57.6" y="41.472"/>
  </clipPath>
 </defs>
</svg>
