<?xml version="1.0" encoding="utf-8" standalone="no"?>
<!DOCTYPE svg PUBLIC "-//W3C//DTD SVG 1.1//EN"
  "http://www.w3.org/Graphics/SVG/1.1/DTD/svg11.dtd">
<!-- Created with matplotlib (http://matplotlib.org/) -->
<svg height="345.6pt" version="1.1" viewBox="0 0 460.8 345.6" width="460.8pt" xmlns="http://www.w3.org/2000/svg" xmlns:xlink="http://www.w3.org/1999/xlink">
 <defs>
  <style type="text/css">
*{stroke-linecap:butt;stroke-linejoin:round;}
  </style>
 </defs>
 <g id="figure_1">
  <g id="patch_1">
   <path d="M 0 345.6 
L 460.8 345.6 
L 460.8 0 
L 0 0 
z
" style="fill:#ffffff;"/>
  </g>
  <g id="axes_1">
   <g id="patch_2">
    <path d="M 57.6 307.584 
L 414.72 307.584 
L 414.72 41.472 
L 57.6 41.472 
z
" style="fill:#ffffff;"/>
   </g>
   <g id="line2d_1">
    <path clip-path="url(#p54ba9b3050)" d="M 62.288463 307.561197 
L 62.418988 307.561197 
" style="fill:none;stroke:#000000;stroke-dasharray:2,3.3;stroke-dashoffset:0;stroke-opacity:0.1;stroke-width:2;"/>
    <defs>
     <path d="M 0 3 
C 0.795609 3 1.55874 2.683901 2.12132 2.12132 
C 2.683901 1.55874 3 0.795609 3 0 
C 3 -0.795609 2.683901 -1.55874 2.12132 -2.12132 
C 1.55874 -2.683901 0.795609 -3 0 -3 
C -0.795609 -3 -1.55874 -2.683901 -2.12132 -2.12132 
C -2.683901 -1.55874 -3 -0.795609 -3 0 
C -3 0.795609 -2.683901 1.55874 -2.12132 2.12132 
C -1.55874 2.683901 -0.795609 3 0 3 
z
" id="m1c79445182" style="stroke:#000000;stroke-opacity:0;"/>
    </defs>
    <g clip-path="url(#p54ba9b3050)">
     <use style="fill-opacity:0.1;stroke:#000000;stroke-opacity:0;" x="62.288463" xlink:href="#m1c79445182" y="307.561197"/>
     <use style="fill-opacity:0.1;stroke:#000000;stroke-opacity:0;" x="62.418988" xlink:href="#m1c79445182" y="307.561197"/>
    </g>
   </g>
   <g id="line2d_2">
    <path clip-path="url(#p54ba9b3050)" d="M 61.385222 307.561638 
L 62.241465 307.561638 
" style="fill:none;stroke:#000000;stroke-dasharray:2,3.3;stroke-dashoffset:0;stroke-opacity:0.1;stroke-width:2;"/>
    <g clip-path="url(#p54ba9b3050)">
     <use style="fill-opacity:0.1;stroke:#000000;stroke-opacity:0;" x="61.385222" xlink:href="#m1c79445182" y="307.561638"/>
     <use style="fill-opacity:0.1;stroke:#000000;stroke-opacity:0;" x="62.241465" xlink:href="#m1c79445182" y="307.561638"/>
    </g>
   </g>
   <g id="line2d_3">
    <path clip-path="url(#p54ba9b3050)" d="M 59.103654 307.572668 
L 59.64141 307.572668 
" style="fill:none;stroke:#000000;stroke-dasharray:2,3.3;stroke-dashoffset:0;stroke-opacity:0.1;stroke-width:2;"/>
    <g clip-path="url(#p54ba9b3050)">
     <use style="fill-opacity:0.1;stroke:#000000;stroke-opacity:0;" x="59.103654" xlink:href="#m1c79445182" y="307.572668"/>
     <use style="fill-opacity:0.1;stroke:#000000;stroke-opacity:0;" x="59.64141" xlink:href="#m1c79445182" y="307.572668"/>
    </g>
   </g>
   <g id="line2d_4">
    <path clip-path="url(#p54ba9b3050)" d="M 59.103649 307.575532 
L 59.808482 307.575532 
" style="fill:none;stroke:#000000;stroke-dasharray:2,3.3;stroke-dashoffset:0;stroke-opacity:0.1;stroke-width:2;"/>
    <g clip-path="url(#p54ba9b3050)">
     <use style="fill-opacity:0.1;stroke:#000000;stroke-opacity:0;" x="59.103649" xlink:href="#m1c79445182" y="307.575532"/>
     <use style="fill-opacity:0.1;stroke:#000000;stroke-opacity:0;" x="59.808482" xlink:href="#m1c79445182" y="307.575532"/>
    </g>
   </g>
   <g id="line2d_5">
    <path clip-path="url(#p54ba9b3050)" d="M 0 0 
" style="fill:none;stroke:#000000;stroke-dasharray:2,3.3;stroke-dashoffset:0;stroke-opacity:0.1;stroke-width:2;"/>
    <g clip-path="url(#p54ba9b3050)">
     <use style="fill-opacity:0.1;stroke:#000000;stroke-opacity:0;" x="0" xlink:href="#m1c79445182" y="0"/>
    </g>
   </g>
   <g id="line2d_6">
    <path clip-path="url(#p54ba9b3050)" d="M 0 0 
" style="fill:none;stroke:#000000;stroke-dasharray:2,3.3;stroke-dashoffset:0;stroke-opacity:0.1;stroke-width:2;"/>
    <g clip-path="url(#p54ba9b3050)">
     <use style="fill-opacity:0.1;stroke:#000000;stroke-opacity:0;" x="0" xlink:href="#m1c79445182" y="0"/>
    </g>
   </g>
   <g id="line2d_7">
    <path clip-path="url(#p54ba9b3050)" d="M 0 0 
" style="fill:none;stroke:#000000;stroke-dasharray:2,3.3;stroke-dashoffset:0;stroke-opacity:0.1;stroke-width:2;"/>
    <g clip-path="url(#p54ba9b3050)">
     <use style="fill-opacity:0.1;stroke:#000000;stroke-opacity:0;" x="0" xlink:href="#m1c79445182" y="0"/>
    </g>
   </g>
   <g id="line2d_8">
    <path clip-path="url(#p54ba9b3050)" d="M 0 0 
" style="fill:none;stroke:#000000;stroke-dasharray:2,3.3;stroke-dashoffset:0;stroke-opacity:0.1;stroke-width:2;"/>
    <g clip-path="url(#p54ba9b3050)">
     <use style="fill-opacity:0.1;stroke:#000000;stroke-opacity:0;" x="0" xlink:href="#m1c79445182" y="0"/>
    </g>
   </g>
   <g id="line2d_9">
    <path clip-path="url(#p54ba9b3050)" d="M 62.288463 307.561197 
L 62.418988 307.561197 
" style="fill:none;stroke:#000000;stroke-dasharray:2,3.3;stroke-dashoffset:0;stroke-opacity:0.1;stroke-width:2;"/>
    <g clip-path="url(#p54ba9b3050)">
     <use style="fill-opacity:0.1;stroke:#000000;stroke-opacity:0;" x="62.288463" xlink:href="#m1c79445182" y="307.561197"/>
     <use style="fill-opacity:0.1;stroke:#000000;stroke-opacity:0;" x="62.418988" xlink:href="#m1c79445182" y="307.561197"/>
    </g>
   </g>
   <g id="line2d_10">
    <path clip-path="url(#p54ba9b3050)" d="M 61.385222 307.561638 
L 62.241465 307.561638 
" style="fill:none;stroke:#000000;stroke-dasharray:2,3.3;stroke-dashoffset:0;stroke-opacity:0.1;stroke-width:2;"/>
    <g clip-path="url(#p54ba9b3050)">
     <use style="fill-opacity:0.1;stroke:#000000;stroke-opacity:0;" x="61.385222" xlink:href="#m1c79445182" y="307.561638"/>
     <use style="fill-opacity:0.1;stroke:#000000;stroke-opacity:0;" x="62.241465" xlink:href="#m1c79445182" y="307.561638"/>
    </g>
   </g>
   <g id="line2d_11">
    <path clip-path="url(#p54ba9b3050)" d="M 59.103654 307.572668 
L 59.64141 307.572668 
" style="fill:none;stroke:#000000;stroke-dasharray:2,3.3;stroke-dashoffset:0;stroke-opacity:0.1;stroke-width:2;"/>
    <g clip-path="url(#p54ba9b3050)">
     <use style="fill-opacity:0.1;stroke:#000000;stroke-opacity:0;" x="59.103654" xlink:href="#m1c79445182" y="307.572668"/>
     <use style="fill-opacity:0.1;stroke:#000000;stroke-opacity:0;" x="59.64141" xlink:href="#m1c79445182" y="307.572668"/>
    </g>
   </g>
   <g id="line2d_12">
    <path clip-path="url(#p54ba9b3050)" d="M 59.103649 307.575532 
L 59.808482 307.575532 
" style="fill:none;stroke:#000000;stroke-dasharray:2,3.3;stroke-dashoffset:0;stroke-opacity:0.1;stroke-width:2;"/>
    <g clip-path="url(#p54ba9b3050)">
     <use style="fill-opacity:0.1;stroke:#000000;stroke-opacity:0;" x="59.103649" xlink:href="#m1c79445182" y="307.575532"/>
     <use style="fill-opacity:0.1;stroke:#000000;stroke-opacity:0;" x="59.808482" xlink:href="#m1c79445182" y="307.575532"/>
    </g>
   </g>
   <g id="line2d_13">
    <path clip-path="url(#p54ba9b3050)" d="M 0 0 
" style="fill:none;stroke:#000000;stroke-dasharray:2,3.3;stroke-dashoffset:0;stroke-opacity:0.1;stroke-width:2;"/>
    <g clip-path="url(#p54ba9b3050)">
     <use style="fill-opacity:0.1;stroke:#000000;stroke-opacity:0;" x="0" xlink:href="#m1c79445182" y="0"/>
    </g>
   </g>
   <g id="line2d_14">
    <path clip-path="url(#p54ba9b3050)" d="M 0 0 
" style="fill:none;stroke:#000000;stroke-dasharray:2,3.3;stroke-dashoffset:0;stroke-opacity:0.1;stroke-width:2;"/>
    <g clip-path="url(#p54ba9b3050)">
     <use style="fill-opacity:0.1;stroke:#000000;stroke-opacity:0;" x="0" xlink:href="#m1c79445182" y="0"/>
    </g>
   </g>
   <g id="line2d_15">
    <path clip-path="url(#p54ba9b3050)" d="M 0 0 
" style="fill:none;stroke:#000000;stroke-dasharray:2,3.3;stroke-dashoffset:0;stroke-opacity:0.1;stroke-width:2;"/>
    <g clip-path="url(#p54ba9b3050)">
     <use style="fill-opacity:0.1;stroke:#000000;stroke-opacity:0;" x="0" xlink:href="#m1c79445182" y="0"/>
    </g>
   </g>
   <g id="line2d_16">
    <path clip-path="url(#p54ba9b3050)" d="M 0 0 
" style="fill:none;stroke:#000000;stroke-dasharray:2,3.3;stroke-dashoffset:0;stroke-opacity:0.1;stroke-width:2;"/>
    <g clip-path="url(#p54ba9b3050)">
     <use style="fill-opacity:0.1;stroke:#000000;stroke-opacity:0;" x="0" xlink:href="#m1c79445182" y="0"/>
    </g>
   </g>
   <g id="matplotlib.axis_1">
    <g id="xtick_1">
     <g id="line2d_17">
      <defs>
       <path d="M 0 0 
L 0 3.5 
" id="m3801516e5c" style="stroke:#000000;stroke-width:0.8;"/>
      </defs>
      <g>
       <use style="stroke:#000000;stroke-width:0.8;" x="57.6" xlink:href="#m3801516e5c" y="307.584"/>
      </g>
     </g>
     <g id="text_1">
      <!-- 0 -->
      <defs>
       <path d="M 31.78125 66.40625 
Q 24.171875 66.40625 20.328125 58.90625 
Q 16.5 51.421875 16.5 36.375 
Q 16.5 21.390625 20.328125 13.890625 
Q 24.171875 6.390625 31.78125 6.390625 
Q 39.453125 6.390625 43.28125 13.890625 
Q 47.125 21.390625 47.125 36.375 
Q 47.125 51.421875 43.28125 58.90625 
Q 39.453125 66.40625 31.78125 66.40625 
z
M 31.78125 74.21875 
Q 44.046875 74.21875 50.515625 64.515625 
Q 56.984375 54.828125 56.984375 36.375 
Q 56.984375 17.96875 50.515625 8.265625 
Q 44.046875 -1.421875 31.78125 -1.421875 
Q 19.53125 -1.421875 13.0625 8.265625 
Q 6.59375 17.96875 6.59375 36.375 
Q 6.59375 54.828125 13.0625 64.515625 
Q 19.53125 74.21875 31.78125 74.21875 
z
" id="DejaVuSans-30"/>
      </defs>
      <g transform="translate(51.87375 328.261187)scale(0.18 -0.18)">
       <use xlink:href="#DejaVuSans-30"/>
      </g>
     </g>
    </g>
    <g id="xtick_2">
     <g id="line2d_18">
      <g>
       <use style="stroke:#000000;stroke-width:0.8;" x="117.12" xlink:href="#m3801516e5c" y="307.584"/>
      </g>
     </g>
     <g id="text_2">
      <!-- 10 -->
      <defs>
       <path d="M 12.40625 8.296875 
L 28.515625 8.296875 
L 28.515625 63.921875 
L 10.984375 60.40625 
L 10.984375 69.390625 
L 28.421875 72.90625 
L 38.28125 72.90625 
L 38.28125 8.296875 
L 54.390625 8.296875 
L 54.390625 0 
L 12.40625 0 
z
" id="DejaVuSans-31"/>
      </defs>
      <g transform="translate(105.6675 328.261187)scale(0.18 -0.18)">
       <use xlink:href="#DejaVuSans-31"/>
       <use x="63.623047" xlink:href="#DejaVuSans-30"/>
      </g>
     </g>
    </g>
    <g id="xtick_3">
     <g id="line2d_19">
      <g>
       <use style="stroke:#000000;stroke-width:0.8;" x="176.64" xlink:href="#m3801516e5c" y="307.584"/>
      </g>
     </g>
     <g id="text_3">
      <!-- 20 -->
      <defs>
       <path d="M 19.1875 8.296875 
L 53.609375 8.296875 
L 53.609375 0 
L 7.328125 0 
L 7.328125 8.296875 
Q 12.9375 14.109375 22.625 23.890625 
Q 32.328125 33.6875 34.8125 36.53125 
Q 39.546875 41.84375 41.421875 45.53125 
Q 43.3125 49.21875 43.3125 52.78125 
Q 43.3125 58.59375 39.234375 62.25 
Q 35.15625 65.921875 28.609375 65.921875 
Q 23.96875 65.921875 18.8125 64.3125 
Q 13.671875 62.703125 7.8125 59.421875 
L 7.8125 69.390625 
Q 13.765625 71.78125 18.9375 73 
Q 24.125 74.21875 28.421875 74.21875 
Q 39.75 74.21875 46.484375 68.546875 
Q 53.21875 62.890625 53.21875 53.421875 
Q 53.21875 48.921875 51.53125 44.890625 
Q 49.859375 40.875 45.40625 35.40625 
Q 44.1875 33.984375 37.640625 27.21875 
Q 31.109375 20.453125 19.1875 8.296875 
z
" id="DejaVuSans-32"/>
      </defs>
      <g transform="translate(165.1875 328.261187)scale(0.18 -0.18)">
       <use xlink:href="#DejaVuSans-32"/>
       <use x="63.623047" xlink:href="#DejaVuSans-30"/>
      </g>
     </g>
    </g>
    <g id="xtick_4">
     <g id="line2d_20">
      <g>
       <use style="stroke:#000000;stroke-width:0.8;" x="236.16" xlink:href="#m3801516e5c" y="307.584"/>
      </g>
     </g>
     <g id="text_4">
      <!-- 30 -->
      <defs>
       <path d="M 40.578125 39.3125 
Q 47.65625 37.796875 51.625 33 
Q 55.609375 28.21875 55.609375 21.1875 
Q 55.609375 10.40625 48.1875 4.484375 
Q 40.765625 -1.421875 27.09375 -1.421875 
Q 22.515625 -1.421875 17.65625 -0.515625 
Q 12.796875 0.390625 7.625 2.203125 
L 7.625 11.71875 
Q 11.71875 9.328125 16.59375 8.109375 
Q 21.484375 6.890625 26.8125 6.890625 
Q 36.078125 6.890625 40.9375 10.546875 
Q 45.796875 14.203125 45.796875 21.1875 
Q 45.796875 27.640625 41.28125 31.265625 
Q 36.765625 34.90625 28.71875 34.90625 
L 20.21875 34.90625 
L 20.21875 43.015625 
L 29.109375 43.015625 
Q 36.375 43.015625 40.234375 45.921875 
Q 44.09375 48.828125 44.09375 54.296875 
Q 44.09375 59.90625 40.109375 62.90625 
Q 36.140625 65.921875 28.71875 65.921875 
Q 24.65625 65.921875 20.015625 65.03125 
Q 15.375 64.15625 9.8125 62.3125 
L 9.8125 71.09375 
Q 15.4375 72.65625 20.34375 73.4375 
Q 25.25 74.21875 29.59375 74.21875 
Q 40.828125 74.21875 47.359375 69.109375 
Q 53.90625 64.015625 53.90625 55.328125 
Q 53.90625 49.265625 50.4375 45.09375 
Q 46.96875 40.921875 40.578125 39.3125 
z
" id="DejaVuSans-33"/>
      </defs>
      <g transform="translate(224.7075 328.261187)scale(0.18 -0.18)">
       <use xlink:href="#DejaVuSans-33"/>
       <use x="63.623047" xlink:href="#DejaVuSans-30"/>
      </g>
     </g>
    </g>
    <g id="xtick_5">
     <g id="line2d_21">
      <g>
       <use style="stroke:#000000;stroke-width:0.8;" x="295.68" xlink:href="#m3801516e5c" y="307.584"/>
      </g>
     </g>
     <g id="text_5">
      <!-- 40 -->
      <defs>
       <path d="M 37.796875 64.3125 
L 12.890625 25.390625 
L 37.796875 25.390625 
z
M 35.203125 72.90625 
L 47.609375 72.90625 
L 47.609375 25.390625 
L 58.015625 25.390625 
L 58.015625 17.1875 
L 47.609375 17.1875 
L 47.609375 0 
L 37.796875 0 
L 37.796875 17.1875 
L 4.890625 17.1875 
L 4.890625 26.703125 
z
" id="DejaVuSans-34"/>
      </defs>
      <g transform="translate(284.2275 328.261187)scale(0.18 -0.18)">
       <use xlink:href="#DejaVuSans-34"/>
       <use x="63.623047" xlink:href="#DejaVuSans-30"/>
      </g>
     </g>
    </g>
    <g id="xtick_6">
     <g id="line2d_22">
      <g>
       <use style="stroke:#000000;stroke-width:0.8;" x="355.2" xlink:href="#m3801516e5c" y="307.584"/>
      </g>
     </g>
     <g id="text_6">
      <!-- 50 -->
      <defs>
       <path d="M 10.796875 72.90625 
L 49.515625 72.90625 
L 49.515625 64.59375 
L 19.828125 64.59375 
L 19.828125 46.734375 
Q 21.96875 47.46875 24.109375 47.828125 
Q 26.265625 48.1875 28.421875 48.1875 
Q 40.625 48.1875 47.75 41.5 
Q 54.890625 34.8125 54.890625 23.390625 
Q 54.890625 11.625 47.5625 5.09375 
Q 40.234375 -1.421875 26.90625 -1.421875 
Q 22.3125 -1.421875 17.546875 -0.640625 
Q 12.796875 0.140625 7.71875 1.703125 
L 7.71875 11.625 
Q 12.109375 9.234375 16.796875 8.0625 
Q 21.484375 6.890625 26.703125 6.890625 
Q 35.15625 6.890625 40.078125 11.328125 
Q 45.015625 15.765625 45.015625 23.390625 
Q 45.015625 31 40.078125 35.4375 
Q 35.15625 39.890625 26.703125 39.890625 
Q 22.75 39.890625 18.8125 39.015625 
Q 14.890625 38.140625 10.796875 36.28125 
z
" id="DejaVuSans-35"/>
      </defs>
      <g transform="translate(343.7475 328.261187)scale(0.18 -0.18)">
       <use xlink:href="#DejaVuSans-35"/>
       <use x="63.623047" xlink:href="#DejaVuSans-30"/>
      </g>
     </g>
    </g>
    <g id="xtick_7">
     <g id="line2d_23">
      <g>
       <use style="stroke:#000000;stroke-width:0.8;" x="414.72" xlink:href="#m3801516e5c" y="307.584"/>
      </g>
     </g>
     <g id="text_7">
      <!-- 60 -->
      <defs>
       <path d="M 33.015625 40.375 
Q 26.375 40.375 22.484375 35.828125 
Q 18.609375 31.296875 18.609375 23.390625 
Q 18.609375 15.53125 22.484375 10.953125 
Q 26.375 6.390625 33.015625 6.390625 
Q 39.65625 6.390625 43.53125 10.953125 
Q 47.40625 15.53125 47.40625 23.390625 
Q 47.40625 31.296875 43.53125 35.828125 
Q 39.65625 40.375 33.015625 40.375 
z
M 52.59375 71.296875 
L 52.59375 62.3125 
Q 48.875 64.0625 45.09375 64.984375 
Q 41.3125 65.921875 37.59375 65.921875 
Q 27.828125 65.921875 22.671875 59.328125 
Q 17.53125 52.734375 16.796875 39.40625 
Q 19.671875 43.65625 24.015625 45.921875 
Q 28.375 48.1875 33.59375 48.1875 
Q 44.578125 48.1875 50.953125 41.515625 
Q 57.328125 34.859375 57.328125 23.390625 
Q 57.328125 12.15625 50.6875 5.359375 
Q 44.046875 -1.421875 33.015625 -1.421875 
Q 20.359375 -1.421875 13.671875 8.265625 
Q 6.984375 17.96875 6.984375 36.375 
Q 6.984375 53.65625 15.1875 63.9375 
Q 23.390625 74.21875 37.203125 74.21875 
Q 40.921875 74.21875 44.703125 73.484375 
Q 48.484375 72.75 52.59375 71.296875 
z
" id="DejaVuSans-36"/>
      </defs>
      <g transform="translate(403.2675 328.261187)scale(0.18 -0.18)">
       <use xlink:href="#DejaVuSans-36"/>
       <use x="63.623047" xlink:href="#DejaVuSans-30"/>
      </g>
     </g>
    </g>
   </g>
   <g id="matplotlib.axis_2">
    <g id="ytick_1">
     <g id="line2d_24">
      <defs>
       <path d="M 0 0 
L -3.5 0 
" id="me28b392dc6" style="stroke:#000000;stroke-width:0.8;"/>
      </defs>
      <g>
       <use style="stroke:#000000;stroke-width:0.8;" x="57.6" xlink:href="#me28b392dc6" y="307.584"/>
      </g>
     </g>
     <g id="text_8">
      <!-- 0 -->
      <g transform="translate(39.1475 314.422594)scale(0.18 -0.18)">
       <use xlink:href="#DejaVuSans-30"/>
      </g>
     </g>
    </g>
    <g id="ytick_2">
     <g id="line2d_25">
      <g>
       <use style="stroke:#000000;stroke-width:0.8;" x="57.6" xlink:href="#me28b392dc6" y="254.3616"/>
      </g>
     </g>
     <g id="text_9">
      <!-- 5 -->
      <g transform="translate(39.1475 261.200194)scale(0.18 -0.18)">
       <use xlink:href="#DejaVuSans-35"/>
      </g>
     </g>
    </g>
    <g id="ytick_3">
     <g id="line2d_26">
      <g>
       <use style="stroke:#000000;stroke-width:0.8;" x="57.6" xlink:href="#me28b392dc6" y="201.1392"/>
      </g>
     </g>
     <g id="text_10">
      <!-- 10 -->
      <g transform="translate(27.695 207.977794)scale(0.18 -0.18)">
       <use xlink:href="#DejaVuSans-31"/>
       <use x="63.623047" xlink:href="#DejaVuSans-30"/>
      </g>
     </g>
    </g>
    <g id="ytick_4">
     <g id="line2d_27">
      <g>
       <use style="stroke:#000000;stroke-width:0.8;" x="57.6" xlink:href="#me28b392dc6" y="147.9168"/>
      </g>
     </g>
     <g id="text_11">
      <!-- 15 -->
      <g transform="translate(27.695 154.755394)scale(0.18 -0.18)">
       <use xlink:href="#DejaVuSans-31"/>
       <use x="63.623047" xlink:href="#DejaVuSans-35"/>
      </g>
     </g>
    </g>
    <g id="ytick_5">
     <g id="line2d_28">
      <g>
       <use style="stroke:#000000;stroke-width:0.8;" x="57.6" xlink:href="#me28b392dc6" y="94.6944"/>
      </g>
     </g>
     <g id="text_12">
      <!-- 20 -->
      <g transform="translate(27.695 101.532994)scale(0.18 -0.18)">
       <use xlink:href="#DejaVuSans-32"/>
       <use x="63.623047" xlink:href="#DejaVuSans-30"/>
      </g>
     </g>
    </g>
    <g id="ytick_6">
     <g id="line2d_29">
      <g>
       <use style="stroke:#000000;stroke-width:0.8;" x="57.6" xlink:href="#me28b392dc6" y="41.472"/>
      </g>
     </g>
     <g id="text_13">
      <!-- 25 -->
      <g transform="translate(27.695 48.310594)scale(0.18 -0.18)">
       <use xlink:href="#DejaVuSans-32"/>
       <use x="63.623047" xlink:href="#DejaVuSans-35"/>
      </g>
     </g>
    </g>
    <g id="text_14">
     <!-- leaf z-angle base-tip [$^{\circ}$] -->
     <defs>
      <path d="M 9.421875 75.984375 
L 18.40625 75.984375 
L 18.40625 0 
L 9.421875 0 
z
" id="DejaVuSans-6c"/>
      <path d="M 56.203125 29.59375 
L 56.203125 25.203125 
L 14.890625 25.203125 
Q 15.484375 15.921875 20.484375 11.0625 
Q 25.484375 6.203125 34.421875 6.203125 
Q 39.59375 6.203125 44.453125 7.46875 
Q 49.3125 8.734375 54.109375 11.28125 
L 54.109375 2.78125 
Q 49.265625 0.734375 44.1875 -0.34375 
Q 39.109375 -1.421875 33.890625 -1.421875 
Q 20.796875 -1.421875 13.15625 6.1875 
Q 5.515625 13.8125 5.515625 26.8125 
Q 5.515625 40.234375 12.765625 48.109375 
Q 20.015625 56 32.328125 56 
Q 43.359375 56 49.78125 48.890625 
Q 56.203125 41.796875 56.203125 29.59375 
z
M 47.21875 32.234375 
Q 47.125 39.59375 43.09375 43.984375 
Q 39.0625 48.390625 32.421875 48.390625 
Q 24.90625 48.390625 20.390625 44.140625 
Q 15.875 39.890625 15.1875 32.171875 
z
" id="DejaVuSans-65"/>
      <path d="M 34.28125 27.484375 
Q 23.390625 27.484375 19.1875 25 
Q 14.984375 22.515625 14.984375 16.5 
Q 14.984375 11.71875 18.140625 8.90625 
Q 21.296875 6.109375 26.703125 6.109375 
Q 34.1875 6.109375 38.703125 11.40625 
Q 43.21875 16.703125 43.21875 25.484375 
L 43.21875 27.484375 
z
M 52.203125 31.203125 
L 52.203125 0 
L 43.21875 0 
L 43.21875 8.296875 
Q 40.140625 3.328125 35.546875 0.953125 
Q 30.953125 -1.421875 24.3125 -1.421875 
Q 15.921875 -1.421875 10.953125 3.296875 
Q 6 8.015625 6 15.921875 
Q 6 25.140625 12.171875 29.828125 
Q 18.359375 34.515625 30.609375 34.515625 
L 43.21875 34.515625 
L 43.21875 35.40625 
Q 43.21875 41.609375 39.140625 45 
Q 35.0625 48.390625 27.6875 48.390625 
Q 23 48.390625 18.546875 47.265625 
Q 14.109375 46.140625 10.015625 43.890625 
L 10.015625 52.203125 
Q 14.9375 54.109375 19.578125 55.046875 
Q 24.21875 56 28.609375 56 
Q 40.484375 56 46.34375 49.84375 
Q 52.203125 43.703125 52.203125 31.203125 
z
" id="DejaVuSans-61"/>
      <path d="M 37.109375 75.984375 
L 37.109375 68.5 
L 28.515625 68.5 
Q 23.6875 68.5 21.796875 66.546875 
Q 19.921875 64.59375 19.921875 59.515625 
L 19.921875 54.6875 
L 34.71875 54.6875 
L 34.71875 47.703125 
L 19.921875 47.703125 
L 19.921875 0 
L 10.890625 0 
L 10.890625 47.703125 
L 2.296875 47.703125 
L 2.296875 54.6875 
L 10.890625 54.6875 
L 10.890625 58.5 
Q 10.890625 67.625 15.140625 71.796875 
Q 19.390625 75.984375 28.609375 75.984375 
z
" id="DejaVuSans-66"/>
      <path id="DejaVuSans-20"/>
      <path d="M 5.515625 54.6875 
L 48.1875 54.6875 
L 48.1875 46.484375 
L 14.40625 7.171875 
L 48.1875 7.171875 
L 48.1875 0 
L 4.296875 0 
L 4.296875 8.203125 
L 38.09375 47.515625 
L 5.515625 47.515625 
z
" id="DejaVuSans-7a"/>
      <path d="M 4.890625 31.390625 
L 31.203125 31.390625 
L 31.203125 23.390625 
L 4.890625 23.390625 
z
" id="DejaVuSans-2d"/>
      <path d="M 54.890625 33.015625 
L 54.890625 0 
L 45.90625 0 
L 45.90625 32.71875 
Q 45.90625 40.484375 42.875 44.328125 
Q 39.84375 48.1875 33.796875 48.1875 
Q 26.515625 48.1875 22.3125 43.546875 
Q 18.109375 38.921875 18.109375 30.90625 
L 18.109375 0 
L 9.078125 0 
L 9.078125 54.6875 
L 18.109375 54.6875 
L 18.109375 46.1875 
Q 21.34375 51.125 25.703125 53.5625 
Q 30.078125 56 35.796875 56 
Q 45.21875 56 50.046875 50.171875 
Q 54.890625 44.34375 54.890625 33.015625 
z
" id="DejaVuSans-6e"/>
      <path d="M 45.40625 27.984375 
Q 45.40625 37.75 41.375 43.109375 
Q 37.359375 48.484375 30.078125 48.484375 
Q 22.859375 48.484375 18.828125 43.109375 
Q 14.796875 37.75 14.796875 27.984375 
Q 14.796875 18.265625 18.828125 12.890625 
Q 22.859375 7.515625 30.078125 7.515625 
Q 37.359375 7.515625 41.375 12.890625 
Q 45.40625 18.265625 45.40625 27.984375 
z
M 54.390625 6.78125 
Q 54.390625 -7.171875 48.1875 -13.984375 
Q 42 -20.796875 29.203125 -20.796875 
Q 24.46875 -20.796875 20.265625 -20.09375 
Q 16.0625 -19.390625 12.109375 -17.921875 
L 12.109375 -9.1875 
Q 16.0625 -11.328125 19.921875 -12.34375 
Q 23.78125 -13.375 27.78125 -13.375 
Q 36.625 -13.375 41.015625 -8.765625 
Q 45.40625 -4.15625 45.40625 5.171875 
L 45.40625 9.625 
Q 42.625 4.78125 38.28125 2.390625 
Q 33.9375 0 27.875 0 
Q 17.828125 0 11.671875 7.65625 
Q 5.515625 15.328125 5.515625 27.984375 
Q 5.515625 40.671875 11.671875 48.328125 
Q 17.828125 56 27.875 56 
Q 33.9375 56 38.28125 53.609375 
Q 42.625 51.21875 45.40625 46.390625 
L 45.40625 54.6875 
L 54.390625 54.6875 
z
" id="DejaVuSans-67"/>
      <path d="M 48.6875 27.296875 
Q 48.6875 37.203125 44.609375 42.84375 
Q 40.53125 48.484375 33.40625 48.484375 
Q 26.265625 48.484375 22.1875 42.84375 
Q 18.109375 37.203125 18.109375 27.296875 
Q 18.109375 17.390625 22.1875 11.75 
Q 26.265625 6.109375 33.40625 6.109375 
Q 40.53125 6.109375 44.609375 11.75 
Q 48.6875 17.390625 48.6875 27.296875 
z
M 18.109375 46.390625 
Q 20.953125 51.265625 25.265625 53.625 
Q 29.59375 56 35.59375 56 
Q 45.5625 56 51.78125 48.09375 
Q 58.015625 40.1875 58.015625 27.296875 
Q 58.015625 14.40625 51.78125 6.484375 
Q 45.5625 -1.421875 35.59375 -1.421875 
Q 29.59375 -1.421875 25.265625 0.953125 
Q 20.953125 3.328125 18.109375 8.203125 
L 18.109375 0 
L 9.078125 0 
L 9.078125 75.984375 
L 18.109375 75.984375 
z
" id="DejaVuSans-62"/>
      <path d="M 44.28125 53.078125 
L 44.28125 44.578125 
Q 40.484375 46.53125 36.375 47.5 
Q 32.28125 48.484375 27.875 48.484375 
Q 21.1875 48.484375 17.84375 46.4375 
Q 14.5 44.390625 14.5 40.28125 
Q 14.5 37.15625 16.890625 35.375 
Q 19.28125 33.59375 26.515625 31.984375 
L 29.59375 31.296875 
Q 39.15625 29.25 43.1875 25.515625 
Q 47.21875 21.78125 47.21875 15.09375 
Q 47.21875 7.46875 41.1875 3.015625 
Q 35.15625 -1.421875 24.609375 -1.421875 
Q 20.21875 -1.421875 15.453125 -0.5625 
Q 10.6875 0.296875 5.421875 2 
L 5.421875 11.28125 
Q 10.40625 8.6875 15.234375 7.390625 
Q 20.0625 6.109375 24.8125 6.109375 
Q 31.15625 6.109375 34.5625 8.28125 
Q 37.984375 10.453125 37.984375 14.40625 
Q 37.984375 18.0625 35.515625 20.015625 
Q 33.0625 21.96875 24.703125 23.78125 
L 21.578125 24.515625 
Q 13.234375 26.265625 9.515625 29.90625 
Q 5.8125 33.546875 5.8125 39.890625 
Q 5.8125 47.609375 11.28125 51.796875 
Q 16.75 56 26.8125 56 
Q 31.78125 56 36.171875 55.265625 
Q 40.578125 54.546875 44.28125 53.078125 
z
" id="DejaVuSans-73"/>
      <path d="M 18.3125 70.21875 
L 18.3125 54.6875 
L 36.8125 54.6875 
L 36.8125 47.703125 
L 18.3125 47.703125 
L 18.3125 18.015625 
Q 18.3125 11.328125 20.140625 9.421875 
Q 21.96875 7.515625 27.59375 7.515625 
L 36.8125 7.515625 
L 36.8125 0 
L 27.59375 0 
Q 17.1875 0 13.234375 3.875 
Q 9.28125 7.765625 9.28125 18.015625 
L 9.28125 47.703125 
L 2.6875 47.703125 
L 2.6875 54.6875 
L 9.28125 54.6875 
L 9.28125 70.21875 
z
" id="DejaVuSans-74"/>
      <path d="M 9.421875 54.6875 
L 18.40625 54.6875 
L 18.40625 0 
L 9.421875 0 
z
M 9.421875 75.984375 
L 18.40625 75.984375 
L 18.40625 64.59375 
L 9.421875 64.59375 
z
" id="DejaVuSans-69"/>
      <path d="M 18.109375 8.203125 
L 18.109375 -20.796875 
L 9.078125 -20.796875 
L 9.078125 54.6875 
L 18.109375 54.6875 
L 18.109375 46.390625 
Q 20.953125 51.265625 25.265625 53.625 
Q 29.59375 56 35.59375 56 
Q 45.5625 56 51.78125 48.09375 
Q 58.015625 40.1875 58.015625 27.296875 
Q 58.015625 14.40625 51.78125 6.484375 
Q 45.5625 -1.421875 35.59375 -1.421875 
Q 29.59375 -1.421875 25.265625 0.953125 
Q 20.953125 3.328125 18.109375 8.203125 
z
M 48.6875 27.296875 
Q 48.6875 37.203125 44.609375 42.84375 
Q 40.53125 48.484375 33.40625 48.484375 
Q 26.265625 48.484375 22.1875 42.84375 
Q 18.109375 37.203125 18.109375 27.296875 
Q 18.109375 17.390625 22.1875 11.75 
Q 26.265625 6.109375 33.40625 6.109375 
Q 40.53125 6.109375 44.609375 11.75 
Q 48.6875 17.390625 48.6875 27.296875 
z
" id="DejaVuSans-70"/>
      <path d="M 8.59375 75.984375 
L 29.296875 75.984375 
L 29.296875 69 
L 17.578125 69 
L 17.578125 -6.203125 
L 29.296875 -6.203125 
L 29.296875 -13.1875 
L 8.59375 -13.1875 
z
" id="DejaVuSans-5b"/>
      <path d="M 31.25 40.921875 
Q 27.34375 40.921875 24.65625 38.203125 
Q 21.96875 35.5 21.96875 31.59375 
Q 21.96875 27.734375 24.65625 25.078125 
Q 27.34375 22.421875 31.25 22.421875 
Q 35.15625 22.421875 37.84375 25.078125 
Q 40.53125 27.734375 40.53125 31.59375 
Q 40.53125 35.453125 37.8125 38.1875 
Q 35.109375 40.921875 31.25 40.921875 
z
M 31.25 47.21875 
Q 34.375 47.21875 37.25 46.015625 
Q 40.140625 44.828125 42.234375 42.578125 
Q 44.484375 40.390625 45.609375 37.59375 
Q 46.734375 34.8125 46.734375 31.59375 
Q 46.734375 25.15625 42.21875 20.6875 
Q 37.703125 16.21875 31.15625 16.21875 
Q 24.5625 16.21875 20.15625 20.609375 
Q 15.765625 25 15.765625 31.59375 
Q 15.765625 38.140625 20.25 42.671875 
Q 24.75 47.21875 31.25 47.21875 
z
" id="DejaVuSans-2218"/>
      <path d="M 30.421875 75.984375 
L 30.421875 -13.1875 
L 9.71875 -13.1875 
L 9.71875 -6.203125 
L 21.390625 -6.203125 
L 21.390625 69 
L 9.71875 69 
L 9.71875 75.984375 
z
" id="DejaVuSans-5d"/>
     </defs>
     <g transform="translate(19.915 280.548)rotate(-90)scale(0.18 -0.18)">
      <use transform="translate(0 0.015625)" xlink:href="#DejaVuSans-6c"/>
      <use transform="translate(27.783203 0.015625)" xlink:href="#DejaVuSans-65"/>
      <use transform="translate(89.306641 0.015625)" xlink:href="#DejaVuSans-61"/>
      <use transform="translate(150.585938 0.015625)" xlink:href="#DejaVuSans-66"/>
      <use transform="translate(185.791016 0.015625)" xlink:href="#DejaVuSans-20"/>
      <use transform="translate(217.578125 0.015625)" xlink:href="#DejaVuSans-7a"/>
      <use transform="translate(270.068359 0.015625)" xlink:href="#DejaVuSans-2d"/>
      <use transform="translate(306.152344 0.015625)" xlink:href="#DejaVuSans-61"/>
      <use transform="translate(367.431641 0.015625)" xlink:href="#DejaVuSans-6e"/>
      <use transform="translate(430.810547 0.015625)" xlink:href="#DejaVuSans-67"/>
      <use transform="translate(494.287109 0.015625)" xlink:href="#DejaVuSans-6c"/>
      <use transform="translate(522.070312 0.015625)" xlink:href="#DejaVuSans-65"/>
      <use transform="translate(583.59375 0.015625)" xlink:href="#DejaVuSans-20"/>
      <use transform="translate(615.380859 0.015625)" xlink:href="#DejaVuSans-62"/>
      <use transform="translate(678.857422 0.015625)" xlink:href="#DejaVuSans-61"/>
      <use transform="translate(740.136719 0.015625)" xlink:href="#DejaVuSans-73"/>
      <use transform="translate(792.236328 0.015625)" xlink:href="#DejaVuSans-65"/>
      <use transform="translate(853.759766 0.015625)" xlink:href="#DejaVuSans-2d"/>
      <use transform="translate(889.84375 0.015625)" xlink:href="#DejaVuSans-74"/>
      <use transform="translate(929.052734 0.015625)" xlink:href="#DejaVuSans-69"/>
      <use transform="translate(956.835938 0.015625)" xlink:href="#DejaVuSans-70"/>
      <use transform="translate(1020.3125 0.015625)" xlink:href="#DejaVuSans-20"/>
      <use transform="translate(1052.099609 0.015625)" xlink:href="#DejaVuSans-5b"/>
      <use transform="translate(1092.070312 38.296875)scale(0.7)" xlink:href="#DejaVuSans-2218"/>
      <use transform="translate(1138.623047 0.015625)" xlink:href="#DejaVuSans-5d"/>
     </g>
    </g>
   </g>
   <g id="patch_3">
    <path d="M 57.6 307.584 
L 57.6 41.472 
" style="fill:none;stroke:#000000;stroke-linecap:square;stroke-linejoin:miter;stroke-width:0.8;"/>
   </g>
   <g id="patch_4">
    <path d="M 414.72 307.584 
L 414.72 41.472 
" style="fill:none;stroke:#000000;stroke-linecap:square;stroke-linejoin:miter;stroke-width:0.8;"/>
   </g>
   <g id="patch_5">
    <path d="M 57.6 307.584 
L 414.72 307.584 
" style="fill:none;stroke:#000000;stroke-linecap:square;stroke-linejoin:miter;stroke-width:0.8;"/>
   </g>
   <g id="patch_6">
    <path d="M 57.6 41.472 
L 414.72 41.472 
" style="fill:none;stroke:#000000;stroke-linecap:square;stroke-linejoin:miter;stroke-width:0.8;"/>
   </g>
   <g id="line2d_30">
    <path clip-path="url(#p54ba9b3050)" d="M 57.6 307.583165 
L 117.12 307.317618 
L 176.64 307.052072 
L 236.16 306.786526 
L 295.68 306.520979 
L 355.2 306.255433 
L 414.72 305.989887 
" style="fill:none;stroke:#000000;stroke-linecap:square;stroke-width:2;"/>
   </g>
   <g id="line2d_31">
    <path clip-path="url(#p54ba9b3050)" d="M 57.6 307.583165 
L 117.12 307.317618 
L 176.64 307.052072 
L 236.16 306.786526 
L 295.68 306.520979 
L 355.2 306.255433 
L 414.72 305.989887 
" style="fill:none;stroke:#000000;stroke-dasharray:7.4,3.2;stroke-dashoffset:0;stroke-width:2;"/>
   </g>
  </g>
  <g id="axes_2">
   <g id="line2d_32">
    <path clip-path="url(#p54ba9b3050)" d="M 62.288463 306.594878 
L 62.418988 306.594878 
" style="fill:none;stroke:#808080;stroke-dasharray:2,3.3;stroke-dashoffset:0;stroke-opacity:0.1;stroke-width:2;"/>
    <defs>
     <path d="M -3 3 
L 3 3 
L 3 -3 
L -3 -3 
z
" id="m97fc0bcaf8" style="stroke:#000000;stroke-linejoin:miter;stroke-opacity:0;"/>
    </defs>
    <g clip-path="url(#p54ba9b3050)">
     <use style="fill:#808080;fill-opacity:0.1;stroke:#000000;stroke-linejoin:miter;stroke-opacity:0;" x="62.288463" xlink:href="#m97fc0bcaf8" y="306.594878"/>
     <use style="fill:#808080;fill-opacity:0.1;stroke:#000000;stroke-linejoin:miter;stroke-opacity:0;" x="62.418988" xlink:href="#m97fc0bcaf8" y="306.594878"/>
    </g>
   </g>
   <g id="line2d_33">
    <path clip-path="url(#p54ba9b3050)" d="M 61.385222 306.808499 
L 62.241465 306.808499 
" style="fill:none;stroke:#808080;stroke-dasharray:2,3.3;stroke-dashoffset:0;stroke-opacity:0.1;stroke-width:2;"/>
    <g clip-path="url(#p54ba9b3050)">
     <use style="fill:#808080;fill-opacity:0.1;stroke:#000000;stroke-linejoin:miter;stroke-opacity:0;" x="61.385222" xlink:href="#m97fc0bcaf8" y="306.808499"/>
     <use style="fill:#808080;fill-opacity:0.1;stroke:#000000;stroke-linejoin:miter;stroke-opacity:0;" x="62.241465" xlink:href="#m97fc0bcaf8" y="306.808499"/>
    </g>
   </g>
   <g id="line2d_34">
    <path clip-path="url(#p54ba9b3050)" d="M 59.103654 305.346506 
L 59.64141 305.346506 
" style="fill:none;stroke:#808080;stroke-dasharray:2,3.3;stroke-dashoffset:0;stroke-opacity:0.1;stroke-width:2;"/>
    <g clip-path="url(#p54ba9b3050)">
     <use style="fill:#808080;fill-opacity:0.1;stroke:#000000;stroke-linejoin:miter;stroke-opacity:0;" x="59.103654" xlink:href="#m97fc0bcaf8" y="305.346506"/>
     <use style="fill:#808080;fill-opacity:0.1;stroke:#000000;stroke-linejoin:miter;stroke-opacity:0;" x="59.64141" xlink:href="#m97fc0bcaf8" y="305.346506"/>
    </g>
   </g>
   <g id="line2d_35">
    <path clip-path="url(#p54ba9b3050)" d="M 59.103649 222.390215 
L 59.808482 222.390215 
" style="fill:none;stroke:#808080;stroke-dasharray:2,3.3;stroke-dashoffset:0;stroke-opacity:0.1;stroke-width:2;"/>
    <g clip-path="url(#p54ba9b3050)">
     <use style="fill:#808080;fill-opacity:0.1;stroke:#000000;stroke-linejoin:miter;stroke-opacity:0;" x="59.103649" xlink:href="#m97fc0bcaf8" y="222.390215"/>
     <use style="fill:#808080;fill-opacity:0.1;stroke:#000000;stroke-linejoin:miter;stroke-opacity:0;" x="59.808482" xlink:href="#m97fc0bcaf8" y="222.390215"/>
    </g>
   </g>
   <g id="line2d_36">
    <path clip-path="url(#p54ba9b3050)" d="M 0 0 
" style="fill:none;stroke:#808080;stroke-dasharray:2,3.3;stroke-dashoffset:0;stroke-opacity:0.1;stroke-width:2;"/>
    <g clip-path="url(#p54ba9b3050)">
     <use style="fill:#808080;fill-opacity:0.1;stroke:#000000;stroke-linejoin:miter;stroke-opacity:0;" x="0" xlink:href="#m97fc0bcaf8" y="0"/>
    </g>
   </g>
   <g id="line2d_37">
    <path clip-path="url(#p54ba9b3050)" d="M 0 0 
" style="fill:none;stroke:#808080;stroke-dasharray:2,3.3;stroke-dashoffset:0;stroke-opacity:0.1;stroke-width:2;"/>
    <g clip-path="url(#p54ba9b3050)">
     <use style="fill:#808080;fill-opacity:0.1;stroke:#000000;stroke-linejoin:miter;stroke-opacity:0;" x="0" xlink:href="#m97fc0bcaf8" y="0"/>
    </g>
   </g>
   <g id="line2d_38">
    <path clip-path="url(#p54ba9b3050)" d="M 0 0 
" style="fill:none;stroke:#808080;stroke-dasharray:2,3.3;stroke-dashoffset:0;stroke-opacity:0.1;stroke-width:2;"/>
    <g clip-path="url(#p54ba9b3050)">
     <use style="fill:#808080;fill-opacity:0.1;stroke:#000000;stroke-linejoin:miter;stroke-opacity:0;" x="0" xlink:href="#m97fc0bcaf8" y="0"/>
    </g>
   </g>
   <g id="line2d_39">
    <path clip-path="url(#p54ba9b3050)" d="M 0 0 
" style="fill:none;stroke:#808080;stroke-dasharray:2,3.3;stroke-dashoffset:0;stroke-opacity:0.1;stroke-width:2;"/>
    <g clip-path="url(#p54ba9b3050)">
     <use style="fill:#808080;fill-opacity:0.1;stroke:#000000;stroke-linejoin:miter;stroke-opacity:0;" x="0" xlink:href="#m97fc0bcaf8" y="0"/>
    </g>
   </g>
   <g id="line2d_40">
    <path clip-path="url(#p54ba9b3050)" d="M 62.288463 306.594878 
L 62.418988 306.594878 
" style="fill:none;stroke:#808080;stroke-dasharray:2,3.3;stroke-dashoffset:0;stroke-opacity:0.1;stroke-width:2;"/>
    <g clip-path="url(#p54ba9b3050)">
     <use style="fill:#808080;fill-opacity:0.1;stroke:#000000;stroke-linejoin:miter;stroke-opacity:0;" x="62.288463" xlink:href="#m97fc0bcaf8" y="306.594878"/>
     <use style="fill:#808080;fill-opacity:0.1;stroke:#000000;stroke-linejoin:miter;stroke-opacity:0;" x="62.418988" xlink:href="#m97fc0bcaf8" y="306.594878"/>
    </g>
   </g>
   <g id="line2d_41">
    <path clip-path="url(#p54ba9b3050)" d="M 61.385222 306.808499 
L 62.241465 306.808499 
" style="fill:none;stroke:#808080;stroke-dasharray:2,3.3;stroke-dashoffset:0;stroke-opacity:0.1;stroke-width:2;"/>
    <g clip-path="url(#p54ba9b3050)">
     <use style="fill:#808080;fill-opacity:0.1;stroke:#000000;stroke-linejoin:miter;stroke-opacity:0;" x="61.385222" xlink:href="#m97fc0bcaf8" y="306.808499"/>
     <use style="fill:#808080;fill-opacity:0.1;stroke:#000000;stroke-linejoin:miter;stroke-opacity:0;" x="62.241465" xlink:href="#m97fc0bcaf8" y="306.808499"/>
    </g>
   </g>
   <g id="line2d_42">
    <path clip-path="url(#p54ba9b3050)" d="M 59.103654 305.346506 
L 59.64141 305.346506 
" style="fill:none;stroke:#808080;stroke-dasharray:2,3.3;stroke-dashoffset:0;stroke-opacity:0.1;stroke-width:2;"/>
    <g clip-path="url(#p54ba9b3050)">
     <use style="fill:#808080;fill-opacity:0.1;stroke:#000000;stroke-linejoin:miter;stroke-opacity:0;" x="59.103654" xlink:href="#m97fc0bcaf8" y="305.346506"/>
     <use style="fill:#808080;fill-opacity:0.1;stroke:#000000;stroke-linejoin:miter;stroke-opacity:0;" x="59.64141" xlink:href="#m97fc0bcaf8" y="305.346506"/>
    </g>
   </g>
   <g id="line2d_43">
    <path clip-path="url(#p54ba9b3050)" d="M 59.103649 222.390215 
L 59.808482 222.390215 
" style="fill:none;stroke:#808080;stroke-dasharray:2,3.3;stroke-dashoffset:0;stroke-opacity:0.1;stroke-width:2;"/>
    <g clip-path="url(#p54ba9b3050)">
     <use style="fill:#808080;fill-opacity:0.1;stroke:#000000;stroke-linejoin:miter;stroke-opacity:0;" x="59.103649" xlink:href="#m97fc0bcaf8" y="222.390215"/>
     <use style="fill:#808080;fill-opacity:0.1;stroke:#000000;stroke-linejoin:miter;stroke-opacity:0;" x="59.808482" xlink:href="#m97fc0bcaf8" y="222.390215"/>
    </g>
   </g>
   <g id="line2d_44">
    <path clip-path="url(#p54ba9b3050)" d="M 0 0 
" style="fill:none;stroke:#808080;stroke-dasharray:2,3.3;stroke-dashoffset:0;stroke-opacity:0.1;stroke-width:2;"/>
    <g clip-path="url(#p54ba9b3050)">
     <use style="fill:#808080;fill-opacity:0.1;stroke:#000000;stroke-linejoin:miter;stroke-opacity:0;" x="0" xlink:href="#m97fc0bcaf8" y="0"/>
    </g>
   </g>
   <g id="line2d_45">
    <path clip-path="url(#p54ba9b3050)" d="M 0 0 
" style="fill:none;stroke:#808080;stroke-dasharray:2,3.3;stroke-dashoffset:0;stroke-opacity:0.1;stroke-width:2;"/>
    <g clip-path="url(#p54ba9b3050)">
     <use style="fill:#808080;fill-opacity:0.1;stroke:#000000;stroke-linejoin:miter;stroke-opacity:0;" x="0" xlink:href="#m97fc0bcaf8" y="0"/>
    </g>
   </g>
   <g id="line2d_46">
    <path clip-path="url(#p54ba9b3050)" d="M 0 0 
" style="fill:none;stroke:#808080;stroke-dasharray:2,3.3;stroke-dashoffset:0;stroke-opacity:0.1;stroke-width:2;"/>
    <g clip-path="url(#p54ba9b3050)">
     <use style="fill:#808080;fill-opacity:0.1;stroke:#000000;stroke-linejoin:miter;stroke-opacity:0;" x="0" xlink:href="#m97fc0bcaf8" y="0"/>
    </g>
   </g>
   <g id="line2d_47">
    <path clip-path="url(#p54ba9b3050)" d="M 0 0 
" style="fill:none;stroke:#808080;stroke-dasharray:2,3.3;stroke-dashoffset:0;stroke-opacity:0.1;stroke-width:2;"/>
    <g clip-path="url(#p54ba9b3050)">
     <use style="fill:#808080;fill-opacity:0.1;stroke:#000000;stroke-linejoin:miter;stroke-opacity:0;" x="0" xlink:href="#m97fc0bcaf8" y="0"/>
    </g>
   </g>
   <g id="matplotlib.axis_3">
    <g id="ytick_7">
     <g id="line2d_48">
      <defs>
       <path d="M 0 0 
L 3.5 0 
" id="ma51a18a6b4" style="stroke:#000000;stroke-width:0.8;"/>
      </defs>
      <g>
       <use style="stroke:#000000;stroke-width:0.8;" x="414.72" xlink:href="#ma51a18a6b4" y="307.584"/>
      </g>
     </g>
     <g id="text_15">
      <!-- 0 -->
      <g transform="translate(421.72 314.422594)scale(0.18 -0.18)">
       <use xlink:href="#DejaVuSans-30"/>
      </g>
     </g>
    </g>
    <g id="ytick_8">
     <g id="line2d_49">
      <g>
       <use style="stroke:#000000;stroke-width:0.8;" x="414.72" xlink:href="#ma51a18a6b4" y="254.3616"/>
      </g>
     </g>
     <g id="text_16">
      <!-- 5 -->
      <g transform="translate(421.72 261.200194)scale(0.18 -0.18)">
       <use xlink:href="#DejaVuSans-35"/>
      </g>
     </g>
    </g>
    <g id="ytick_9">
     <g id="line2d_50">
      <g>
       <use style="stroke:#000000;stroke-width:0.8;" x="414.72" xlink:href="#ma51a18a6b4" y="201.1392"/>
      </g>
     </g>
     <g id="text_17">
      <!-- 10 -->
      <g transform="translate(421.72 207.977794)scale(0.18 -0.18)">
       <use xlink:href="#DejaVuSans-31"/>
       <use x="63.623047" xlink:href="#DejaVuSans-30"/>
      </g>
     </g>
    </g>
    <g id="ytick_10">
     <g id="line2d_51">
      <g>
       <use style="stroke:#000000;stroke-width:0.8;" x="414.72" xlink:href="#ma51a18a6b4" y="147.9168"/>
      </g>
     </g>
     <g id="text_18">
      <!-- 15 -->
      <g transform="translate(421.72 154.755394)scale(0.18 -0.18)">
       <use xlink:href="#DejaVuSans-31"/>
       <use x="63.623047" xlink:href="#DejaVuSans-35"/>
      </g>
     </g>
    </g>
    <g id="ytick_11">
     <g id="line2d_52">
      <g>
       <use style="stroke:#000000;stroke-width:0.8;" x="414.72" xlink:href="#ma51a18a6b4" y="94.6944"/>
      </g>
     </g>
     <g id="text_19">
      <!-- 20 -->
      <g transform="translate(421.72 101.532994)scale(0.18 -0.18)">
       <use xlink:href="#DejaVuSans-32"/>
       <use x="63.623047" xlink:href="#DejaVuSans-30"/>
      </g>
     </g>
    </g>
    <g id="ytick_12">
     <g id="line2d_53">
      <g>
       <use style="stroke:#000000;stroke-width:0.8;" x="414.72" xlink:href="#ma51a18a6b4" y="41.472"/>
      </g>
     </g>
     <g id="text_20">
      <!-- 25 -->
      <g transform="translate(421.72 48.310594)scale(0.18 -0.18)">
       <use xlink:href="#DejaVuSans-32"/>
       <use x="63.623047" xlink:href="#DejaVuSans-35"/>
      </g>
     </g>
    </g>
    <g id="text_21">
     <!-- leaf z-angle origin-base [$^{\circ}$] -->
     <defs>
      <path d="M 30.609375 48.390625 
Q 23.390625 48.390625 19.1875 42.75 
Q 14.984375 37.109375 14.984375 27.296875 
Q 14.984375 17.484375 19.15625 11.84375 
Q 23.34375 6.203125 30.609375 6.203125 
Q 37.796875 6.203125 41.984375 11.859375 
Q 46.1875 17.53125 46.1875 27.296875 
Q 46.1875 37.015625 41.984375 42.703125 
Q 37.796875 48.390625 30.609375 48.390625 
z
M 30.609375 56 
Q 42.328125 56 49.015625 48.375 
Q 55.71875 40.765625 55.71875 27.296875 
Q 55.71875 13.875 49.015625 6.21875 
Q 42.328125 -1.421875 30.609375 -1.421875 
Q 18.84375 -1.421875 12.171875 6.21875 
Q 5.515625 13.875 5.515625 27.296875 
Q 5.515625 40.765625 12.171875 48.375 
Q 18.84375 56 30.609375 56 
z
" id="DejaVuSans-6f"/>
      <path d="M 41.109375 46.296875 
Q 39.59375 47.171875 37.8125 47.578125 
Q 36.03125 48 33.890625 48 
Q 26.265625 48 22.1875 43.046875 
Q 18.109375 38.09375 18.109375 28.8125 
L 18.109375 0 
L 9.078125 0 
L 9.078125 54.6875 
L 18.109375 54.6875 
L 18.109375 46.1875 
Q 20.953125 51.171875 25.484375 53.578125 
Q 30.03125 56 36.53125 56 
Q 37.453125 56 38.578125 55.875 
Q 39.703125 55.765625 41.0625 55.515625 
z
" id="DejaVuSans-72"/>
     </defs>
     <g transform="translate(462.305 294.408)rotate(-90)scale(0.18 -0.18)">
      <use transform="translate(0 0.015625)" xlink:href="#DejaVuSans-6c"/>
      <use transform="translate(27.783203 0.015625)" xlink:href="#DejaVuSans-65"/>
      <use transform="translate(89.306641 0.015625)" xlink:href="#DejaVuSans-61"/>
      <use transform="translate(150.585938 0.015625)" xlink:href="#DejaVuSans-66"/>
      <use transform="translate(185.791016 0.015625)" xlink:href="#DejaVuSans-20"/>
      <use transform="translate(217.578125 0.015625)" xlink:href="#DejaVuSans-7a"/>
      <use transform="translate(270.068359 0.015625)" xlink:href="#DejaVuSans-2d"/>
      <use transform="translate(306.152344 0.015625)" xlink:href="#DejaVuSans-61"/>
      <use transform="translate(367.431641 0.015625)" xlink:href="#DejaVuSans-6e"/>
      <use transform="translate(430.810547 0.015625)" xlink:href="#DejaVuSans-67"/>
      <use transform="translate(494.287109 0.015625)" xlink:href="#DejaVuSans-6c"/>
      <use transform="translate(522.070312 0.015625)" xlink:href="#DejaVuSans-65"/>
      <use transform="translate(583.59375 0.015625)" xlink:href="#DejaVuSans-20"/>
      <use transform="translate(615.380859 0.015625)" xlink:href="#DejaVuSans-6f"/>
      <use transform="translate(676.5625 0.015625)" xlink:href="#DejaVuSans-72"/>
      <use transform="translate(717.675781 0.015625)" xlink:href="#DejaVuSans-69"/>
      <use transform="translate(745.458984 0.015625)" xlink:href="#DejaVuSans-67"/>
      <use transform="translate(808.935547 0.015625)" xlink:href="#DejaVuSans-69"/>
      <use transform="translate(836.71875 0.015625)" xlink:href="#DejaVuSans-6e"/>
      <use transform="translate(900.097656 0.015625)" xlink:href="#DejaVuSans-2d"/>
      <use transform="translate(936.181641 0.015625)" xlink:href="#DejaVuSans-62"/>
      <use transform="translate(999.658203 0.015625)" xlink:href="#DejaVuSans-61"/>
      <use transform="translate(1060.9375 0.015625)" xlink:href="#DejaVuSans-73"/>
      <use transform="translate(1113.037109 0.015625)" xlink:href="#DejaVuSans-65"/>
      <use transform="translate(1174.560547 0.015625)" xlink:href="#DejaVuSans-20"/>
      <use transform="translate(1206.347656 0.015625)" xlink:href="#DejaVuSans-5b"/>
      <use transform="translate(1246.318359 38.296875)scale(0.7)" xlink:href="#DejaVuSans-2218"/>
      <use transform="translate(1292.871094 0.015625)" xlink:href="#DejaVuSans-5d"/>
     </g>
    </g>
   </g>
   <g id="patch_7">
    <path d="M 57.6 307.584 
L 57.6 41.472 
" style="fill:none;stroke:#000000;stroke-linecap:square;stroke-linejoin:miter;stroke-width:0.8;"/>
   </g>
   <g id="patch_8">
    <path d="M 414.72 307.584 
L 414.72 41.472 
" style="fill:none;stroke:#000000;stroke-linecap:square;stroke-linejoin:miter;stroke-width:0.8;"/>
   </g>
   <g id="patch_9">
    <path d="M 57.6 307.584 
L 414.72 307.584 
" style="fill:none;stroke:#000000;stroke-linecap:square;stroke-linejoin:miter;stroke-width:0.8;"/>
   </g>
   <g id="patch_10">
    <path d="M 57.6 41.472 
L 414.72 41.472 
" style="fill:none;stroke:#000000;stroke-linecap:square;stroke-linejoin:miter;stroke-width:0.8;"/>
   </g>
   <g id="line2d_54">
    <path clip-path="url(#p54ba9b3050)" d="M 57.6 231.35967 
L 64.979541 346.6 
" style="fill:none;stroke:#808080;stroke-linecap:square;stroke-width:2;"/>
   </g>
   <g id="line2d_55">
    <path clip-path="url(#p54ba9b3050)" d="M 57.6 231.35967 
L 64.979541 346.6 
" style="fill:none;stroke:#808080;stroke-dasharray:7.4,3.2;stroke-dashoffset:0;stroke-width:2;"/>
   </g>
  </g>
 </g>
 <defs>
  <clipPath id="p54ba9b3050">
   <rect height="266.112" width="357.12" x="57.6" y="41.472"/>
  </clipPath>
 </defs>
</svg>
