<?xml version="1.0" encoding="utf-8" standalone="no"?>
<!DOCTYPE svg PUBLIC "-//W3C//DTD SVG 1.1//EN"
  "http://www.w3.org/Graphics/SVG/1.1/DTD/svg11.dtd">
<!-- Created with matplotlib (http://matplotlib.org/) -->
<svg height="345.6pt" version="1.1" viewBox="0 0 460.8 345.6" width="460.8pt" xmlns="http://www.w3.org/2000/svg" xmlns:xlink="http://www.w3.org/1999/xlink">
 <defs>
  <style type="text/css">
*{stroke-linecap:butt;stroke-linejoin:round;}
  </style>
 </defs>
 <g id="figure_1">
  <g id="patch_1">
   <path d="M 0 345.6 
L 460.8 345.6 
L 460.8 0 
L 0 0 
z
" style="fill:#ffffff;"/>
  </g>
  <g id="axes_1">
   <g id="patch_2">
    <path d="M 31.543 320.83175 
L 224.7705 320.83175 
L 224.7705 13.32 
L 31.543 13.32 
z
" style="fill:#ffffff;"/>
   </g>
   <g id="matplotlib.axis_1">
    <g id="xtick_1">
     <g id="line2d_1">
      <defs>
       <path d="M 0 0 
L 0 3.5 
" id="m7c15362493" style="stroke:#000000;stroke-width:0.8;"/>
      </defs>
      <g>
       <use style="stroke:#000000;stroke-width:0.8;" x="40.326068" xlink:href="#m7c15362493" y="320.83175"/>
      </g>
     </g>
     <g id="text_1">
      <!-- 0 -->
      <defs>
       <path d="M 31.78125 66.40625 
Q 24.171875 66.40625 20.328125 58.90625 
Q 16.5 51.421875 16.5 36.375 
Q 16.5 21.390625 20.328125 13.890625 
Q 24.171875 6.390625 31.78125 6.390625 
Q 39.453125 6.390625 43.28125 13.890625 
Q 47.125 21.390625 47.125 36.375 
Q 47.125 51.421875 43.28125 58.90625 
Q 39.453125 66.40625 31.78125 66.40625 
z
M 31.78125 74.21875 
Q 44.046875 74.21875 50.515625 64.515625 
Q 56.984375 54.828125 56.984375 36.375 
Q 56.984375 17.96875 50.515625 8.265625 
Q 44.046875 -1.421875 31.78125 -1.421875 
Q 19.53125 -1.421875 13.0625 8.265625 
Q 6.59375 17.96875 6.59375 36.375 
Q 6.59375 54.828125 13.0625 64.515625 
Q 19.53125 74.21875 31.78125 74.21875 
z
" id="DejaVuSans-30"/>
      </defs>
      <g transform="translate(37.144818 335.430187)scale(0.1 -0.1)">
       <use xlink:href="#DejaVuSans-30"/>
      </g>
     </g>
    </g>
    <g id="xtick_2">
     <g id="line2d_2">
      <g>
       <use style="stroke:#000000;stroke-width:0.8;" x="89.120891" xlink:href="#m7c15362493" y="320.83175"/>
      </g>
     </g>
     <g id="text_2">
      <!-- 5 -->
      <defs>
       <path d="M 10.796875 72.90625 
L 49.515625 72.90625 
L 49.515625 64.59375 
L 19.828125 64.59375 
L 19.828125 46.734375 
Q 21.96875 47.46875 24.109375 47.828125 
Q 26.265625 48.1875 28.421875 48.1875 
Q 40.625 48.1875 47.75 41.5 
Q 54.890625 34.8125 54.890625 23.390625 
Q 54.890625 11.625 47.5625 5.09375 
Q 40.234375 -1.421875 26.90625 -1.421875 
Q 22.3125 -1.421875 17.546875 -0.640625 
Q 12.796875 0.140625 7.71875 1.703125 
L 7.71875 11.625 
Q 12.109375 9.234375 16.796875 8.0625 
Q 21.484375 6.890625 26.703125 6.890625 
Q 35.15625 6.890625 40.078125 11.328125 
Q 45.015625 15.765625 45.015625 23.390625 
Q 45.015625 31 40.078125 35.4375 
Q 35.15625 39.890625 26.703125 39.890625 
Q 22.75 39.890625 18.8125 39.015625 
Q 14.890625 38.140625 10.796875 36.28125 
z
" id="DejaVuSans-35"/>
      </defs>
      <g transform="translate(85.939641 335.430187)scale(0.1 -0.1)">
       <use xlink:href="#DejaVuSans-35"/>
      </g>
     </g>
    </g>
    <g id="xtick_3">
     <g id="line2d_3">
      <g>
       <use style="stroke:#000000;stroke-width:0.8;" x="137.915715" xlink:href="#m7c15362493" y="320.83175"/>
      </g>
     </g>
     <g id="text_3">
      <!-- 10 -->
      <defs>
       <path d="M 12.40625 8.296875 
L 28.515625 8.296875 
L 28.515625 63.921875 
L 10.984375 60.40625 
L 10.984375 69.390625 
L 28.421875 72.90625 
L 38.28125 72.90625 
L 38.28125 8.296875 
L 54.390625 8.296875 
L 54.390625 0 
L 12.40625 0 
z
" id="DejaVuSans-31"/>
      </defs>
      <g transform="translate(131.553215 335.430187)scale(0.1 -0.1)">
       <use xlink:href="#DejaVuSans-31"/>
       <use x="63.623047" xlink:href="#DejaVuSans-30"/>
      </g>
     </g>
    </g>
    <g id="xtick_4">
     <g id="line2d_4">
      <g>
       <use style="stroke:#000000;stroke-width:0.8;" x="186.710538" xlink:href="#m7c15362493" y="320.83175"/>
      </g>
     </g>
     <g id="text_4">
      <!-- 15 -->
      <g transform="translate(180.348038 335.430187)scale(0.1 -0.1)">
       <use xlink:href="#DejaVuSans-31"/>
       <use x="63.623047" xlink:href="#DejaVuSans-35"/>
      </g>
     </g>
    </g>
   </g>
   <g id="matplotlib.axis_2">
    <g id="ytick_1">
     <g id="line2d_5">
      <defs>
       <path d="M 0 0 
L -3.5 0 
" id="m192c0f5c0c" style="stroke:#000000;stroke-width:0.8;"/>
      </defs>
      <g>
       <use style="stroke:#000000;stroke-width:0.8;" x="31.543" xlink:href="#m192c0f5c0c" y="281.469052"/>
      </g>
     </g>
     <g id="text_5">
      <!-- 50 -->
      <g transform="translate(11.818 285.268271)scale(0.1 -0.1)">
       <use xlink:href="#DejaVuSans-35"/>
       <use x="63.623047" xlink:href="#DejaVuSans-30"/>
      </g>
     </g>
    </g>
    <g id="ytick_2">
     <g id="line2d_6">
      <g>
       <use style="stroke:#000000;stroke-width:0.8;" x="31.543" xlink:href="#m192c0f5c0c" y="233.235758"/>
      </g>
     </g>
     <g id="text_6">
      <!-- 100 -->
      <g transform="translate(5.4555 237.034977)scale(0.1 -0.1)">
       <use xlink:href="#DejaVuSans-31"/>
       <use x="63.623047" xlink:href="#DejaVuSans-30"/>
       <use x="127.246094" xlink:href="#DejaVuSans-30"/>
      </g>
     </g>
    </g>
    <g id="ytick_3">
     <g id="line2d_7">
      <g>
       <use style="stroke:#000000;stroke-width:0.8;" x="31.543" xlink:href="#m192c0f5c0c" y="185.002464"/>
      </g>
     </g>
     <g id="text_7">
      <!-- 150 -->
      <g transform="translate(5.4555 188.801682)scale(0.1 -0.1)">
       <use xlink:href="#DejaVuSans-31"/>
       <use x="63.623047" xlink:href="#DejaVuSans-35"/>
       <use x="127.246094" xlink:href="#DejaVuSans-30"/>
      </g>
     </g>
    </g>
    <g id="ytick_4">
     <g id="line2d_8">
      <g>
       <use style="stroke:#000000;stroke-width:0.8;" x="31.543" xlink:href="#m192c0f5c0c" y="136.769169"/>
      </g>
     </g>
     <g id="text_8">
      <!-- 200 -->
      <defs>
       <path d="M 19.1875 8.296875 
L 53.609375 8.296875 
L 53.609375 0 
L 7.328125 0 
L 7.328125 8.296875 
Q 12.9375 14.109375 22.625 23.890625 
Q 32.328125 33.6875 34.8125 36.53125 
Q 39.546875 41.84375 41.421875 45.53125 
Q 43.3125 49.21875 43.3125 52.78125 
Q 43.3125 58.59375 39.234375 62.25 
Q 35.15625 65.921875 28.609375 65.921875 
Q 23.96875 65.921875 18.8125 64.3125 
Q 13.671875 62.703125 7.8125 59.421875 
L 7.8125 69.390625 
Q 13.765625 71.78125 18.9375 73 
Q 24.125 74.21875 28.421875 74.21875 
Q 39.75 74.21875 46.484375 68.546875 
Q 53.21875 62.890625 53.21875 53.421875 
Q 53.21875 48.921875 51.53125 44.890625 
Q 49.859375 40.875 45.40625 35.40625 
Q 44.1875 33.984375 37.640625 27.21875 
Q 31.109375 20.453125 19.1875 8.296875 
z
" id="DejaVuSans-32"/>
      </defs>
      <g transform="translate(5.4555 140.568388)scale(0.1 -0.1)">
       <use xlink:href="#DejaVuSans-32"/>
       <use x="63.623047" xlink:href="#DejaVuSans-30"/>
       <use x="127.246094" xlink:href="#DejaVuSans-30"/>
      </g>
     </g>
    </g>
    <g id="ytick_5">
     <g id="line2d_9">
      <g>
       <use style="stroke:#000000;stroke-width:0.8;" x="31.543" xlink:href="#m192c0f5c0c" y="88.535875"/>
      </g>
     </g>
     <g id="text_9">
      <!-- 250 -->
      <g transform="translate(5.4555 92.335094)scale(0.1 -0.1)">
       <use xlink:href="#DejaVuSans-32"/>
       <use x="63.623047" xlink:href="#DejaVuSans-35"/>
       <use x="127.246094" xlink:href="#DejaVuSans-30"/>
      </g>
     </g>
    </g>
    <g id="ytick_6">
     <g id="line2d_10">
      <g>
       <use style="stroke:#000000;stroke-width:0.8;" x="31.543" xlink:href="#m192c0f5c0c" y="40.302581"/>
      </g>
     </g>
     <g id="text_10">
      <!-- 300 -->
      <defs>
       <path d="M 40.578125 39.3125 
Q 47.65625 37.796875 51.625 33 
Q 55.609375 28.21875 55.609375 21.1875 
Q 55.609375 10.40625 48.1875 4.484375 
Q 40.765625 -1.421875 27.09375 -1.421875 
Q 22.515625 -1.421875 17.65625 -0.515625 
Q 12.796875 0.390625 7.625 2.203125 
L 7.625 11.71875 
Q 11.71875 9.328125 16.59375 8.109375 
Q 21.484375 6.890625 26.8125 6.890625 
Q 36.078125 6.890625 40.9375 10.546875 
Q 45.796875 14.203125 45.796875 21.1875 
Q 45.796875 27.640625 41.28125 31.265625 
Q 36.765625 34.90625 28.71875 34.90625 
L 20.21875 34.90625 
L 20.21875 43.015625 
L 29.109375 43.015625 
Q 36.375 43.015625 40.234375 45.921875 
Q 44.09375 48.828125 44.09375 54.296875 
Q 44.09375 59.90625 40.109375 62.90625 
Q 36.140625 65.921875 28.71875 65.921875 
Q 24.65625 65.921875 20.015625 65.03125 
Q 15.375 64.15625 9.8125 62.3125 
L 9.8125 71.09375 
Q 15.4375 72.65625 20.34375 73.4375 
Q 25.25 74.21875 29.59375 74.21875 
Q 40.828125 74.21875 47.359375 69.109375 
Q 53.90625 64.015625 53.90625 55.328125 
Q 53.90625 49.265625 50.4375 45.09375 
Q 46.96875 40.921875 40.578125 39.3125 
z
" id="DejaVuSans-33"/>
      </defs>
      <g transform="translate(5.4555 44.1018)scale(0.1 -0.1)">
       <use xlink:href="#DejaVuSans-33"/>
       <use x="63.623047" xlink:href="#DejaVuSans-30"/>
       <use x="127.246094" xlink:href="#DejaVuSans-30"/>
      </g>
     </g>
    </g>
   </g>
   <g id="line2d_11">
    <path clip-path="url(#p25cb9b33c0)" d="M 40.326068 27.408784 
L 50.085033 27.414852 
L 59.843997 27.479223 
L 69.602962 27.471803 
L 79.361927 27.500134 
L 89.120891 27.536725 
L 98.879856 27.344961 
L 108.638821 27.368085 
L 118.397785 27.372203 
L 128.15675 27.655796 
L 137.915715 27.834288 
L 147.674679 27.892099 
L 157.433644 27.90665 
L 167.192609 27.838899 
L 176.951573 27.874479 
L 186.710538 27.941122 
L 196.469503 27.7186 
L 206.228467 27.428981 
L 215.987432 27.297807 
" style="fill:none;stroke:#000080;stroke-linecap:square;stroke-width:2;"/>
   </g>
   <g id="line2d_12">
    <path clip-path="url(#p25cb9b33c0)" d="M 40.326068 27.500134 
L 50.085033 27.500134 
L 59.843997 27.500134 
L 69.602962 27.500134 
L 79.361927 27.500134 
L 89.120891 27.500134 
L 98.879856 27.500134 
L 108.638821 27.500134 
L 118.397785 27.500134 
L 128.15675 27.500134 
L 137.915715 27.500134 
L 147.674679 27.500134 
L 157.433644 27.500134 
L 167.192609 27.500134 
L 176.951573 27.500134 
L 186.710538 27.500134 
L 196.469503 27.500134 
L 206.228467 27.500134 
L 215.987432 27.500134 
" style="fill:none;stroke:#000080;stroke-linecap:square;stroke-width:2;"/>
   </g>
   <g id="line2d_13">
    <path clip-path="url(#p25cb9b33c0)" d="M 40.326068 306.802136 
L 50.085033 306.793714 
L 59.843997 306.811165 
L 69.602962 306.827631 
L 79.361927 306.853943 
L 89.120891 306.554434 
L 98.879856 305.970138 
L 108.638821 305.735494 
L 118.397785 305.551869 
L 128.15675 305.330341 
L 137.915715 305.109402 
L 147.674679 305.10176 
L 157.433644 305.057293 
L 167.192609 305.052726 
L 176.951573 305.156331 
L 186.710538 305.368259 
L 196.469503 305.501157 
L 206.228467 305.046459 
L 215.987432 304.51096 
" style="fill:none;stroke:#004cff;stroke-linecap:square;stroke-width:2;"/>
   </g>
   <g id="line2d_14">
    <path clip-path="url(#p25cb9b33c0)" d="M 40.326068 305.501157 
L 50.085033 305.501157 
L 59.843997 305.501157 
L 69.602962 305.501157 
L 79.361927 305.501157 
L 89.120891 305.501157 
L 98.879856 305.501157 
L 108.638821 305.501157 
L 118.397785 305.501157 
L 128.15675 305.501157 
L 137.915715 305.501157 
L 147.674679 305.501157 
L 157.433644 305.501157 
L 167.192609 305.501157 
L 176.951573 305.501157 
L 186.710538 305.501157 
L 196.469503 305.501157 
L 206.228467 305.501157 
L 215.987432 305.501157 
" style="fill:none;stroke:#004cff;stroke-linecap:square;stroke-width:2;"/>
   </g>
   <g id="line2d_15">
    <path clip-path="url(#p25cb9b33c0)" d="M 40.326068 217.367808 
L 50.085033 217.384549 
L 59.843997 217.317393 
L 69.602962 217.30792 
L 79.361927 217.25054 
L 89.120891 217.332338 
L 98.879856 217.875956 
L 108.638821 218.033632 
L 118.397785 218.079182 
L 128.15675 217.718388 
L 137.915715 217.401536 
L 147.674679 217.37497 
L 157.433644 217.359236 
L 167.192609 217.417306 
L 176.951573 217.578951 
L 186.710538 217.598812 
L 196.469503 217.96127 
L 206.228467 218.481529 
L 215.987432 218.870152 
" style="fill:none;stroke:#29ffce;stroke-linecap:square;stroke-width:2;"/>
   </g>
   <g id="line2d_16">
    <path clip-path="url(#p25cb9b33c0)" d="M 40.326068 217.417306 
L 50.085033 217.417306 
L 59.843997 217.417306 
L 69.602962 217.417306 
L 79.361927 217.417306 
L 89.120891 217.417306 
L 98.879856 217.417306 
L 108.638821 217.417306 
L 118.397785 217.417306 
L 128.15675 217.417306 
L 137.915715 217.417306 
L 147.674679 217.417306 
L 157.433644 217.417306 
L 167.192609 217.417306 
L 176.951573 217.417306 
L 186.710538 217.417306 
L 196.469503 217.417306 
L 206.228467 217.417306 
L 215.987432 217.417306 
" style="fill:none;stroke:#29ffce;stroke-linecap:square;stroke-width:2;"/>
   </g>
   <g id="line2d_17">
    <path clip-path="url(#p25cb9b33c0)" d="M 40.326068 77.899097 
L 50.085033 77.971555 
L 59.843997 78.073827 
L 69.602962 78.155457 
L 79.361927 78.079973 
L 89.120891 77.252406 
L 98.879856 75.891598 
L 108.638821 74.851299 
L 118.397785 73.587991 
L 128.15675 73.385456 
L 137.915715 73.605311 
L 147.674679 73.423784 
L 157.433644 73.443075 
L 167.192609 73.122872 
L 176.951573 73.129691 
L 186.710538 73.494106 
L 196.469503 73.476536 
L 206.228467 73.115999 
L 215.987432 72.122236 
" style="fill:none;stroke:#ceff29;stroke-linecap:square;stroke-width:2;"/>
   </g>
   <g id="line2d_18">
    <path clip-path="url(#p25cb9b33c0)" d="M 40.326068 73.587991 
L 50.085033 73.587991 
L 59.843997 73.587991 
L 69.602962 73.587991 
L 79.361927 73.587991 
L 89.120891 73.587991 
L 98.879856 73.587991 
L 108.638821 73.587991 
L 118.397785 73.587991 
L 128.15675 73.587991 
L 137.915715 73.587991 
L 147.674679 73.587991 
L 157.433644 73.587991 
L 167.192609 73.587991 
L 176.951573 73.587991 
L 186.710538 73.587991 
L 196.469503 73.587991 
L 206.228467 73.587991 
L 215.987432 73.587991 
" style="fill:none;stroke:#ceff29;stroke-linecap:square;stroke-width:2;"/>
   </g>
   <g id="line2d_19">
    <path clip-path="url(#p25cb9b33c0)" d="M 40.326068 235.31496 
L 50.085033 235.89304 
L 59.843997 234.404183 
L 69.602962 235.838607 
L 79.361927 235.80336 
L 89.120891 235.679393 
L 98.879856 237.6774 
L 108.638821 240.335562 
L 118.397785 242.644219 
L 128.15675 243.087916 
L 137.915715 242.704584 
L 147.674679 242.933763 
L 157.433644 243.270141 
L 167.192609 243.273642 
L 176.951573 243.159347 
L 186.710538 242.175224 
L 196.469503 242.599255 
L 206.228467 246.0134 
L 215.987432 244.837905 
" style="fill:none;stroke:#ff6800;stroke-linecap:square;stroke-width:2;"/>
   </g>
   <g id="line2d_20">
    <path clip-path="url(#p25cb9b33c0)" d="M 40.326068 242.599255 
L 50.085033 242.599255 
L 59.843997 242.599255 
L 69.602962 242.599255 
L 79.361927 242.599255 
L 89.120891 242.599255 
L 98.879856 242.599255 
L 108.638821 242.599255 
L 118.397785 242.599255 
L 128.15675 242.599255 
L 137.915715 242.599255 
L 147.674679 242.599255 
L 157.433644 242.599255 
L 167.192609 242.599255 
L 176.951573 242.599255 
L 186.710538 242.599255 
L 196.469503 242.599255 
L 206.228467 242.599255 
L 215.987432 242.599255 
" style="fill:none;stroke:#ff6800;stroke-linecap:square;stroke-width:2;"/>
   </g>
   <g id="line2d_21">
    <path clip-path="url(#p25cb9b33c0)" d="M 40.326068 143.352151 
L 50.085033 143.301426 
L 59.843997 143.260708 
L 69.602962 143.219003 
L 79.361927 143.153014 
L 89.120891 143.204788 
L 98.879856 143.447847 
L 108.638821 143.985055 
L 118.397785 144.888274 
L 128.15675 145.345855 
L 137.915715 145.446877 
L 147.674679 145.482476 
L 157.433644 145.525701 
L 167.192609 145.521529 
L 176.951573 145.461016 
L 186.710538 145.245079 
L 196.469503 145.020677 
L 206.228467 144.730365 
L 215.987432 144.805327 
" style="fill:none;stroke:#800000;stroke-linecap:square;stroke-width:2;"/>
   </g>
   <g id="line2d_22">
    <path clip-path="url(#p25cb9b33c0)" d="M 40.326068 144.805327 
L 50.085033 144.805327 
L 59.843997 144.805327 
L 69.602962 144.805327 
L 79.361927 144.805327 
L 89.120891 144.805327 
L 98.879856 144.805327 
L 108.638821 144.805327 
L 118.397785 144.805327 
L 128.15675 144.805327 
L 137.915715 144.805327 
L 147.674679 144.805327 
L 157.433644 144.805327 
L 167.192609 144.805327 
L 176.951573 144.805327 
L 186.710538 144.805327 
L 196.469503 144.805327 
L 206.228467 144.805327 
L 215.987432 144.805327 
" style="fill:none;stroke:#800000;stroke-linecap:square;stroke-width:2;"/>
   </g>
   <g id="patch_3">
    <path d="M 31.543 320.83175 
L 31.543 13.32 
" style="fill:none;stroke:#000000;stroke-linecap:square;stroke-linejoin:miter;stroke-width:0.8;"/>
   </g>
   <g id="patch_4">
    <path d="M 224.7705 320.83175 
L 224.7705 13.32 
" style="fill:none;stroke:#000000;stroke-linecap:square;stroke-linejoin:miter;stroke-width:0.8;"/>
   </g>
   <g id="patch_5">
    <path d="M 31.543 320.83175 
L 224.7705 320.83175 
" style="fill:none;stroke:#000000;stroke-linecap:square;stroke-linejoin:miter;stroke-width:0.8;"/>
   </g>
   <g id="patch_6">
    <path d="M 31.543 13.32 
L 224.7705 13.32 
" style="fill:none;stroke:#000000;stroke-linecap:square;stroke-linejoin:miter;stroke-width:0.8;"/>
   </g>
  </g>
  <g id="axes_2">
   <g id="patch_7">
    <path d="M 254.2525 320.83175 
L 447.48 320.83175 
L 447.48 13.32 
L 254.2525 13.32 
z
" style="fill:#ffffff;"/>
   </g>
   <g id="matplotlib.axis_3">
    <g id="xtick_5">
     <g id="line2d_23">
      <g>
       <use style="stroke:#000000;stroke-width:0.8;" x="263.035568" xlink:href="#m7c15362493" y="320.83175"/>
      </g>
     </g>
     <g id="text_11">
      <!-- 0 -->
      <g transform="translate(259.854318 335.430187)scale(0.1 -0.1)">
       <use xlink:href="#DejaVuSans-30"/>
      </g>
     </g>
    </g>
    <g id="xtick_6">
     <g id="line2d_24">
      <g>
       <use style="stroke:#000000;stroke-width:0.8;" x="311.830391" xlink:href="#m7c15362493" y="320.83175"/>
      </g>
     </g>
     <g id="text_12">
      <!-- 5 -->
      <g transform="translate(308.649141 335.430187)scale(0.1 -0.1)">
       <use xlink:href="#DejaVuSans-35"/>
      </g>
     </g>
    </g>
    <g id="xtick_7">
     <g id="line2d_25">
      <g>
       <use style="stroke:#000000;stroke-width:0.8;" x="360.625215" xlink:href="#m7c15362493" y="320.83175"/>
      </g>
     </g>
     <g id="text_13">
      <!-- 10 -->
      <g transform="translate(354.262715 335.430187)scale(0.1 -0.1)">
       <use xlink:href="#DejaVuSans-31"/>
       <use x="63.623047" xlink:href="#DejaVuSans-30"/>
      </g>
     </g>
    </g>
    <g id="xtick_8">
     <g id="line2d_26">
      <g>
       <use style="stroke:#000000;stroke-width:0.8;" x="409.420038" xlink:href="#m7c15362493" y="320.83175"/>
      </g>
     </g>
     <g id="text_14">
      <!-- 15 -->
      <g transform="translate(403.057538 335.430187)scale(0.1 -0.1)">
       <use xlink:href="#DejaVuSans-31"/>
       <use x="63.623047" xlink:href="#DejaVuSans-35"/>
      </g>
     </g>
    </g>
   </g>
   <g id="matplotlib.axis_4">
    <g id="ytick_7">
     <g id="line2d_27">
      <g>
       <use style="stroke:#000000;stroke-width:0.8;" x="254.2525" xlink:href="#m192c0f5c0c" y="303.199731"/>
      </g>
     </g>
     <g id="text_15">
      <!-- 2 -->
      <g transform="translate(240.89 306.998949)scale(0.1 -0.1)">
       <use xlink:href="#DejaVuSans-32"/>
      </g>
     </g>
    </g>
    <g id="ytick_8">
     <g id="line2d_28">
      <g>
       <use style="stroke:#000000;stroke-width:0.8;" x="254.2525" xlink:href="#m192c0f5c0c" y="246.99928"/>
      </g>
     </g>
     <g id="text_16">
      <!-- 4 -->
      <defs>
       <path d="M 37.796875 64.3125 
L 12.890625 25.390625 
L 37.796875 25.390625 
z
M 35.203125 72.90625 
L 47.609375 72.90625 
L 47.609375 25.390625 
L 58.015625 25.390625 
L 58.015625 17.1875 
L 47.609375 17.1875 
L 47.609375 0 
L 37.796875 0 
L 37.796875 17.1875 
L 4.890625 17.1875 
L 4.890625 26.703125 
z
" id="DejaVuSans-34"/>
      </defs>
      <g transform="translate(240.89 250.798498)scale(0.1 -0.1)">
       <use xlink:href="#DejaVuSans-34"/>
      </g>
     </g>
    </g>
    <g id="ytick_9">
     <g id="line2d_29">
      <g>
       <use style="stroke:#000000;stroke-width:0.8;" x="254.2525" xlink:href="#m192c0f5c0c" y="190.798829"/>
      </g>
     </g>
     <g id="text_17">
      <!-- 6 -->
      <defs>
       <path d="M 33.015625 40.375 
Q 26.375 40.375 22.484375 35.828125 
Q 18.609375 31.296875 18.609375 23.390625 
Q 18.609375 15.53125 22.484375 10.953125 
Q 26.375 6.390625 33.015625 6.390625 
Q 39.65625 6.390625 43.53125 10.953125 
Q 47.40625 15.53125 47.40625 23.390625 
Q 47.40625 31.296875 43.53125 35.828125 
Q 39.65625 40.375 33.015625 40.375 
z
M 52.59375 71.296875 
L 52.59375 62.3125 
Q 48.875 64.0625 45.09375 64.984375 
Q 41.3125 65.921875 37.59375 65.921875 
Q 27.828125 65.921875 22.671875 59.328125 
Q 17.53125 52.734375 16.796875 39.40625 
Q 19.671875 43.65625 24.015625 45.921875 
Q 28.375 48.1875 33.59375 48.1875 
Q 44.578125 48.1875 50.953125 41.515625 
Q 57.328125 34.859375 57.328125 23.390625 
Q 57.328125 12.15625 50.6875 5.359375 
Q 44.046875 -1.421875 33.015625 -1.421875 
Q 20.359375 -1.421875 13.671875 8.265625 
Q 6.984375 17.96875 6.984375 36.375 
Q 6.984375 53.65625 15.1875 63.9375 
Q 23.390625 74.21875 37.203125 74.21875 
Q 40.921875 74.21875 44.703125 73.484375 
Q 48.484375 72.75 52.59375 71.296875 
z
" id="DejaVuSans-36"/>
      </defs>
      <g transform="translate(240.89 194.598047)scale(0.1 -0.1)">
       <use xlink:href="#DejaVuSans-36"/>
      </g>
     </g>
    </g>
    <g id="ytick_10">
     <g id="line2d_30">
      <g>
       <use style="stroke:#000000;stroke-width:0.8;" x="254.2525" xlink:href="#m192c0f5c0c" y="134.598378"/>
      </g>
     </g>
     <g id="text_18">
      <!-- 8 -->
      <defs>
       <path d="M 31.78125 34.625 
Q 24.75 34.625 20.71875 30.859375 
Q 16.703125 27.09375 16.703125 20.515625 
Q 16.703125 13.921875 20.71875 10.15625 
Q 24.75 6.390625 31.78125 6.390625 
Q 38.8125 6.390625 42.859375 10.171875 
Q 46.921875 13.96875 46.921875 20.515625 
Q 46.921875 27.09375 42.890625 30.859375 
Q 38.875 34.625 31.78125 34.625 
z
M 21.921875 38.8125 
Q 15.578125 40.375 12.03125 44.71875 
Q 8.5 49.078125 8.5 55.328125 
Q 8.5 64.0625 14.71875 69.140625 
Q 20.953125 74.21875 31.78125 74.21875 
Q 42.671875 74.21875 48.875 69.140625 
Q 55.078125 64.0625 55.078125 55.328125 
Q 55.078125 49.078125 51.53125 44.71875 
Q 48 40.375 41.703125 38.8125 
Q 48.828125 37.15625 52.796875 32.3125 
Q 56.78125 27.484375 56.78125 20.515625 
Q 56.78125 9.90625 50.3125 4.234375 
Q 43.84375 -1.421875 31.78125 -1.421875 
Q 19.734375 -1.421875 13.25 4.234375 
Q 6.78125 9.90625 6.78125 20.515625 
Q 6.78125 27.484375 10.78125 32.3125 
Q 14.796875 37.15625 21.921875 38.8125 
z
M 18.3125 54.390625 
Q 18.3125 48.734375 21.84375 45.5625 
Q 25.390625 42.390625 31.78125 42.390625 
Q 38.140625 42.390625 41.71875 45.5625 
Q 45.3125 48.734375 45.3125 54.390625 
Q 45.3125 60.0625 41.71875 63.234375 
Q 38.140625 66.40625 31.78125 66.40625 
Q 25.390625 66.40625 21.84375 63.234375 
Q 18.3125 60.0625 18.3125 54.390625 
z
" id="DejaVuSans-38"/>
      </defs>
      <g transform="translate(240.89 138.397596)scale(0.1 -0.1)">
       <use xlink:href="#DejaVuSans-38"/>
      </g>
     </g>
    </g>
    <g id="ytick_11">
     <g id="line2d_31">
      <g>
       <use style="stroke:#000000;stroke-width:0.8;" x="254.2525" xlink:href="#m192c0f5c0c" y="78.397927"/>
      </g>
     </g>
     <g id="text_19">
      <!-- 10 -->
      <g transform="translate(234.5275 82.197145)scale(0.1 -0.1)">
       <use xlink:href="#DejaVuSans-31"/>
       <use x="63.623047" xlink:href="#DejaVuSans-30"/>
      </g>
     </g>
    </g>
    <g id="ytick_12">
     <g id="line2d_32">
      <g>
       <use style="stroke:#000000;stroke-width:0.8;" x="254.2525" xlink:href="#m192c0f5c0c" y="22.197476"/>
      </g>
     </g>
     <g id="text_20">
      <!-- 12 -->
      <g transform="translate(234.5275 25.996694)scale(0.1 -0.1)">
       <use xlink:href="#DejaVuSans-31"/>
       <use x="63.623047" xlink:href="#DejaVuSans-32"/>
      </g>
     </g>
    </g>
   </g>
   <g id="line2d_33">
    <path clip-path="url(#p0adc5e5604)" d="M 263.035568 216.623284 
L 272.794533 214.46424 
L 282.553497 214.782518 
L 292.312462 215.256073 
L 302.071427 217.522611 
L 311.830391 216.198153 
L 321.589356 215.894735 
L 331.348321 214.203713 
L 341.107285 214.12972 
L 350.86625 215.016042 
L 360.625215 213.651088 
L 370.384179 213.570118 
L 380.143144 215.593796 
L 389.902109 214.11475 
L 399.661073 213.516302 
L 409.420038 212.748917 
L 419.179003 215.566692 
L 428.937967 215.151423 
L 438.696932 215.566143 
" style="fill:none;stroke:#000080;stroke-linecap:square;stroke-width:2;"/>
   </g>
   <g id="line2d_34">
    <path clip-path="url(#p0adc5e5604)" d="M 263.035568 58.572592 
L 272.794533 52.014162 
L 282.553497 49.554191 
L 292.312462 48.560106 
L 302.071427 46.862304 
L 311.830391 47.776997 
L 321.589356 53.610685 
L 331.348321 57.731836 
L 341.107285 61.127589 
L 350.86625 60.969948 
L 360.625215 62.231761 
L 370.384179 59.918316 
L 380.143144 60.014047 
L 389.902109 59.661712 
L 399.661073 57.343754 
L 409.420038 55.710859 
L 419.179003 54.361354 
L 428.937967 53.956917 
L 438.696932 55.252755 
" style="fill:none;stroke:#004cff;stroke-linecap:square;stroke-width:2;"/>
   </g>
   <g id="line2d_35">
    <path clip-path="url(#p0adc5e5604)" d="M 263.035568 228.715941 
L 272.794533 230.041198 
L 282.553497 226.415054 
L 292.312462 229.172934 
L 302.071427 229.80568 
L 311.830391 227.568004 
L 321.589356 229.206462 
L 331.348321 228.510726 
L 341.107285 226.771845 
L 350.86625 225.506655 
L 360.625215 228.657284 
L 370.384179 225.978205 
L 380.143144 226.635428 
L 389.902109 226.523668 
L 399.661073 225.349254 
L 409.420038 226.347764 
L 419.179003 228.923492 
L 428.937967 228.543241 
L 438.696932 227.143311 
" style="fill:none;stroke:#29ffce;stroke-linecap:square;stroke-width:2;"/>
   </g>
   <g id="line2d_36">
    <path clip-path="url(#p0adc5e5604)" d="M 263.035568 268.532928 
L 272.794533 267.011725 
L 282.553497 265.635186 
L 292.312462 266.39635 
L 302.071427 263.522771 
L 311.830391 262.335991 
L 321.589356 261.616513 
L 331.348321 262.02803 
L 341.107285 260.514763 
L 350.86625 258.944227 
L 360.625215 257.946128 
L 370.384179 255.778444 
L 380.143144 256.251936 
L 389.902109 255.074292 
L 399.661073 255.66121 
L 409.420038 256.057144 
L 419.179003 255.840393 
L 428.937967 256.160045 
L 438.696932 253.869917 
" style="fill:none;stroke:#ceff29;stroke-linecap:square;stroke-width:2;"/>
   </g>
   <g id="line2d_37">
    <path clip-path="url(#p0adc5e5604)" d="M 263.035568 306.31627 
L 272.794533 298.102987 
L 282.553497 306.853943 
L 292.312462 296.936602 
L 302.071427 296.624464 
L 311.830391 305.809931 
L 321.589356 302.981338 
L 331.348321 304.171016 
L 341.107285 305.192822 
L 350.86625 305.394706 
L 360.625215 304.692348 
L 370.384179 305.06542 
L 380.143144 305.343202 
L 389.902109 303.404007 
L 399.661073 304.274921 
L 409.420038 303.508876 
L 419.179003 301.338121 
L 428.937967 290.27408 
L 438.696932 300.627452 
" style="fill:none;stroke:#ff6800;stroke-linecap:square;stroke-width:2;"/>
   </g>
   <g id="line2d_38">
    <path clip-path="url(#p0adc5e5604)" d="M 263.035568 52.174381 
L 272.794533 52.803085 
L 282.553497 44.111978 
L 292.312462 39.18474 
L 302.071427 40.185836 
L 311.830391 44.723258 
L 321.589356 44.326955 
L 331.348321 43.614991 
L 341.107285 36.615428 
L 350.86625 38.906507 
L 360.625215 35.717717 
L 370.384179 35.444297 
L 380.143144 34.837967 
L 389.902109 35.76078 
L 399.661073 32.877432 
L 409.420038 35.241294 
L 419.179003 36.613696 
L 428.937967 27.297807 
L 438.696932 33.668585 
" style="fill:none;stroke:#800000;stroke-linecap:square;stroke-width:2;"/>
   </g>
   <g id="patch_8">
    <path d="M 254.2525 320.83175 
L 254.2525 13.32 
" style="fill:none;stroke:#000000;stroke-linecap:square;stroke-linejoin:miter;stroke-width:0.8;"/>
   </g>
   <g id="patch_9">
    <path d="M 447.48 320.83175 
L 447.48 13.32 
" style="fill:none;stroke:#000000;stroke-linecap:square;stroke-linejoin:miter;stroke-width:0.8;"/>
   </g>
   <g id="patch_10">
    <path d="M 254.2525 320.83175 
L 447.48 320.83175 
" style="fill:none;stroke:#000000;stroke-linecap:square;stroke-linejoin:miter;stroke-width:0.8;"/>
   </g>
   <g id="patch_11">
    <path d="M 254.2525 13.32 
L 447.48 13.32 
" style="fill:none;stroke:#000000;stroke-linecap:square;stroke-linejoin:miter;stroke-width:0.8;"/>
   </g>
  </g>
 </g>
 <defs>
  <clipPath id="p25cb9b33c0">
   <rect height="307.51175" width="193.2275" x="31.543" y="13.32"/>
  </clipPath>
  <clipPath id="p0adc5e5604">
   <rect height="307.51175" width="193.2275" x="254.2525" y="13.32"/>
  </clipPath>
 </defs>
</svg>
