<?xml version="1.0" encoding="utf-8" standalone="no"?>
<!DOCTYPE svg PUBLIC "-//W3C//DTD SVG 1.1//EN"
  "http://www.w3.org/Graphics/SVG/1.1/DTD/svg11.dtd">
<!-- Created with matplotlib (http://matplotlib.org/) -->
<svg height="345.6pt" version="1.1" viewBox="0 0 460.8 345.6" width="460.8pt" xmlns="http://www.w3.org/2000/svg" xmlns:xlink="http://www.w3.org/1999/xlink">
 <defs>
  <style type="text/css">
*{stroke-linecap:butt;stroke-linejoin:round;}
  </style>
 </defs>
 <g id="figure_1">
  <g id="patch_1">
   <path d="M 0 345.6 
L 460.8 345.6 
L 460.8 0 
L 0 0 
z
" style="fill:#ffffff;"/>
  </g>
  <g id="axes_1">
   <g id="patch_2">
    <path d="M 31.543 320.83175 
L 224.7705 320.83175 
L 224.7705 13.32 
L 31.543 13.32 
z
" style="fill:#ffffff;"/>
   </g>
   <g id="matplotlib.axis_1">
    <g id="xtick_1">
     <g id="line2d_1">
      <defs>
       <path d="M 0 0 
L 0 3.5 
" id="mb6579dd07f" style="stroke:#000000;stroke-width:0.8;"/>
      </defs>
      <g>
       <use style="stroke:#000000;stroke-width:0.8;" x="40.326068" xlink:href="#mb6579dd07f" y="320.83175"/>
      </g>
     </g>
     <g id="text_1">
      <!-- 0 -->
      <defs>
       <path d="M 31.78125 66.40625 
Q 24.171875 66.40625 20.328125 58.90625 
Q 16.5 51.421875 16.5 36.375 
Q 16.5 21.390625 20.328125 13.890625 
Q 24.171875 6.390625 31.78125 6.390625 
Q 39.453125 6.390625 43.28125 13.890625 
Q 47.125 21.390625 47.125 36.375 
Q 47.125 51.421875 43.28125 58.90625 
Q 39.453125 66.40625 31.78125 66.40625 
z
M 31.78125 74.21875 
Q 44.046875 74.21875 50.515625 64.515625 
Q 56.984375 54.828125 56.984375 36.375 
Q 56.984375 17.96875 50.515625 8.265625 
Q 44.046875 -1.421875 31.78125 -1.421875 
Q 19.53125 -1.421875 13.0625 8.265625 
Q 6.59375 17.96875 6.59375 36.375 
Q 6.59375 54.828125 13.0625 64.515625 
Q 19.53125 74.21875 31.78125 74.21875 
z
" id="DejaVuSans-30"/>
      </defs>
      <g transform="translate(37.144818 335.430187)scale(0.1 -0.1)">
       <use xlink:href="#DejaVuSans-30"/>
      </g>
     </g>
    </g>
    <g id="xtick_2">
     <g id="line2d_2">
      <g>
       <use style="stroke:#000000;stroke-width:0.8;" x="89.120891" xlink:href="#mb6579dd07f" y="320.83175"/>
      </g>
     </g>
     <g id="text_2">
      <!-- 5 -->
      <defs>
       <path d="M 10.796875 72.90625 
L 49.515625 72.90625 
L 49.515625 64.59375 
L 19.828125 64.59375 
L 19.828125 46.734375 
Q 21.96875 47.46875 24.109375 47.828125 
Q 26.265625 48.1875 28.421875 48.1875 
Q 40.625 48.1875 47.75 41.5 
Q 54.890625 34.8125 54.890625 23.390625 
Q 54.890625 11.625 47.5625 5.09375 
Q 40.234375 -1.421875 26.90625 -1.421875 
Q 22.3125 -1.421875 17.546875 -0.640625 
Q 12.796875 0.140625 7.71875 1.703125 
L 7.71875 11.625 
Q 12.109375 9.234375 16.796875 8.0625 
Q 21.484375 6.890625 26.703125 6.890625 
Q 35.15625 6.890625 40.078125 11.328125 
Q 45.015625 15.765625 45.015625 23.390625 
Q 45.015625 31 40.078125 35.4375 
Q 35.15625 39.890625 26.703125 39.890625 
Q 22.75 39.890625 18.8125 39.015625 
Q 14.890625 38.140625 10.796875 36.28125 
z
" id="DejaVuSans-35"/>
      </defs>
      <g transform="translate(85.939641 335.430187)scale(0.1 -0.1)">
       <use xlink:href="#DejaVuSans-35"/>
      </g>
     </g>
    </g>
    <g id="xtick_3">
     <g id="line2d_3">
      <g>
       <use style="stroke:#000000;stroke-width:0.8;" x="137.915715" xlink:href="#mb6579dd07f" y="320.83175"/>
      </g>
     </g>
     <g id="text_3">
      <!-- 10 -->
      <defs>
       <path d="M 12.40625 8.296875 
L 28.515625 8.296875 
L 28.515625 63.921875 
L 10.984375 60.40625 
L 10.984375 69.390625 
L 28.421875 72.90625 
L 38.28125 72.90625 
L 38.28125 8.296875 
L 54.390625 8.296875 
L 54.390625 0 
L 12.40625 0 
z
" id="DejaVuSans-31"/>
      </defs>
      <g transform="translate(131.553215 335.430187)scale(0.1 -0.1)">
       <use xlink:href="#DejaVuSans-31"/>
       <use x="63.623047" xlink:href="#DejaVuSans-30"/>
      </g>
     </g>
    </g>
    <g id="xtick_4">
     <g id="line2d_4">
      <g>
       <use style="stroke:#000000;stroke-width:0.8;" x="186.710538" xlink:href="#mb6579dd07f" y="320.83175"/>
      </g>
     </g>
     <g id="text_4">
      <!-- 15 -->
      <g transform="translate(180.348038 335.430187)scale(0.1 -0.1)">
       <use xlink:href="#DejaVuSans-31"/>
       <use x="63.623047" xlink:href="#DejaVuSans-35"/>
      </g>
     </g>
    </g>
   </g>
   <g id="matplotlib.axis_2">
    <g id="ytick_1">
     <g id="line2d_5">
      <defs>
       <path d="M 0 0 
L -3.5 0 
" id="m1a0f0fda14" style="stroke:#000000;stroke-width:0.8;"/>
      </defs>
      <g>
       <use style="stroke:#000000;stroke-width:0.8;" x="31.543" xlink:href="#m1a0f0fda14" y="284.094728"/>
      </g>
     </g>
     <g id="text_5">
      <!-- 50 -->
      <g transform="translate(11.818 287.893946)scale(0.1 -0.1)">
       <use xlink:href="#DejaVuSans-35"/>
       <use x="63.623047" xlink:href="#DejaVuSans-30"/>
      </g>
     </g>
    </g>
    <g id="ytick_2">
     <g id="line2d_6">
      <g>
       <use style="stroke:#000000;stroke-width:0.8;" x="31.543" xlink:href="#m1a0f0fda14" y="240.850423"/>
      </g>
     </g>
     <g id="text_6">
      <!-- 100 -->
      <g transform="translate(5.4555 244.649642)scale(0.1 -0.1)">
       <use xlink:href="#DejaVuSans-31"/>
       <use x="63.623047" xlink:href="#DejaVuSans-30"/>
       <use x="127.246094" xlink:href="#DejaVuSans-30"/>
      </g>
     </g>
    </g>
    <g id="ytick_3">
     <g id="line2d_7">
      <g>
       <use style="stroke:#000000;stroke-width:0.8;" x="31.543" xlink:href="#m1a0f0fda14" y="197.606119"/>
      </g>
     </g>
     <g id="text_7">
      <!-- 150 -->
      <g transform="translate(5.4555 201.405338)scale(0.1 -0.1)">
       <use xlink:href="#DejaVuSans-31"/>
       <use x="63.623047" xlink:href="#DejaVuSans-35"/>
       <use x="127.246094" xlink:href="#DejaVuSans-30"/>
      </g>
     </g>
    </g>
    <g id="ytick_4">
     <g id="line2d_8">
      <g>
       <use style="stroke:#000000;stroke-width:0.8;" x="31.543" xlink:href="#m1a0f0fda14" y="154.361815"/>
      </g>
     </g>
     <g id="text_8">
      <!-- 200 -->
      <defs>
       <path d="M 19.1875 8.296875 
L 53.609375 8.296875 
L 53.609375 0 
L 7.328125 0 
L 7.328125 8.296875 
Q 12.9375 14.109375 22.625 23.890625 
Q 32.328125 33.6875 34.8125 36.53125 
Q 39.546875 41.84375 41.421875 45.53125 
Q 43.3125 49.21875 43.3125 52.78125 
Q 43.3125 58.59375 39.234375 62.25 
Q 35.15625 65.921875 28.609375 65.921875 
Q 23.96875 65.921875 18.8125 64.3125 
Q 13.671875 62.703125 7.8125 59.421875 
L 7.8125 69.390625 
Q 13.765625 71.78125 18.9375 73 
Q 24.125 74.21875 28.421875 74.21875 
Q 39.75 74.21875 46.484375 68.546875 
Q 53.21875 62.890625 53.21875 53.421875 
Q 53.21875 48.921875 51.53125 44.890625 
Q 49.859375 40.875 45.40625 35.40625 
Q 44.1875 33.984375 37.640625 27.21875 
Q 31.109375 20.453125 19.1875 8.296875 
z
" id="DejaVuSans-32"/>
      </defs>
      <g transform="translate(5.4555 158.161034)scale(0.1 -0.1)">
       <use xlink:href="#DejaVuSans-32"/>
       <use x="63.623047" xlink:href="#DejaVuSans-30"/>
       <use x="127.246094" xlink:href="#DejaVuSans-30"/>
      </g>
     </g>
    </g>
    <g id="ytick_5">
     <g id="line2d_9">
      <g>
       <use style="stroke:#000000;stroke-width:0.8;" x="31.543" xlink:href="#m1a0f0fda14" y="111.117511"/>
      </g>
     </g>
     <g id="text_9">
      <!-- 250 -->
      <g transform="translate(5.4555 114.91673)scale(0.1 -0.1)">
       <use xlink:href="#DejaVuSans-32"/>
       <use x="63.623047" xlink:href="#DejaVuSans-35"/>
       <use x="127.246094" xlink:href="#DejaVuSans-30"/>
      </g>
     </g>
    </g>
    <g id="ytick_6">
     <g id="line2d_10">
      <g>
       <use style="stroke:#000000;stroke-width:0.8;" x="31.543" xlink:href="#m1a0f0fda14" y="67.873207"/>
      </g>
     </g>
     <g id="text_10">
      <!-- 300 -->
      <defs>
       <path d="M 40.578125 39.3125 
Q 47.65625 37.796875 51.625 33 
Q 55.609375 28.21875 55.609375 21.1875 
Q 55.609375 10.40625 48.1875 4.484375 
Q 40.765625 -1.421875 27.09375 -1.421875 
Q 22.515625 -1.421875 17.65625 -0.515625 
Q 12.796875 0.390625 7.625 2.203125 
L 7.625 11.71875 
Q 11.71875 9.328125 16.59375 8.109375 
Q 21.484375 6.890625 26.8125 6.890625 
Q 36.078125 6.890625 40.9375 10.546875 
Q 45.796875 14.203125 45.796875 21.1875 
Q 45.796875 27.640625 41.28125 31.265625 
Q 36.765625 34.90625 28.71875 34.90625 
L 20.21875 34.90625 
L 20.21875 43.015625 
L 29.109375 43.015625 
Q 36.375 43.015625 40.234375 45.921875 
Q 44.09375 48.828125 44.09375 54.296875 
Q 44.09375 59.90625 40.109375 62.90625 
Q 36.140625 65.921875 28.71875 65.921875 
Q 24.65625 65.921875 20.015625 65.03125 
Q 15.375 64.15625 9.8125 62.3125 
L 9.8125 71.09375 
Q 15.4375 72.65625 20.34375 73.4375 
Q 25.25 74.21875 29.59375 74.21875 
Q 40.828125 74.21875 47.359375 69.109375 
Q 53.90625 64.015625 53.90625 55.328125 
Q 53.90625 49.265625 50.4375 45.09375 
Q 46.96875 40.921875 40.578125 39.3125 
z
" id="DejaVuSans-33"/>
      </defs>
      <g transform="translate(5.4555 71.672426)scale(0.1 -0.1)">
       <use xlink:href="#DejaVuSans-33"/>
       <use x="63.623047" xlink:href="#DejaVuSans-30"/>
       <use x="127.246094" xlink:href="#DejaVuSans-30"/>
      </g>
     </g>
    </g>
    <g id="ytick_7">
     <g id="line2d_11">
      <g>
       <use style="stroke:#000000;stroke-width:0.8;" x="31.543" xlink:href="#m1a0f0fda14" y="24.628903"/>
      </g>
     </g>
     <g id="text_11">
      <!-- 350 -->
      <g transform="translate(5.4555 28.428121)scale(0.1 -0.1)">
       <use xlink:href="#DejaVuSans-33"/>
       <use x="63.623047" xlink:href="#DejaVuSans-35"/>
       <use x="127.246094" xlink:href="#DejaVuSans-30"/>
      </g>
     </g>
    </g>
   </g>
   <g id="line2d_12">
    <path clip-path="url(#p80478642c4)" d="M 40.326068 101.073258 
L 50.085033 100.896778 
L 59.843997 100.89438 
L 69.602962 100.838273 
L 79.361927 100.953614 
L 89.120891 100.230833 
L 98.879856 98.82918 
L 108.638821 97.18054 
L 118.397785 95.938595 
L 128.15675 95.833363 
L 137.915715 95.983985 
L 147.674679 97.619426 
L 157.433644 96.06516 
L 167.192609 95.670461 
L 176.951573 95.533685 
L 186.710538 95.8903 
L 196.469503 95.733654 
L 206.228467 95.115817 
L 215.987432 94.315566 
" style="fill:none;stroke:#000080;stroke-linecap:square;stroke-width:2;"/>
   </g>
   <g id="line2d_13">
    <path clip-path="url(#p80478642c4)" d="M 40.326068 96.06516 
L 50.085033 96.06516 
L 59.843997 96.06516 
L 69.602962 96.06516 
L 79.361927 96.06516 
L 89.120891 96.06516 
L 98.879856 96.06516 
L 108.638821 96.06516 
L 118.397785 96.06516 
L 128.15675 96.06516 
L 137.915715 96.06516 
L 147.674679 96.06516 
L 157.433644 96.06516 
L 167.192609 96.06516 
L 176.951573 96.06516 
L 186.710538 96.06516 
L 196.469503 96.06516 
L 206.228467 96.06516 
L 215.987432 96.06516 
" style="fill:none;stroke:#000080;stroke-linecap:square;stroke-width:2;"/>
   </g>
   <g id="line2d_14">
    <path clip-path="url(#p80478642c4)" d="M 40.326068 243.869957 
L 50.085033 244.20718 
L 59.843997 243.737994 
L 69.602962 243.765734 
L 79.361927 244.318846 
L 89.120891 245.611512 
L 98.879856 247.715649 
L 108.638821 249.153883 
L 118.397785 254.733806 
L 128.15675 256.47221 
L 137.915715 251.651416 
L 147.674679 252.728051 
L 157.433644 253.671011 
L 167.192609 255.436323 
L 176.951573 252.419008 
L 186.710538 251.016006 
L 196.469503 250.768044 
L 206.228467 257.313528 
L 215.987432 258.709555 
" style="fill:none;stroke:#0028ff;stroke-linecap:square;stroke-width:2;"/>
   </g>
   <g id="line2d_15">
    <path clip-path="url(#p80478642c4)" d="M 40.326068 251.016006 
L 50.085033 251.016006 
L 59.843997 251.016006 
L 69.602962 251.016006 
L 79.361927 251.016006 
L 89.120891 251.016006 
L 98.879856 251.016006 
L 108.638821 251.016006 
L 118.397785 251.016006 
L 128.15675 251.016006 
L 137.915715 251.016006 
L 147.674679 251.016006 
L 157.433644 251.016006 
L 167.192609 251.016006 
L 176.951573 251.016006 
L 186.710538 251.016006 
L 196.469503 251.016006 
L 206.228467 251.016006 
L 215.987432 251.016006 
" style="fill:none;stroke:#0028ff;stroke-linecap:square;stroke-width:2;"/>
   </g>
   <g id="line2d_16">
    <path clip-path="url(#p80478642c4)" d="M 40.326068 56.313075 
L 50.085033 56.318514 
L 59.843997 56.376228 
L 69.602962 56.369575 
L 79.361927 56.394976 
L 89.120891 56.427782 
L 98.879856 56.255853 
L 108.638821 56.276585 
L 118.397785 56.280277 
L 128.15675 56.534537 
L 137.915715 56.694567 
L 147.674679 56.746398 
L 157.433644 56.759444 
L 167.192609 56.6987 
L 176.951573 56.7306 
L 186.710538 56.79035 
L 196.469503 56.590845 
L 206.228467 56.331182 
L 215.987432 56.213576 
" style="fill:none;stroke:#00d4ff;stroke-linecap:square;stroke-width:2;"/>
   </g>
   <g id="line2d_17">
    <path clip-path="url(#p80478642c4)" d="M 40.326068 56.394976 
L 50.085033 56.394976 
L 59.843997 56.394976 
L 69.602962 56.394976 
L 79.361927 56.394976 
L 89.120891 56.394976 
L 98.879856 56.394976 
L 108.638821 56.394976 
L 118.397785 56.394976 
L 128.15675 56.394976 
L 137.915715 56.394976 
L 147.674679 56.394976 
L 157.433644 56.394976 
L 167.192609 56.394976 
L 176.951573 56.394976 
L 186.710538 56.394976 
L 196.469503 56.394976 
L 206.228467 56.394976 
L 215.987432 56.394976 
" style="fill:none;stroke:#00d4ff;stroke-linecap:square;stroke-width:2;"/>
   </g>
   <g id="line2d_18">
    <path clip-path="url(#p80478642c4)" d="M 40.326068 306.807495 
L 50.085033 306.799943 
L 59.843997 306.81559 
L 69.602962 306.830352 
L 79.361927 306.853943 
L 89.120891 306.585413 
L 98.879856 306.061554 
L 108.638821 305.85118 
L 118.397785 305.686549 
L 128.15675 305.487934 
L 137.915715 305.289848 
L 147.674679 305.282996 
L 157.433644 305.243128 
L 167.192609 305.239034 
L 176.951573 305.331922 
L 186.710538 305.52193 
L 196.469503 305.641082 
L 206.228467 305.233415 
L 215.987432 304.753306 
" style="fill:none;stroke:#7dff7a;stroke-linecap:square;stroke-width:2;"/>
   </g>
   <g id="line2d_19">
    <path clip-path="url(#p80478642c4)" d="M 40.326068 305.641082 
L 50.085033 305.641082 
L 59.843997 305.641082 
L 69.602962 305.641082 
L 79.361927 305.641082 
L 89.120891 305.641082 
L 98.879856 305.641082 
L 108.638821 305.641082 
L 118.397785 305.641082 
L 128.15675 305.641082 
L 137.915715 305.641082 
L 147.674679 305.641082 
L 157.433644 305.641082 
L 167.192609 305.641082 
L 176.951573 305.641082 
L 186.710538 305.641082 
L 196.469503 305.641082 
L 206.228467 305.641082 
L 215.987432 305.641082 
" style="fill:none;stroke:#7dff7a;stroke-linecap:square;stroke-width:2;"/>
   </g>
   <g id="line2d_20">
    <path clip-path="url(#p80478642c4)" d="M 40.326068 160.263889 
L 50.085033 160.21841 
L 59.843997 160.181904 
L 69.602962 160.144513 
L 79.361927 160.085349 
L 89.120891 160.131768 
L 98.879856 160.349687 
L 108.638821 160.831328 
L 118.397785 161.641124 
L 128.15675 162.051375 
L 137.915715 162.141948 
L 147.674679 162.173864 
L 157.433644 162.212619 
L 167.192609 162.208878 
L 176.951573 162.154624 
L 186.710538 161.961023 
L 196.469503 161.759832 
L 206.228467 161.499548 
L 215.987432 161.566757 
" style="fill:none;stroke:#ffe600;stroke-linecap:square;stroke-width:2;"/>
   </g>
   <g id="line2d_21">
    <path clip-path="url(#p80478642c4)" d="M 40.326068 161.566757 
L 50.085033 161.566757 
L 59.843997 161.566757 
L 69.602962 161.566757 
L 79.361927 161.566757 
L 89.120891 161.566757 
L 98.879856 161.566757 
L 108.638821 161.566757 
L 118.397785 161.566757 
L 128.15675 161.566757 
L 137.915715 161.566757 
L 147.674679 161.566757 
L 157.433644 161.566757 
L 167.192609 161.566757 
L 176.951573 161.566757 
L 186.710538 161.566757 
L 196.469503 161.566757 
L 206.228467 161.566757 
L 215.987432 161.566757 
" style="fill:none;stroke:#ffe600;stroke-linecap:square;stroke-width:2;"/>
   </g>
   <g id="line2d_22">
    <path clip-path="url(#p80478642c4)" d="M 40.326068 226.628497 
L 50.085033 226.642323 
L 59.843997 226.597803 
L 69.602962 226.585296 
L 79.361927 226.533351 
L 89.120891 226.619788 
L 98.879856 227.112365 
L 108.638821 227.264727 
L 118.397785 227.319648 
L 128.15675 227.005024 
L 137.915715 226.727248 
L 147.674679 226.673904 
L 157.433644 226.698168 
L 167.192609 226.72849 
L 176.951573 226.88584 
L 186.710538 226.911338 
L 196.469503 227.236334 
L 206.228467 227.719304 
L 215.987432 228.053366 
" style="fill:none;stroke:#ff4700;stroke-linecap:square;stroke-width:2;"/>
   </g>
   <g id="line2d_23">
    <path clip-path="url(#p80478642c4)" d="M 40.326068 226.72849 
L 50.085033 226.72849 
L 59.843997 226.72849 
L 69.602962 226.72849 
L 79.361927 226.72849 
L 89.120891 226.72849 
L 98.879856 226.72849 
L 108.638821 226.72849 
L 118.397785 226.72849 
L 128.15675 226.72849 
L 137.915715 226.72849 
L 147.674679 226.72849 
L 157.433644 226.72849 
L 167.192609 226.72849 
L 176.951573 226.72849 
L 186.710538 226.72849 
L 196.469503 226.72849 
L 206.228467 226.72849 
L 215.987432 226.72849 
" style="fill:none;stroke:#ff4700;stroke-linecap:square;stroke-width:2;"/>
   </g>
   <g id="line2d_24">
    <path clip-path="url(#p80478642c4)" d="M 157.433644 27.297807 
" style="fill:none;stroke:#800000;stroke-linecap:square;stroke-width:2;"/>
   </g>
   <g id="line2d_25">
    <path clip-path="url(#p80478642c4)" d="M 157.433644 27.297807 
" style="fill:none;stroke:#800000;stroke-linecap:square;stroke-width:2;"/>
   </g>
   <g id="patch_3">
    <path d="M 31.543 320.83175 
L 31.543 13.32 
" style="fill:none;stroke:#000000;stroke-linecap:square;stroke-linejoin:miter;stroke-width:0.8;"/>
   </g>
   <g id="patch_4">
    <path d="M 224.7705 320.83175 
L 224.7705 13.32 
" style="fill:none;stroke:#000000;stroke-linecap:square;stroke-linejoin:miter;stroke-width:0.8;"/>
   </g>
   <g id="patch_5">
    <path d="M 31.543 320.83175 
L 224.7705 320.83175 
" style="fill:none;stroke:#000000;stroke-linecap:square;stroke-linejoin:miter;stroke-width:0.8;"/>
   </g>
   <g id="patch_6">
    <path d="M 31.543 13.32 
L 224.7705 13.32 
" style="fill:none;stroke:#000000;stroke-linecap:square;stroke-linejoin:miter;stroke-width:0.8;"/>
   </g>
  </g>
  <g id="axes_2">
   <g id="patch_7">
    <path d="M 254.2525 320.83175 
L 447.48 320.83175 
L 447.48 13.32 
L 254.2525 13.32 
z
" style="fill:#ffffff;"/>
   </g>
   <g id="matplotlib.axis_3">
    <g id="xtick_5">
     <g id="line2d_26">
      <g>
       <use style="stroke:#000000;stroke-width:0.8;" x="263.035568" xlink:href="#mb6579dd07f" y="320.83175"/>
      </g>
     </g>
     <g id="text_12">
      <!-- 0 -->
      <g transform="translate(259.854318 335.430187)scale(0.1 -0.1)">
       <use xlink:href="#DejaVuSans-30"/>
      </g>
     </g>
    </g>
    <g id="xtick_6">
     <g id="line2d_27">
      <g>
       <use style="stroke:#000000;stroke-width:0.8;" x="311.830391" xlink:href="#mb6579dd07f" y="320.83175"/>
      </g>
     </g>
     <g id="text_13">
      <!-- 5 -->
      <g transform="translate(308.649141 335.430187)scale(0.1 -0.1)">
       <use xlink:href="#DejaVuSans-35"/>
      </g>
     </g>
    </g>
    <g id="xtick_7">
     <g id="line2d_28">
      <g>
       <use style="stroke:#000000;stroke-width:0.8;" x="360.625215" xlink:href="#mb6579dd07f" y="320.83175"/>
      </g>
     </g>
     <g id="text_14">
      <!-- 10 -->
      <g transform="translate(354.262715 335.430187)scale(0.1 -0.1)">
       <use xlink:href="#DejaVuSans-31"/>
       <use x="63.623047" xlink:href="#DejaVuSans-30"/>
      </g>
     </g>
    </g>
    <g id="xtick_8">
     <g id="line2d_29">
      <g>
       <use style="stroke:#000000;stroke-width:0.8;" x="409.420038" xlink:href="#mb6579dd07f" y="320.83175"/>
      </g>
     </g>
     <g id="text_15">
      <!-- 15 -->
      <g transform="translate(403.057538 335.430187)scale(0.1 -0.1)">
       <use xlink:href="#DejaVuSans-31"/>
       <use x="63.623047" xlink:href="#DejaVuSans-35"/>
      </g>
     </g>
    </g>
   </g>
   <g id="matplotlib.axis_4">
    <g id="ytick_8">
     <g id="line2d_30">
      <g>
       <use style="stroke:#000000;stroke-width:0.8;" x="254.2525" xlink:href="#m1a0f0fda14" y="307.311844"/>
      </g>
     </g>
     <g id="text_16">
      <!-- 0 -->
      <g transform="translate(240.89 311.111063)scale(0.1 -0.1)">
       <use xlink:href="#DejaVuSans-30"/>
      </g>
     </g>
    </g>
    <g id="ytick_9">
     <g id="line2d_31">
      <g>
       <use style="stroke:#000000;stroke-width:0.8;" x="254.2525" xlink:href="#m1a0f0fda14" y="259.926109"/>
      </g>
     </g>
     <g id="text_17">
      <!-- 2 -->
      <g transform="translate(240.89 263.725328)scale(0.1 -0.1)">
       <use xlink:href="#DejaVuSans-32"/>
      </g>
     </g>
    </g>
    <g id="ytick_10">
     <g id="line2d_32">
      <g>
       <use style="stroke:#000000;stroke-width:0.8;" x="254.2525" xlink:href="#m1a0f0fda14" y="212.540374"/>
      </g>
     </g>
     <g id="text_18">
      <!-- 4 -->
      <defs>
       <path d="M 37.796875 64.3125 
L 12.890625 25.390625 
L 37.796875 25.390625 
z
M 35.203125 72.90625 
L 47.609375 72.90625 
L 47.609375 25.390625 
L 58.015625 25.390625 
L 58.015625 17.1875 
L 47.609375 17.1875 
L 47.609375 0 
L 37.796875 0 
L 37.796875 17.1875 
L 4.890625 17.1875 
L 4.890625 26.703125 
z
" id="DejaVuSans-34"/>
      </defs>
      <g transform="translate(240.89 216.339592)scale(0.1 -0.1)">
       <use xlink:href="#DejaVuSans-34"/>
      </g>
     </g>
    </g>
    <g id="ytick_11">
     <g id="line2d_33">
      <g>
       <use style="stroke:#000000;stroke-width:0.8;" x="254.2525" xlink:href="#m1a0f0fda14" y="165.154639"/>
      </g>
     </g>
     <g id="text_19">
      <!-- 6 -->
      <defs>
       <path d="M 33.015625 40.375 
Q 26.375 40.375 22.484375 35.828125 
Q 18.609375 31.296875 18.609375 23.390625 
Q 18.609375 15.53125 22.484375 10.953125 
Q 26.375 6.390625 33.015625 6.390625 
Q 39.65625 6.390625 43.53125 10.953125 
Q 47.40625 15.53125 47.40625 23.390625 
Q 47.40625 31.296875 43.53125 35.828125 
Q 39.65625 40.375 33.015625 40.375 
z
M 52.59375 71.296875 
L 52.59375 62.3125 
Q 48.875 64.0625 45.09375 64.984375 
Q 41.3125 65.921875 37.59375 65.921875 
Q 27.828125 65.921875 22.671875 59.328125 
Q 17.53125 52.734375 16.796875 39.40625 
Q 19.671875 43.65625 24.015625 45.921875 
Q 28.375 48.1875 33.59375 48.1875 
Q 44.578125 48.1875 50.953125 41.515625 
Q 57.328125 34.859375 57.328125 23.390625 
Q 57.328125 12.15625 50.6875 5.359375 
Q 44.046875 -1.421875 33.015625 -1.421875 
Q 20.359375 -1.421875 13.671875 8.265625 
Q 6.984375 17.96875 6.984375 36.375 
Q 6.984375 53.65625 15.1875 63.9375 
Q 23.390625 74.21875 37.203125 74.21875 
Q 40.921875 74.21875 44.703125 73.484375 
Q 48.484375 72.75 52.59375 71.296875 
z
" id="DejaVuSans-36"/>
      </defs>
      <g transform="translate(240.89 168.953857)scale(0.1 -0.1)">
       <use xlink:href="#DejaVuSans-36"/>
      </g>
     </g>
    </g>
    <g id="ytick_12">
     <g id="line2d_34">
      <g>
       <use style="stroke:#000000;stroke-width:0.8;" x="254.2525" xlink:href="#m1a0f0fda14" y="117.768903"/>
      </g>
     </g>
     <g id="text_20">
      <!-- 8 -->
      <defs>
       <path d="M 31.78125 34.625 
Q 24.75 34.625 20.71875 30.859375 
Q 16.703125 27.09375 16.703125 20.515625 
Q 16.703125 13.921875 20.71875 10.15625 
Q 24.75 6.390625 31.78125 6.390625 
Q 38.8125 6.390625 42.859375 10.171875 
Q 46.921875 13.96875 46.921875 20.515625 
Q 46.921875 27.09375 42.890625 30.859375 
Q 38.875 34.625 31.78125 34.625 
z
M 21.921875 38.8125 
Q 15.578125 40.375 12.03125 44.71875 
Q 8.5 49.078125 8.5 55.328125 
Q 8.5 64.0625 14.71875 69.140625 
Q 20.953125 74.21875 31.78125 74.21875 
Q 42.671875 74.21875 48.875 69.140625 
Q 55.078125 64.0625 55.078125 55.328125 
Q 55.078125 49.078125 51.53125 44.71875 
Q 48 40.375 41.703125 38.8125 
Q 48.828125 37.15625 52.796875 32.3125 
Q 56.78125 27.484375 56.78125 20.515625 
Q 56.78125 9.90625 50.3125 4.234375 
Q 43.84375 -1.421875 31.78125 -1.421875 
Q 19.734375 -1.421875 13.25 4.234375 
Q 6.78125 9.90625 6.78125 20.515625 
Q 6.78125 27.484375 10.78125 32.3125 
Q 14.796875 37.15625 21.921875 38.8125 
z
M 18.3125 54.390625 
Q 18.3125 48.734375 21.84375 45.5625 
Q 25.390625 42.390625 31.78125 42.390625 
Q 38.140625 42.390625 41.71875 45.5625 
Q 45.3125 48.734375 45.3125 54.390625 
Q 45.3125 60.0625 41.71875 63.234375 
Q 38.140625 66.40625 31.78125 66.40625 
Q 25.390625 66.40625 21.84375 63.234375 
Q 18.3125 60.0625 18.3125 54.390625 
z
" id="DejaVuSans-38"/>
      </defs>
      <g transform="translate(240.89 121.568122)scale(0.1 -0.1)">
       <use xlink:href="#DejaVuSans-38"/>
      </g>
     </g>
    </g>
    <g id="ytick_13">
     <g id="line2d_35">
      <g>
       <use style="stroke:#000000;stroke-width:0.8;" x="254.2525" xlink:href="#m1a0f0fda14" y="70.383168"/>
      </g>
     </g>
     <g id="text_21">
      <!-- 10 -->
      <g transform="translate(234.5275 74.182387)scale(0.1 -0.1)">
       <use xlink:href="#DejaVuSans-31"/>
       <use x="63.623047" xlink:href="#DejaVuSans-30"/>
      </g>
     </g>
    </g>
    <g id="ytick_14">
     <g id="line2d_36">
      <g>
       <use style="stroke:#000000;stroke-width:0.8;" x="254.2525" xlink:href="#m1a0f0fda14" y="22.997433"/>
      </g>
     </g>
     <g id="text_22">
      <!-- 12 -->
      <g transform="translate(234.5275 26.796652)scale(0.1 -0.1)">
       <use xlink:href="#DejaVuSans-31"/>
       <use x="63.623047" xlink:href="#DejaVuSans-32"/>
      </g>
     </g>
    </g>
   </g>
   <g id="line2d_37">
    <path clip-path="url(#pf241e2a29e)" d="M 263.035568 218.609066 
L 272.794533 218.112761 
L 282.553497 216.637047 
L 292.312462 216.192667 
L 302.071427 213.966255 
L 311.830391 213.670524 
L 321.589356 212.931254 
L 331.348321 210.238127 
L 341.107285 208.524593 
L 350.86625 209.344288 
L 360.625215 207.372537 
L 370.384179 212.331523 
L 380.143144 205.502215 
L 389.902109 205.598698 
L 399.661073 204.198856 
L 409.420038 204.81583 
L 419.179003 204.813427 
L 428.937967 203.046894 
L 438.696932 202.65291 
" style="fill:none;stroke:#000080;stroke-linecap:square;stroke-width:2;"/>
   </g>
   <g id="line2d_38">
    <path clip-path="url(#pf241e2a29e)" d="M 263.035568 265.461171 
L 272.794533 261.122975 
L 282.553497 261.847413 
L 292.312462 260.446343 
L 302.071427 262.847647 
L 311.830391 264.39573 
L 321.589356 260.15141 
L 331.348321 267.140978 
L 341.107285 275.690602 
L 350.86625 275.871555 
L 360.625215 269.826004 
L 370.384179 270.177582 
L 380.143144 273.514662 
L 389.902109 273.535345 
L 399.661073 270.999952 
L 409.420038 266.602385 
L 419.179003 265.027347 
L 428.937967 274.317496 
L 438.696932 275.492094 
" style="fill:none;stroke:#0028ff;stroke-linecap:square;stroke-width:2;"/>
   </g>
   <g id="line2d_39">
    <path clip-path="url(#pf241e2a29e)" d="M 263.035568 186.928677 
L 272.794533 185.108267 
L 282.553497 185.376625 
L 292.312462 185.775905 
L 302.071427 187.68695 
L 311.830391 186.570226 
L 321.589356 186.314397 
L 331.348321 184.888602 
L 341.107285 184.826214 
L 350.86625 185.573522 
L 360.625215 184.422653 
L 370.384179 184.354383 
L 380.143144 186.060659 
L 389.902109 184.813593 
L 399.661073 184.309008 
L 409.420038 183.661983 
L 419.179003 186.037806 
L 428.937967 185.687669 
L 438.696932 186.037343 
" style="fill:none;stroke:#00d4ff;stroke-linecap:square;stroke-width:2;"/>
   </g>
   <g id="line2d_40">
    <path clip-path="url(#pf241e2a29e)" d="M 263.035568 53.667322 
L 272.794533 48.137544 
L 282.553497 46.063406 
L 292.312462 45.225237 
L 302.071427 43.793726 
L 311.830391 44.564955 
L 321.589356 49.483662 
L 331.348321 52.958434 
L 341.107285 55.821583 
L 350.86625 55.688667 
L 360.625215 56.752572 
L 370.384179 54.801978 
L 380.143144 54.882694 
L 389.902109 54.58562 
L 399.661073 52.631221 
L 409.420038 51.254436 
L 419.179003 50.116593 
L 428.937967 49.77559 
L 438.696932 50.868183 
" style="fill:none;stroke:#7dff7a;stroke-linecap:square;stroke-width:2;"/>
   </g>
   <g id="line2d_41">
    <path clip-path="url(#pf241e2a29e)" d="M 263.035568 48.272634 
L 272.794533 48.80273 
L 282.553497 41.474772 
L 292.312462 37.320343 
L 302.071427 38.164423 
L 311.830391 41.990176 
L 321.589356 41.656031 
L 331.348321 41.055735 
L 341.107285 35.154013 
L 350.86625 37.085749 
L 360.625215 34.397103 
L 370.384179 34.166567 
L 380.143144 33.655336 
L 389.902109 34.433411 
L 399.661073 32.0023 
L 409.420038 33.995404 
L 419.179003 35.152553 
L 428.937967 27.297807 
L 438.696932 32.669366 
" style="fill:none;stroke:#ffe600;stroke-linecap:square;stroke-width:2;"/>
   </g>
   <g id="line2d_42">
    <path clip-path="url(#pf241e2a29e)" d="M 263.035568 195.276664 
L 272.794533 197.236318 
L 282.553497 193.659946 
L 292.312462 196.284669 
L 302.071427 195.746845 
L 311.830391 193.553548 
L 321.589356 195.846925 
L 331.348321 194.345156 
L 341.107285 192.500205 
L 350.86625 191.289522 
L 360.625215 194.762793 
L 370.384179 192.645756 
L 380.143144 191.583665 
L 389.902109 192.104552 
L 399.661073 190.35776 
L 409.420038 191.794279 
L 419.179003 194.16919 
L 428.937967 192.995165 
L 438.696932 192.13154 
" style="fill:none;stroke:#ff4700;stroke-linecap:square;stroke-width:2;"/>
   </g>
   <g id="line2d_43">
    <path clip-path="url(#pf241e2a29e)" d="M 380.143144 306.853943 
" style="fill:none;stroke:#800000;stroke-linecap:square;stroke-width:2;"/>
   </g>
   <g id="patch_8">
    <path d="M 254.2525 320.83175 
L 254.2525 13.32 
" style="fill:none;stroke:#000000;stroke-linecap:square;stroke-linejoin:miter;stroke-width:0.8;"/>
   </g>
   <g id="patch_9">
    <path d="M 447.48 320.83175 
L 447.48 13.32 
" style="fill:none;stroke:#000000;stroke-linecap:square;stroke-linejoin:miter;stroke-width:0.8;"/>
   </g>
   <g id="patch_10">
    <path d="M 254.2525 320.83175 
L 447.48 320.83175 
" style="fill:none;stroke:#000000;stroke-linecap:square;stroke-linejoin:miter;stroke-width:0.8;"/>
   </g>
   <g id="patch_11">
    <path d="M 254.2525 13.32 
L 447.48 13.32 
" style="fill:none;stroke:#000000;stroke-linecap:square;stroke-linejoin:miter;stroke-width:0.8;"/>
   </g>
  </g>
 </g>
 <defs>
  <clipPath id="p80478642c4">
   <rect height="307.51175" width="193.2275" x="31.543" y="13.32"/>
  </clipPath>
  <clipPath id="pf241e2a29e">
   <rect height="307.51175" width="193.2275" x="254.2525" y="13.32"/>
  </clipPath>
 </defs>
</svg>
