<?xml version="1.0" encoding="utf-8" standalone="no"?>
<!DOCTYPE svg PUBLIC "-//W3C//DTD SVG 1.1//EN"
  "http://www.w3.org/Graphics/SVG/1.1/DTD/svg11.dtd">
<!-- Created with matplotlib (http://matplotlib.org/) -->
<svg height="345.6pt" version="1.1" viewBox="0 0 460.8 345.6" width="460.8pt" xmlns="http://www.w3.org/2000/svg" xmlns:xlink="http://www.w3.org/1999/xlink">
 <defs>
  <style type="text/css">
*{stroke-linecap:butt;stroke-linejoin:round;}
  </style>
 </defs>
 <g id="figure_1">
  <g id="patch_1">
   <path d="M 0 345.6 
L 460.8 345.6 
L 460.8 0 
L 0 0 
z
" style="fill:#ffffff;"/>
  </g>
  <g id="axes_1">
   <g id="patch_2">
    <path d="M 31.543 320.83175 
L 223.626375 320.83175 
L 223.626375 13.32 
L 31.543 13.32 
z
" style="fill:#ffffff;"/>
   </g>
   <g id="matplotlib.axis_1">
    <g id="xtick_1">
     <g id="line2d_1">
      <defs>
       <path d="M 0 0 
L 0 3.5 
" id="mad362fe9a3" style="stroke:#000000;stroke-width:0.8;"/>
      </defs>
      <g>
       <use style="stroke:#000000;stroke-width:0.8;" x="40.274062" xlink:href="#mad362fe9a3" y="320.83175"/>
      </g>
     </g>
     <g id="text_1">
      <!-- 0 -->
      <defs>
       <path d="M 31.78125 66.40625 
Q 24.171875 66.40625 20.328125 58.90625 
Q 16.5 51.421875 16.5 36.375 
Q 16.5 21.390625 20.328125 13.890625 
Q 24.171875 6.390625 31.78125 6.390625 
Q 39.453125 6.390625 43.28125 13.890625 
Q 47.125 21.390625 47.125 36.375 
Q 47.125 51.421875 43.28125 58.90625 
Q 39.453125 66.40625 31.78125 66.40625 
z
M 31.78125 74.21875 
Q 44.046875 74.21875 50.515625 64.515625 
Q 56.984375 54.828125 56.984375 36.375 
Q 56.984375 17.96875 50.515625 8.265625 
Q 44.046875 -1.421875 31.78125 -1.421875 
Q 19.53125 -1.421875 13.0625 8.265625 
Q 6.59375 17.96875 6.59375 36.375 
Q 6.59375 54.828125 13.0625 64.515625 
Q 19.53125 74.21875 31.78125 74.21875 
z
" id="DejaVuSans-30"/>
      </defs>
      <g transform="translate(37.092813 335.430187)scale(0.1 -0.1)">
       <use xlink:href="#DejaVuSans-30"/>
      </g>
     </g>
    </g>
    <g id="xtick_2">
     <g id="line2d_2">
      <g>
       <use style="stroke:#000000;stroke-width:0.8;" x="86.227023" xlink:href="#mad362fe9a3" y="320.83175"/>
      </g>
     </g>
     <g id="text_2">
      <!-- 5 -->
      <defs>
       <path d="M 10.796875 72.90625 
L 49.515625 72.90625 
L 49.515625 64.59375 
L 19.828125 64.59375 
L 19.828125 46.734375 
Q 21.96875 47.46875 24.109375 47.828125 
Q 26.265625 48.1875 28.421875 48.1875 
Q 40.625 48.1875 47.75 41.5 
Q 54.890625 34.8125 54.890625 23.390625 
Q 54.890625 11.625 47.5625 5.09375 
Q 40.234375 -1.421875 26.90625 -1.421875 
Q 22.3125 -1.421875 17.546875 -0.640625 
Q 12.796875 0.140625 7.71875 1.703125 
L 7.71875 11.625 
Q 12.109375 9.234375 16.796875 8.0625 
Q 21.484375 6.890625 26.703125 6.890625 
Q 35.15625 6.890625 40.078125 11.328125 
Q 45.015625 15.765625 45.015625 23.390625 
Q 45.015625 31 40.078125 35.4375 
Q 35.15625 39.890625 26.703125 39.890625 
Q 22.75 39.890625 18.8125 39.015625 
Q 14.890625 38.140625 10.796875 36.28125 
z
" id="DejaVuSans-35"/>
      </defs>
      <g transform="translate(83.045773 335.430187)scale(0.1 -0.1)">
       <use xlink:href="#DejaVuSans-35"/>
      </g>
     </g>
    </g>
    <g id="xtick_3">
     <g id="line2d_3">
      <g>
       <use style="stroke:#000000;stroke-width:0.8;" x="132.179984" xlink:href="#mad362fe9a3" y="320.83175"/>
      </g>
     </g>
     <g id="text_3">
      <!-- 10 -->
      <defs>
       <path d="M 12.40625 8.296875 
L 28.515625 8.296875 
L 28.515625 63.921875 
L 10.984375 60.40625 
L 10.984375 69.390625 
L 28.421875 72.90625 
L 38.28125 72.90625 
L 38.28125 8.296875 
L 54.390625 8.296875 
L 54.390625 0 
L 12.40625 0 
z
" id="DejaVuSans-31"/>
      </defs>
      <g transform="translate(125.817484 335.430187)scale(0.1 -0.1)">
       <use xlink:href="#DejaVuSans-31"/>
       <use x="63.623047" xlink:href="#DejaVuSans-30"/>
      </g>
     </g>
    </g>
    <g id="xtick_4">
     <g id="line2d_4">
      <g>
       <use style="stroke:#000000;stroke-width:0.8;" x="178.132944" xlink:href="#mad362fe9a3" y="320.83175"/>
      </g>
     </g>
     <g id="text_4">
      <!-- 15 -->
      <g transform="translate(171.770444 335.430187)scale(0.1 -0.1)">
       <use xlink:href="#DejaVuSans-31"/>
       <use x="63.623047" xlink:href="#DejaVuSans-35"/>
      </g>
     </g>
    </g>
    <g id="xtick_5">
     <g id="line2d_5">
      <g>
       <use style="stroke:#000000;stroke-width:0.8;" x="224.085905" xlink:href="#mad362fe9a3" y="320.83175"/>
      </g>
     </g>
     <g id="text_5">
      <!-- 20 -->
      <defs>
       <path d="M 19.1875 8.296875 
L 53.609375 8.296875 
L 53.609375 0 
L 7.328125 0 
L 7.328125 8.296875 
Q 12.9375 14.109375 22.625 23.890625 
Q 32.328125 33.6875 34.8125 36.53125 
Q 39.546875 41.84375 41.421875 45.53125 
Q 43.3125 49.21875 43.3125 52.78125 
Q 43.3125 58.59375 39.234375 62.25 
Q 35.15625 65.921875 28.609375 65.921875 
Q 23.96875 65.921875 18.8125 64.3125 
Q 13.671875 62.703125 7.8125 59.421875 
L 7.8125 69.390625 
Q 13.765625 71.78125 18.9375 73 
Q 24.125 74.21875 28.421875 74.21875 
Q 39.75 74.21875 46.484375 68.546875 
Q 53.21875 62.890625 53.21875 53.421875 
Q 53.21875 48.921875 51.53125 44.890625 
Q 49.859375 40.875 45.40625 35.40625 
Q 44.1875 33.984375 37.640625 27.21875 
Q 31.109375 20.453125 19.1875 8.296875 
z
" id="DejaVuSans-32"/>
      </defs>
      <g transform="translate(217.723405 335.430187)scale(0.1 -0.1)">
       <use xlink:href="#DejaVuSans-32"/>
       <use x="63.623047" xlink:href="#DejaVuSans-30"/>
      </g>
     </g>
    </g>
   </g>
   <g id="matplotlib.axis_2">
    <g id="ytick_1">
     <g id="line2d_6">
      <defs>
       <path d="M 0 0 
L -3.5 0 
" id="m37eb3ea16e" style="stroke:#000000;stroke-width:0.8;"/>
      </defs>
      <g>
       <use style="stroke:#000000;stroke-width:0.8;" x="31.543" xlink:href="#m37eb3ea16e" y="315.604851"/>
      </g>
     </g>
     <g id="text_6">
      <!-- 50 -->
      <g transform="translate(11.818 319.40407)scale(0.1 -0.1)">
       <use xlink:href="#DejaVuSans-35"/>
       <use x="63.623047" xlink:href="#DejaVuSans-30"/>
      </g>
     </g>
    </g>
    <g id="ytick_2">
     <g id="line2d_7">
      <g>
       <use style="stroke:#000000;stroke-width:0.8;" x="31.543" xlink:href="#m37eb3ea16e" y="265.464804"/>
      </g>
     </g>
     <g id="text_7">
      <!-- 100 -->
      <g transform="translate(5.4555 269.264023)scale(0.1 -0.1)">
       <use xlink:href="#DejaVuSans-31"/>
       <use x="63.623047" xlink:href="#DejaVuSans-30"/>
       <use x="127.246094" xlink:href="#DejaVuSans-30"/>
      </g>
     </g>
    </g>
    <g id="ytick_3">
     <g id="line2d_8">
      <g>
       <use style="stroke:#000000;stroke-width:0.8;" x="31.543" xlink:href="#m37eb3ea16e" y="215.324757"/>
      </g>
     </g>
     <g id="text_8">
      <!-- 150 -->
      <g transform="translate(5.4555 219.123975)scale(0.1 -0.1)">
       <use xlink:href="#DejaVuSans-31"/>
       <use x="63.623047" xlink:href="#DejaVuSans-35"/>
       <use x="127.246094" xlink:href="#DejaVuSans-30"/>
      </g>
     </g>
    </g>
    <g id="ytick_4">
     <g id="line2d_9">
      <g>
       <use style="stroke:#000000;stroke-width:0.8;" x="31.543" xlink:href="#m37eb3ea16e" y="165.184709"/>
      </g>
     </g>
     <g id="text_9">
      <!-- 200 -->
      <g transform="translate(5.4555 168.983928)scale(0.1 -0.1)">
       <use xlink:href="#DejaVuSans-32"/>
       <use x="63.623047" xlink:href="#DejaVuSans-30"/>
       <use x="127.246094" xlink:href="#DejaVuSans-30"/>
      </g>
     </g>
    </g>
    <g id="ytick_5">
     <g id="line2d_10">
      <g>
       <use style="stroke:#000000;stroke-width:0.8;" x="31.543" xlink:href="#m37eb3ea16e" y="115.044662"/>
      </g>
     </g>
     <g id="text_10">
      <!-- 250 -->
      <g transform="translate(5.4555 118.843881)scale(0.1 -0.1)">
       <use xlink:href="#DejaVuSans-32"/>
       <use x="63.623047" xlink:href="#DejaVuSans-35"/>
       <use x="127.246094" xlink:href="#DejaVuSans-30"/>
      </g>
     </g>
    </g>
    <g id="ytick_6">
     <g id="line2d_11">
      <g>
       <use style="stroke:#000000;stroke-width:0.8;" x="31.543" xlink:href="#m37eb3ea16e" y="64.904615"/>
      </g>
     </g>
     <g id="text_11">
      <!-- 300 -->
      <defs>
       <path d="M 40.578125 39.3125 
Q 47.65625 37.796875 51.625 33 
Q 55.609375 28.21875 55.609375 21.1875 
Q 55.609375 10.40625 48.1875 4.484375 
Q 40.765625 -1.421875 27.09375 -1.421875 
Q 22.515625 -1.421875 17.65625 -0.515625 
Q 12.796875 0.390625 7.625 2.203125 
L 7.625 11.71875 
Q 11.71875 9.328125 16.59375 8.109375 
Q 21.484375 6.890625 26.8125 6.890625 
Q 36.078125 6.890625 40.9375 10.546875 
Q 45.796875 14.203125 45.796875 21.1875 
Q 45.796875 27.640625 41.28125 31.265625 
Q 36.765625 34.90625 28.71875 34.90625 
L 20.21875 34.90625 
L 20.21875 43.015625 
L 29.109375 43.015625 
Q 36.375 43.015625 40.234375 45.921875 
Q 44.09375 48.828125 44.09375 54.296875 
Q 44.09375 59.90625 40.109375 62.90625 
Q 36.140625 65.921875 28.71875 65.921875 
Q 24.65625 65.921875 20.015625 65.03125 
Q 15.375 64.15625 9.8125 62.3125 
L 9.8125 71.09375 
Q 15.4375 72.65625 20.34375 73.4375 
Q 25.25 74.21875 29.59375 74.21875 
Q 40.828125 74.21875 47.359375 69.109375 
Q 53.90625 64.015625 53.90625 55.328125 
Q 53.90625 49.265625 50.4375 45.09375 
Q 46.96875 40.921875 40.578125 39.3125 
z
" id="DejaVuSans-33"/>
      </defs>
      <g transform="translate(5.4555 68.703833)scale(0.1 -0.1)">
       <use xlink:href="#DejaVuSans-33"/>
       <use x="63.623047" xlink:href="#DejaVuSans-30"/>
       <use x="127.246094" xlink:href="#DejaVuSans-30"/>
      </g>
     </g>
    </g>
    <g id="ytick_7">
     <g id="line2d_12">
      <g>
       <use style="stroke:#000000;stroke-width:0.8;" x="31.543" xlink:href="#m37eb3ea16e" y="14.764567"/>
      </g>
     </g>
     <g id="text_12">
      <!-- 350 -->
      <g transform="translate(5.4555 18.563786)scale(0.1 -0.1)">
       <use xlink:href="#DejaVuSans-33"/>
       <use x="63.623047" xlink:href="#DejaVuSans-35"/>
       <use x="127.246094" xlink:href="#DejaVuSans-30"/>
      </g>
     </g>
    </g>
   </g>
   <g id="line2d_13">
    <path clip-path="url(#p926e24293b)" d="M 40.274062 204.043458 
L 49.464655 214.759016 
L 58.655247 224.139493 
L 67.845839 225.169861 
L 77.036431 229.574133 
L 86.227023 226.938931 
L 95.417615 228.029266 
L 104.608207 222.500286 
L 113.798799 223.210527 
L 122.989391 221.77072 
L 132.179984 219.236928 
L 141.370576 219.115915 
L 150.561168 215.599582 
L 159.75176 218.35631 
L 168.942352 218.968913 
L 178.132944 220.812079 
L 187.323536 222.287866 
L 196.514128 221.110508 
L 205.70472 220.683761 
L 214.895312 222.022062 
" style="fill:none;stroke:#000080;stroke-linecap:square;stroke-width:2;"/>
   </g>
   <g id="line2d_14">
    <path clip-path="url(#p926e24293b)" d="M 40.274062 221.440614 
L 49.464655 221.440614 
L 58.655247 221.440614 
L 67.845839 221.440614 
L 77.036431 221.440614 
L 86.227023 221.440614 
L 95.417615 221.440614 
L 104.608207 221.440614 
L 113.798799 221.440614 
L 122.989391 221.440614 
L 132.179984 221.440614 
L 141.370576 221.440614 
L 150.561168 221.440614 
L 159.75176 221.440614 
L 168.942352 221.440614 
L 178.132944 221.440614 
L 187.323536 221.440614 
L 196.514128 221.440614 
L 205.70472 221.440614 
L 214.895312 221.440614 
" style="fill:none;stroke:#000080;stroke-linecap:square;stroke-width:2;"/>
   </g>
   <g id="line2d_15">
    <path clip-path="url(#p926e24293b)" d="M 40.274062 133.198848 
L 49.464655 133.436176 
L 58.655247 133.226881 
L 67.845839 133.164701 
L 77.036431 132.902643 
L 86.227023 132.943915 
L 95.417615 132.499449 
L 104.608207 132.424249 
L 113.798799 132.576396 
L 122.989391 133.018085 
L 132.179984 132.852094 
L 141.370576 133.289169 
L 150.561168 133.126207 
L 159.75176 132.456237 
L 168.942352 131.470184 
L 178.132944 131.837587 
L 187.323536 131.855667 
L 196.514128 131.204202 
L 205.70472 131.79735 
L 214.895312 132.442814 
" style="fill:none;stroke:#00d4ff;stroke-linecap:square;stroke-width:2;"/>
   </g>
   <g id="line2d_16">
    <path clip-path="url(#p926e24293b)" d="M 40.274062 132.714245 
L 49.464655 132.714245 
L 58.655247 132.714245 
L 67.845839 132.714245 
L 77.036431 132.714245 
L 86.227023 132.714245 
L 95.417615 132.714245 
L 104.608207 132.714245 
L 113.798799 132.714245 
L 122.989391 132.714245 
L 132.179984 132.714245 
L 141.370576 132.714245 
L 150.561168 132.714245 
L 159.75176 132.714245 
L 168.942352 132.714245 
L 178.132944 132.714245 
L 187.323536 132.714245 
L 196.514128 132.714245 
L 205.70472 132.714245 
L 214.895312 132.714245 
" style="fill:none;stroke:#00d4ff;stroke-linecap:square;stroke-width:2;"/>
   </g>
   <g id="line2d_17">
    <path clip-path="url(#p926e24293b)" d="M 40.274062 306.05556 
L 49.464655 306.518461 
L 58.655247 306.763886 
L 67.845839 306.853943 
L 77.036431 306.513921 
L 86.227023 306.36516 
L 95.417615 305.788256 
L 104.608207 305.44946 
L 113.798799 305.877544 
L 122.989391 305.785608 
L 132.179984 305.700224 
L 141.370576 305.806228 
L 150.561168 306.268122 
L 159.75176 306.227483 
L 168.942352 305.777146 
L 178.132944 306.279455 
L 187.323536 306.663749 
L 196.514128 305.709472 
L 205.70472 305.562259 
L 214.895312 306.187065 
" style="fill:none;stroke:#ffe600;stroke-linecap:square;stroke-width:2;"/>
   </g>
   <g id="line2d_18">
    <path clip-path="url(#p926e24293b)" d="M 40.274062 306.121312 
L 49.464655 306.121312 
L 58.655247 306.121312 
L 67.845839 306.121312 
L 77.036431 306.121312 
L 86.227023 306.121312 
L 95.417615 306.121312 
L 104.608207 306.121312 
L 113.798799 306.121312 
L 122.989391 306.121312 
L 132.179984 306.121312 
L 141.370576 306.121312 
L 150.561168 306.121312 
L 159.75176 306.121312 
L 168.942352 306.121312 
L 178.132944 306.121312 
L 187.323536 306.121312 
L 196.514128 306.121312 
L 205.70472 306.121312 
L 214.895312 306.121312 
" style="fill:none;stroke:#ffe600;stroke-linecap:square;stroke-width:2;"/>
   </g>
   <g id="line2d_19">
    <path clip-path="url(#p926e24293b)" d="M 40.274062 48.399167 
L 49.464655 44.082515 
L 58.655247 41.204609 
L 67.845839 40.558499 
L 77.036431 40.81838 
L 86.227023 40.685122 
L 95.417615 39.41341 
L 104.608207 42.081486 
L 113.798799 42.534953 
L 122.989391 42.118369 
L 132.179984 40.339115 
L 141.370576 39.059906 
L 150.561168 37.190873 
L 159.75176 35.906888 
L 168.942352 33.48551 
L 178.132944 32.510212 
L 187.323536 30.291016 
L 196.514128 27.59459 
L 205.70472 27.297807 
L 214.895312 28.851558 
" style="fill:none;stroke:#800000;stroke-linecap:square;stroke-width:2;"/>
   </g>
   <g id="line2d_20">
    <path clip-path="url(#p926e24293b)" d="M 40.274062 39.876263 
L 49.464655 39.876263 
L 58.655247 39.876263 
L 67.845839 39.876263 
L 77.036431 39.876263 
L 86.227023 39.876263 
L 95.417615 39.876263 
L 104.608207 39.876263 
L 113.798799 39.876263 
L 122.989391 39.876263 
L 132.179984 39.876263 
L 141.370576 39.876263 
L 150.561168 39.876263 
L 159.75176 39.876263 
L 168.942352 39.876263 
L 178.132944 39.876263 
L 187.323536 39.876263 
L 196.514128 39.876263 
L 205.70472 39.876263 
L 214.895312 39.876263 
" style="fill:none;stroke:#800000;stroke-linecap:square;stroke-width:2;"/>
   </g>
   <g id="patch_3">
    <path d="M 31.543 320.83175 
L 31.543 13.32 
" style="fill:none;stroke:#000000;stroke-linecap:square;stroke-linejoin:miter;stroke-width:0.8;"/>
   </g>
   <g id="patch_4">
    <path d="M 223.626375 320.83175 
L 223.626375 13.32 
" style="fill:none;stroke:#000000;stroke-linecap:square;stroke-linejoin:miter;stroke-width:0.8;"/>
   </g>
   <g id="patch_5">
    <path d="M 31.543 320.83175 
L 223.626375 320.83175 
" style="fill:none;stroke:#000000;stroke-linecap:square;stroke-linejoin:miter;stroke-width:0.8;"/>
   </g>
   <g id="patch_6">
    <path d="M 31.543 13.32 
L 223.626375 13.32 
" style="fill:none;stroke:#000000;stroke-linecap:square;stroke-linejoin:miter;stroke-width:0.8;"/>
   </g>
  </g>
  <g id="axes_2">
   <g id="patch_7">
    <path d="M 255.396625 320.83175 
L 447.48 320.83175 
L 447.48 13.32 
L 255.396625 13.32 
z
" style="fill:#ffffff;"/>
   </g>
   <g id="matplotlib.axis_3">
    <g id="xtick_6">
     <g id="line2d_21">
      <g>
       <use style="stroke:#000000;stroke-width:0.8;" x="264.127687" xlink:href="#mad362fe9a3" y="320.83175"/>
      </g>
     </g>
     <g id="text_13">
      <!-- 0 -->
      <g transform="translate(260.946438 335.430187)scale(0.1 -0.1)">
       <use xlink:href="#DejaVuSans-30"/>
      </g>
     </g>
    </g>
    <g id="xtick_7">
     <g id="line2d_22">
      <g>
       <use style="stroke:#000000;stroke-width:0.8;" x="310.080648" xlink:href="#mad362fe9a3" y="320.83175"/>
      </g>
     </g>
     <g id="text_14">
      <!-- 5 -->
      <g transform="translate(306.899398 335.430187)scale(0.1 -0.1)">
       <use xlink:href="#DejaVuSans-35"/>
      </g>
     </g>
    </g>
    <g id="xtick_8">
     <g id="line2d_23">
      <g>
       <use style="stroke:#000000;stroke-width:0.8;" x="356.033609" xlink:href="#mad362fe9a3" y="320.83175"/>
      </g>
     </g>
     <g id="text_15">
      <!-- 10 -->
      <g transform="translate(349.671109 335.430187)scale(0.1 -0.1)">
       <use xlink:href="#DejaVuSans-31"/>
       <use x="63.623047" xlink:href="#DejaVuSans-30"/>
      </g>
     </g>
    </g>
    <g id="xtick_9">
     <g id="line2d_24">
      <g>
       <use style="stroke:#000000;stroke-width:0.8;" x="401.986569" xlink:href="#mad362fe9a3" y="320.83175"/>
      </g>
     </g>
     <g id="text_16">
      <!-- 15 -->
      <g transform="translate(395.624069 335.430187)scale(0.1 -0.1)">
       <use xlink:href="#DejaVuSans-31"/>
       <use x="63.623047" xlink:href="#DejaVuSans-35"/>
      </g>
     </g>
    </g>
    <g id="xtick_10">
     <g id="line2d_25">
      <g>
       <use style="stroke:#000000;stroke-width:0.8;" x="447.93953" xlink:href="#mad362fe9a3" y="320.83175"/>
      </g>
     </g>
     <g id="text_17">
      <!-- 20 -->
      <g transform="translate(441.57703 335.430187)scale(0.1 -0.1)">
       <use xlink:href="#DejaVuSans-32"/>
       <use x="63.623047" xlink:href="#DejaVuSans-30"/>
      </g>
     </g>
    </g>
   </g>
   <g id="matplotlib.axis_4">
    <g id="ytick_8">
     <g id="line2d_26">
      <g>
       <use style="stroke:#000000;stroke-width:0.8;" x="255.396625" xlink:href="#m37eb3ea16e" y="283.910148"/>
      </g>
     </g>
     <g id="text_18">
      <!-- 0.3 -->
      <defs>
       <path d="M 10.6875 12.40625 
L 21 12.40625 
L 21 0 
L 10.6875 0 
z
" id="DejaVuSans-2e"/>
      </defs>
      <g transform="translate(232.4935 287.709367)scale(0.1 -0.1)">
       <use xlink:href="#DejaVuSans-30"/>
       <use x="63.623047" xlink:href="#DejaVuSans-2e"/>
       <use x="95.410156" xlink:href="#DejaVuSans-33"/>
      </g>
     </g>
    </g>
    <g id="ytick_9">
     <g id="line2d_27">
      <g>
       <use style="stroke:#000000;stroke-width:0.8;" x="255.396625" xlink:href="#m37eb3ea16e" y="235.47596"/>
      </g>
     </g>
     <g id="text_19">
      <!-- 0.4 -->
      <defs>
       <path d="M 37.796875 64.3125 
L 12.890625 25.390625 
L 37.796875 25.390625 
z
M 35.203125 72.90625 
L 47.609375 72.90625 
L 47.609375 25.390625 
L 58.015625 25.390625 
L 58.015625 17.1875 
L 47.609375 17.1875 
L 47.609375 0 
L 37.796875 0 
L 37.796875 17.1875 
L 4.890625 17.1875 
L 4.890625 26.703125 
z
" id="DejaVuSans-34"/>
      </defs>
      <g transform="translate(232.4935 239.275179)scale(0.1 -0.1)">
       <use xlink:href="#DejaVuSans-30"/>
       <use x="63.623047" xlink:href="#DejaVuSans-2e"/>
       <use x="95.410156" xlink:href="#DejaVuSans-34"/>
      </g>
     </g>
    </g>
    <g id="ytick_10">
     <g id="line2d_28">
      <g>
       <use style="stroke:#000000;stroke-width:0.8;" x="255.396625" xlink:href="#m37eb3ea16e" y="187.041771"/>
      </g>
     </g>
     <g id="text_20">
      <!-- 0.5 -->
      <g transform="translate(232.4935 190.84099)scale(0.1 -0.1)">
       <use xlink:href="#DejaVuSans-30"/>
       <use x="63.623047" xlink:href="#DejaVuSans-2e"/>
       <use x="95.410156" xlink:href="#DejaVuSans-35"/>
      </g>
     </g>
    </g>
    <g id="ytick_11">
     <g id="line2d_29">
      <g>
       <use style="stroke:#000000;stroke-width:0.8;" x="255.396625" xlink:href="#m37eb3ea16e" y="138.607583"/>
      </g>
     </g>
     <g id="text_21">
      <!-- 0.6 -->
      <defs>
       <path d="M 33.015625 40.375 
Q 26.375 40.375 22.484375 35.828125 
Q 18.609375 31.296875 18.609375 23.390625 
Q 18.609375 15.53125 22.484375 10.953125 
Q 26.375 6.390625 33.015625 6.390625 
Q 39.65625 6.390625 43.53125 10.953125 
Q 47.40625 15.53125 47.40625 23.390625 
Q 47.40625 31.296875 43.53125 35.828125 
Q 39.65625 40.375 33.015625 40.375 
z
M 52.59375 71.296875 
L 52.59375 62.3125 
Q 48.875 64.0625 45.09375 64.984375 
Q 41.3125 65.921875 37.59375 65.921875 
Q 27.828125 65.921875 22.671875 59.328125 
Q 17.53125 52.734375 16.796875 39.40625 
Q 19.671875 43.65625 24.015625 45.921875 
Q 28.375 48.1875 33.59375 48.1875 
Q 44.578125 48.1875 50.953125 41.515625 
Q 57.328125 34.859375 57.328125 23.390625 
Q 57.328125 12.15625 50.6875 5.359375 
Q 44.046875 -1.421875 33.015625 -1.421875 
Q 20.359375 -1.421875 13.671875 8.265625 
Q 6.984375 17.96875 6.984375 36.375 
Q 6.984375 53.65625 15.1875 63.9375 
Q 23.390625 74.21875 37.203125 74.21875 
Q 40.921875 74.21875 44.703125 73.484375 
Q 48.484375 72.75 52.59375 71.296875 
z
" id="DejaVuSans-36"/>
      </defs>
      <g transform="translate(232.4935 142.406802)scale(0.1 -0.1)">
       <use xlink:href="#DejaVuSans-30"/>
       <use x="63.623047" xlink:href="#DejaVuSans-2e"/>
       <use x="95.410156" xlink:href="#DejaVuSans-36"/>
      </g>
     </g>
    </g>
    <g id="ytick_12">
     <g id="line2d_30">
      <g>
       <use style="stroke:#000000;stroke-width:0.8;" x="255.396625" xlink:href="#m37eb3ea16e" y="90.173394"/>
      </g>
     </g>
     <g id="text_22">
      <!-- 0.7 -->
      <defs>
       <path d="M 8.203125 72.90625 
L 55.078125 72.90625 
L 55.078125 68.703125 
L 28.609375 0 
L 18.3125 0 
L 43.21875 64.59375 
L 8.203125 64.59375 
z
" id="DejaVuSans-37"/>
      </defs>
      <g transform="translate(232.4935 93.972613)scale(0.1 -0.1)">
       <use xlink:href="#DejaVuSans-30"/>
       <use x="63.623047" xlink:href="#DejaVuSans-2e"/>
       <use x="95.410156" xlink:href="#DejaVuSans-37"/>
      </g>
     </g>
    </g>
    <g id="ytick_13">
     <g id="line2d_31">
      <g>
       <use style="stroke:#000000;stroke-width:0.8;" x="255.396625" xlink:href="#m37eb3ea16e" y="41.739206"/>
      </g>
     </g>
     <g id="text_23">
      <!-- 0.8 -->
      <defs>
       <path d="M 31.78125 34.625 
Q 24.75 34.625 20.71875 30.859375 
Q 16.703125 27.09375 16.703125 20.515625 
Q 16.703125 13.921875 20.71875 10.15625 
Q 24.75 6.390625 31.78125 6.390625 
Q 38.8125 6.390625 42.859375 10.171875 
Q 46.921875 13.96875 46.921875 20.515625 
Q 46.921875 27.09375 42.890625 30.859375 
Q 38.875 34.625 31.78125 34.625 
z
M 21.921875 38.8125 
Q 15.578125 40.375 12.03125 44.71875 
Q 8.5 49.078125 8.5 55.328125 
Q 8.5 64.0625 14.71875 69.140625 
Q 20.953125 74.21875 31.78125 74.21875 
Q 42.671875 74.21875 48.875 69.140625 
Q 55.078125 64.0625 55.078125 55.328125 
Q 55.078125 49.078125 51.53125 44.71875 
Q 48 40.375 41.703125 38.8125 
Q 48.828125 37.15625 52.796875 32.3125 
Q 56.78125 27.484375 56.78125 20.515625 
Q 56.78125 9.90625 50.3125 4.234375 
Q 43.84375 -1.421875 31.78125 -1.421875 
Q 19.734375 -1.421875 13.25 4.234375 
Q 6.78125 9.90625 6.78125 20.515625 
Q 6.78125 27.484375 10.78125 32.3125 
Q 14.796875 37.15625 21.921875 38.8125 
z
M 18.3125 54.390625 
Q 18.3125 48.734375 21.84375 45.5625 
Q 25.390625 42.390625 31.78125 42.390625 
Q 38.140625 42.390625 41.71875 45.5625 
Q 45.3125 48.734375 45.3125 54.390625 
Q 45.3125 60.0625 41.71875 63.234375 
Q 38.140625 66.40625 31.78125 66.40625 
Q 25.390625 66.40625 21.84375 63.234375 
Q 18.3125 60.0625 18.3125 54.390625 
z
" id="DejaVuSans-38"/>
      </defs>
      <g transform="translate(232.4935 45.538424)scale(0.1 -0.1)">
       <use xlink:href="#DejaVuSans-30"/>
       <use x="63.623047" xlink:href="#DejaVuSans-2e"/>
       <use x="95.410156" xlink:href="#DejaVuSans-38"/>
      </g>
     </g>
    </g>
   </g>
   <g id="line2d_32">
    <path clip-path="url(#p6963e70019)" d="M 264.127687 306.853779 
L 273.31828 298.356778 
L 282.508872 306.853928 
L 291.699464 306.853921 
L 300.890056 306.853943 
L 310.080648 306.853943 
L 319.27124 298.356808 
L 328.461832 278.813422 
L 337.652424 278.813391 
L 346.843016 257.570551 
L 356.033609 249.498271 
L 365.224201 247.798858 
L 374.414793 235.478009 
L 383.605385 276.689119 
L 392.795977 216.35943 
L 401.986569 199.365098 
L 411.177161 185.769738 
L 420.367753 179.821768 
L 429.558345 181.946098 
L 438.748937 180.246704 
" style="fill:none;stroke:#000080;stroke-linecap:square;stroke-width:2;"/>
   </g>
   <g id="line2d_33">
    <path clip-path="url(#p6963e70019)" d="M 264.127687 121.191588 
L 273.31828 93.575953 
L 282.508872 70.633645 
L 291.699464 58.737674 
L 300.890056 57.038275 
L 310.080648 59.162553 
L 319.27124 58.312843 
L 328.461832 56.613431 
L 337.652424 51.515136 
L 346.843016 48.116266 
L 356.033609 51.515157 
L 365.224201 40.89372 
L 374.414793 38.344575 
L 383.605385 34.095979 
L 392.795977 32.821355 
L 401.986569 34.520732 
L 411.177161 32.396464 
L 420.367753 29.422512 
L 429.558345 30.697118 
L 438.748937 37.919772 
" style="fill:none;stroke:#00d4ff;stroke-linecap:square;stroke-width:2;"/>
   </g>
   <g id="line2d_34">
    <path clip-path="url(#p6963e70019)" d="M 264.127687 47.690726 
L 273.31828 56.188005 
L 282.508872 50.664753 
L 291.699464 56.187862 
L 300.890056 48.11548 
L 310.080648 44.716744 
L 319.27124 48.540616 
L 328.461832 46.416174 
L 337.652424 37.918989 
L 346.843016 40.893058 
L 356.033609 37.069284 
L 365.224201 37.919027 
L 374.414793 35.369954 
L 383.605385 31.546244 
L 392.795977 32.820947 
L 401.986569 27.297807 
L 411.177161 29.422058 
L 420.367753 28.572486 
L 429.558345 29.422215 
L 438.748937 34.945414 
" style="fill:none;stroke:#ffe600;stroke-linecap:square;stroke-width:2;"/>
   </g>
   <g id="line2d_35">
    <path clip-path="url(#p6963e70019)" d="M 264.127687 306.853444 
L 273.31828 306.853503 
L 282.508872 281.786806 
L 291.699464 280.937396 
L 300.890056 280.937457 
L 310.080648 306.853901 
L 319.27124 306.853921 
L 328.461832 280.51284 
L 337.652424 272.865385 
L 346.843016 280.512813 
L 356.033609 263.093695 
L 365.224201 250.347988 
L 374.414793 245.249698 
L 383.605385 214.659943 
L 392.795977 203.188822 
L 401.986569 186.194538 
L 411.177161 179.821698 
L 420.367753 161.977745 
L 429.558345 159.853514 
L 438.748937 149.232135 
" style="fill:none;stroke:#800000;stroke-linecap:square;stroke-width:2;"/>
   </g>
   <g id="patch_8">
    <path d="M 255.396625 320.83175 
L 255.396625 13.32 
" style="fill:none;stroke:#000000;stroke-linecap:square;stroke-linejoin:miter;stroke-width:0.8;"/>
   </g>
   <g id="patch_9">
    <path d="M 447.48 320.83175 
L 447.48 13.32 
" style="fill:none;stroke:#000000;stroke-linecap:square;stroke-linejoin:miter;stroke-width:0.8;"/>
   </g>
   <g id="patch_10">
    <path d="M 255.396625 320.83175 
L 447.48 320.83175 
" style="fill:none;stroke:#000000;stroke-linecap:square;stroke-linejoin:miter;stroke-width:0.8;"/>
   </g>
   <g id="patch_11">
    <path d="M 255.396625 13.32 
L 447.48 13.32 
" style="fill:none;stroke:#000000;stroke-linecap:square;stroke-linejoin:miter;stroke-width:0.8;"/>
   </g>
  </g>
 </g>
 <defs>
  <clipPath id="p926e24293b">
   <rect height="307.51175" width="192.083375" x="31.543" y="13.32"/>
  </clipPath>
  <clipPath id="p6963e70019">
   <rect height="307.51175" width="192.083375" x="255.396625" y="13.32"/>
  </clipPath>
 </defs>
</svg>
