<?xml version="1.0" encoding="utf-8" standalone="no"?>
<!DOCTYPE svg PUBLIC "-//W3C//DTD SVG 1.1//EN"
  "http://www.w3.org/Graphics/SVG/1.1/DTD/svg11.dtd">
<!-- Created with matplotlib (http://matplotlib.org/) -->
<svg height="345.6pt" version="1.1" viewBox="0 0 460.8 345.6" width="460.8pt" xmlns="http://www.w3.org/2000/svg" xmlns:xlink="http://www.w3.org/1999/xlink">
 <defs>
  <style type="text/css">
*{stroke-linecap:butt;stroke-linejoin:round;}
  </style>
 </defs>
 <g id="figure_1">
  <g id="patch_1">
   <path d="M 0 345.6 
L 460.8 345.6 
L 460.8 0 
L 0 0 
z
" style="fill:#ffffff;"/>
  </g>
  <g id="axes_1">
   <g id="patch_2">
    <path d="M 44.555375 309.8635 
L 447.48 309.8635 
L 447.48 13.535438 
L 44.555375 13.535438 
z
" style="fill:#ffffff;"/>
   </g>
   <g id="matplotlib.axis_1">
    <g id="xtick_1">
     <g id="line2d_1">
      <defs>
       <path d="M 0 0 
L 0 3.5 
" id="m88f4a2975f" style="stroke:#000000;stroke-width:0.8;"/>
      </defs>
      <g>
       <use style="stroke:#000000;stroke-width:0.8;" x="99.883351" xlink:href="#m88f4a2975f" y="309.8635"/>
      </g>
     </g>
     <g id="text_1">
      <!-- 14 -->
      <defs>
       <path d="M 12.40625 8.296875 
L 28.515625 8.296875 
L 28.515625 63.921875 
L 10.984375 60.40625 
L 10.984375 69.390625 
L 28.421875 72.90625 
L 38.28125 72.90625 
L 38.28125 8.296875 
L 54.390625 8.296875 
L 54.390625 0 
L 12.40625 0 
z
" id="DejaVuSans-31"/>
       <path d="M 37.796875 64.3125 
L 12.890625 25.390625 
L 37.796875 25.390625 
z
M 35.203125 72.90625 
L 47.609375 72.90625 
L 47.609375 25.390625 
L 58.015625 25.390625 
L 58.015625 17.1875 
L 47.609375 17.1875 
L 47.609375 0 
L 37.796875 0 
L 37.796875 17.1875 
L 4.890625 17.1875 
L 4.890625 26.703125 
z
" id="DejaVuSans-34"/>
      </defs>
      <g transform="translate(93.520851 324.461937)scale(0.1 -0.1)">
       <use xlink:href="#DejaVuSans-31"/>
       <use x="63.623047" xlink:href="#DejaVuSans-34"/>
      </g>
     </g>
    </g>
    <g id="xtick_2">
     <g id="line2d_2">
      <g>
       <use style="stroke:#000000;stroke-width:0.8;" x="168.842125" xlink:href="#m88f4a2975f" y="309.8635"/>
      </g>
     </g>
     <g id="text_2">
      <!-- 16 -->
      <defs>
       <path d="M 33.015625 40.375 
Q 26.375 40.375 22.484375 35.828125 
Q 18.609375 31.296875 18.609375 23.390625 
Q 18.609375 15.53125 22.484375 10.953125 
Q 26.375 6.390625 33.015625 6.390625 
Q 39.65625 6.390625 43.53125 10.953125 
Q 47.40625 15.53125 47.40625 23.390625 
Q 47.40625 31.296875 43.53125 35.828125 
Q 39.65625 40.375 33.015625 40.375 
z
M 52.59375 71.296875 
L 52.59375 62.3125 
Q 48.875 64.0625 45.09375 64.984375 
Q 41.3125 65.921875 37.59375 65.921875 
Q 27.828125 65.921875 22.671875 59.328125 
Q 17.53125 52.734375 16.796875 39.40625 
Q 19.671875 43.65625 24.015625 45.921875 
Q 28.375 48.1875 33.59375 48.1875 
Q 44.578125 48.1875 50.953125 41.515625 
Q 57.328125 34.859375 57.328125 23.390625 
Q 57.328125 12.15625 50.6875 5.359375 
Q 44.046875 -1.421875 33.015625 -1.421875 
Q 20.359375 -1.421875 13.671875 8.265625 
Q 6.984375 17.96875 6.984375 36.375 
Q 6.984375 53.65625 15.1875 63.9375 
Q 23.390625 74.21875 37.203125 74.21875 
Q 40.921875 74.21875 44.703125 73.484375 
Q 48.484375 72.75 52.59375 71.296875 
z
" id="DejaVuSans-36"/>
      </defs>
      <g transform="translate(162.479625 324.461937)scale(0.1 -0.1)">
       <use xlink:href="#DejaVuSans-31"/>
       <use x="63.623047" xlink:href="#DejaVuSans-36"/>
      </g>
     </g>
    </g>
    <g id="xtick_3">
     <g id="line2d_3">
      <g>
       <use style="stroke:#000000;stroke-width:0.8;" x="237.800898" xlink:href="#m88f4a2975f" y="309.8635"/>
      </g>
     </g>
     <g id="text_3">
      <!-- 18 -->
      <defs>
       <path d="M 31.78125 34.625 
Q 24.75 34.625 20.71875 30.859375 
Q 16.703125 27.09375 16.703125 20.515625 
Q 16.703125 13.921875 20.71875 10.15625 
Q 24.75 6.390625 31.78125 6.390625 
Q 38.8125 6.390625 42.859375 10.171875 
Q 46.921875 13.96875 46.921875 20.515625 
Q 46.921875 27.09375 42.890625 30.859375 
Q 38.875 34.625 31.78125 34.625 
z
M 21.921875 38.8125 
Q 15.578125 40.375 12.03125 44.71875 
Q 8.5 49.078125 8.5 55.328125 
Q 8.5 64.0625 14.71875 69.140625 
Q 20.953125 74.21875 31.78125 74.21875 
Q 42.671875 74.21875 48.875 69.140625 
Q 55.078125 64.0625 55.078125 55.328125 
Q 55.078125 49.078125 51.53125 44.71875 
Q 48 40.375 41.703125 38.8125 
Q 48.828125 37.15625 52.796875 32.3125 
Q 56.78125 27.484375 56.78125 20.515625 
Q 56.78125 9.90625 50.3125 4.234375 
Q 43.84375 -1.421875 31.78125 -1.421875 
Q 19.734375 -1.421875 13.25 4.234375 
Q 6.78125 9.90625 6.78125 20.515625 
Q 6.78125 27.484375 10.78125 32.3125 
Q 14.796875 37.15625 21.921875 38.8125 
z
M 18.3125 54.390625 
Q 18.3125 48.734375 21.84375 45.5625 
Q 25.390625 42.390625 31.78125 42.390625 
Q 38.140625 42.390625 41.71875 45.5625 
Q 45.3125 48.734375 45.3125 54.390625 
Q 45.3125 60.0625 41.71875 63.234375 
Q 38.140625 66.40625 31.78125 66.40625 
Q 25.390625 66.40625 21.84375 63.234375 
Q 18.3125 60.0625 18.3125 54.390625 
z
" id="DejaVuSans-38"/>
      </defs>
      <g transform="translate(231.438398 324.461937)scale(0.1 -0.1)">
       <use xlink:href="#DejaVuSans-31"/>
       <use x="63.623047" xlink:href="#DejaVuSans-38"/>
      </g>
     </g>
    </g>
    <g id="xtick_4">
     <g id="line2d_4">
      <g>
       <use style="stroke:#000000;stroke-width:0.8;" x="306.759672" xlink:href="#m88f4a2975f" y="309.8635"/>
      </g>
     </g>
     <g id="text_4">
      <!-- 20 -->
      <defs>
       <path d="M 19.1875 8.296875 
L 53.609375 8.296875 
L 53.609375 0 
L 7.328125 0 
L 7.328125 8.296875 
Q 12.9375 14.109375 22.625 23.890625 
Q 32.328125 33.6875 34.8125 36.53125 
Q 39.546875 41.84375 41.421875 45.53125 
Q 43.3125 49.21875 43.3125 52.78125 
Q 43.3125 58.59375 39.234375 62.25 
Q 35.15625 65.921875 28.609375 65.921875 
Q 23.96875 65.921875 18.8125 64.3125 
Q 13.671875 62.703125 7.8125 59.421875 
L 7.8125 69.390625 
Q 13.765625 71.78125 18.9375 73 
Q 24.125 74.21875 28.421875 74.21875 
Q 39.75 74.21875 46.484375 68.546875 
Q 53.21875 62.890625 53.21875 53.421875 
Q 53.21875 48.921875 51.53125 44.890625 
Q 49.859375 40.875 45.40625 35.40625 
Q 44.1875 33.984375 37.640625 27.21875 
Q 31.109375 20.453125 19.1875 8.296875 
z
" id="DejaVuSans-32"/>
       <path d="M 31.78125 66.40625 
Q 24.171875 66.40625 20.328125 58.90625 
Q 16.5 51.421875 16.5 36.375 
Q 16.5 21.390625 20.328125 13.890625 
Q 24.171875 6.390625 31.78125 6.390625 
Q 39.453125 6.390625 43.28125 13.890625 
Q 47.125 21.390625 47.125 36.375 
Q 47.125 51.421875 43.28125 58.90625 
Q 39.453125 66.40625 31.78125 66.40625 
z
M 31.78125 74.21875 
Q 44.046875 74.21875 50.515625 64.515625 
Q 56.984375 54.828125 56.984375 36.375 
Q 56.984375 17.96875 50.515625 8.265625 
Q 44.046875 -1.421875 31.78125 -1.421875 
Q 19.53125 -1.421875 13.0625 8.265625 
Q 6.59375 17.96875 6.59375 36.375 
Q 6.59375 54.828125 13.0625 64.515625 
Q 19.53125 74.21875 31.78125 74.21875 
z
" id="DejaVuSans-30"/>
      </defs>
      <g transform="translate(300.397172 324.461937)scale(0.1 -0.1)">
       <use xlink:href="#DejaVuSans-32"/>
       <use x="63.623047" xlink:href="#DejaVuSans-30"/>
      </g>
     </g>
    </g>
    <g id="xtick_5">
     <g id="line2d_5">
      <g>
       <use style="stroke:#000000;stroke-width:0.8;" x="375.718446" xlink:href="#m88f4a2975f" y="309.8635"/>
      </g>
     </g>
     <g id="text_5">
      <!-- 22 -->
      <g transform="translate(369.355946 324.461937)scale(0.1 -0.1)">
       <use xlink:href="#DejaVuSans-32"/>
       <use x="63.623047" xlink:href="#DejaVuSans-32"/>
      </g>
     </g>
    </g>
    <g id="xtick_6">
     <g id="line2d_6">
      <g>
       <use style="stroke:#000000;stroke-width:0.8;" x="444.67722" xlink:href="#m88f4a2975f" y="309.8635"/>
      </g>
     </g>
     <g id="text_6">
      <!-- 24 -->
      <g transform="translate(438.31472 324.461937)scale(0.1 -0.1)">
       <use xlink:href="#DejaVuSans-32"/>
       <use x="63.623047" xlink:href="#DejaVuSans-34"/>
      </g>
     </g>
    </g>
    <g id="text_7">
     <!-- time [$\mathrm{DAS}$] -->
     <defs>
      <path d="M 18.3125 70.21875 
L 18.3125 54.6875 
L 36.8125 54.6875 
L 36.8125 47.703125 
L 18.3125 47.703125 
L 18.3125 18.015625 
Q 18.3125 11.328125 20.140625 9.421875 
Q 21.96875 7.515625 27.59375 7.515625 
L 36.8125 7.515625 
L 36.8125 0 
L 27.59375 0 
Q 17.1875 0 13.234375 3.875 
Q 9.28125 7.765625 9.28125 18.015625 
L 9.28125 47.703125 
L 2.6875 47.703125 
L 2.6875 54.6875 
L 9.28125 54.6875 
L 9.28125 70.21875 
z
" id="DejaVuSans-74"/>
      <path d="M 9.421875 54.6875 
L 18.40625 54.6875 
L 18.40625 0 
L 9.421875 0 
z
M 9.421875 75.984375 
L 18.40625 75.984375 
L 18.40625 64.59375 
L 9.421875 64.59375 
z
" id="DejaVuSans-69"/>
      <path d="M 52 44.1875 
Q 55.375 50.25 60.0625 53.125 
Q 64.75 56 71.09375 56 
Q 79.640625 56 84.28125 50.015625 
Q 88.921875 44.046875 88.921875 33.015625 
L 88.921875 0 
L 79.890625 0 
L 79.890625 32.71875 
Q 79.890625 40.578125 77.09375 44.375 
Q 74.3125 48.1875 68.609375 48.1875 
Q 61.625 48.1875 57.5625 43.546875 
Q 53.515625 38.921875 53.515625 30.90625 
L 53.515625 0 
L 44.484375 0 
L 44.484375 32.71875 
Q 44.484375 40.625 41.703125 44.40625 
Q 38.921875 48.1875 33.109375 48.1875 
Q 26.21875 48.1875 22.15625 43.53125 
Q 18.109375 38.875 18.109375 30.90625 
L 18.109375 0 
L 9.078125 0 
L 9.078125 54.6875 
L 18.109375 54.6875 
L 18.109375 46.1875 
Q 21.1875 51.21875 25.484375 53.609375 
Q 29.78125 56 35.6875 56 
Q 41.65625 56 45.828125 52.96875 
Q 50 49.953125 52 44.1875 
z
" id="DejaVuSans-6d"/>
      <path d="M 56.203125 29.59375 
L 56.203125 25.203125 
L 14.890625 25.203125 
Q 15.484375 15.921875 20.484375 11.0625 
Q 25.484375 6.203125 34.421875 6.203125 
Q 39.59375 6.203125 44.453125 7.46875 
Q 49.3125 8.734375 54.109375 11.28125 
L 54.109375 2.78125 
Q 49.265625 0.734375 44.1875 -0.34375 
Q 39.109375 -1.421875 33.890625 -1.421875 
Q 20.796875 -1.421875 13.15625 6.1875 
Q 5.515625 13.8125 5.515625 26.8125 
Q 5.515625 40.234375 12.765625 48.109375 
Q 20.015625 56 32.328125 56 
Q 43.359375 56 49.78125 48.890625 
Q 56.203125 41.796875 56.203125 29.59375 
z
M 47.21875 32.234375 
Q 47.125 39.59375 43.09375 43.984375 
Q 39.0625 48.390625 32.421875 48.390625 
Q 24.90625 48.390625 20.390625 44.140625 
Q 15.875 39.890625 15.1875 32.171875 
z
" id="DejaVuSans-65"/>
      <path id="DejaVuSans-20"/>
      <path d="M 8.59375 75.984375 
L 29.296875 75.984375 
L 29.296875 69 
L 17.578125 69 
L 17.578125 -6.203125 
L 29.296875 -6.203125 
L 29.296875 -13.1875 
L 8.59375 -13.1875 
z
" id="DejaVuSans-5b"/>
      <path d="M 19.671875 64.796875 
L 19.671875 8.109375 
L 31.59375 8.109375 
Q 46.6875 8.109375 53.6875 14.9375 
Q 60.6875 21.78125 60.6875 36.53125 
Q 60.6875 51.171875 53.6875 57.984375 
Q 46.6875 64.796875 31.59375 64.796875 
z
M 9.8125 72.90625 
L 30.078125 72.90625 
Q 51.265625 72.90625 61.171875 64.09375 
Q 71.09375 55.28125 71.09375 36.53125 
Q 71.09375 17.671875 61.125 8.828125 
Q 51.171875 0 30.078125 0 
L 9.8125 0 
z
" id="DejaVuSans-44"/>
      <path d="M 34.1875 63.1875 
L 20.796875 26.90625 
L 47.609375 26.90625 
z
M 28.609375 72.90625 
L 39.796875 72.90625 
L 67.578125 0 
L 57.328125 0 
L 50.6875 18.703125 
L 17.828125 18.703125 
L 11.1875 0 
L 0.78125 0 
z
" id="DejaVuSans-41"/>
      <path d="M 53.515625 70.515625 
L 53.515625 60.890625 
Q 47.90625 63.578125 42.921875 64.890625 
Q 37.9375 66.21875 33.296875 66.21875 
Q 25.25 66.21875 20.875 63.09375 
Q 16.5 59.96875 16.5 54.203125 
Q 16.5 49.359375 19.40625 46.890625 
Q 22.3125 44.4375 30.421875 42.921875 
L 36.375 41.703125 
Q 47.40625 39.59375 52.65625 34.296875 
Q 57.90625 29 57.90625 20.125 
Q 57.90625 9.515625 50.796875 4.046875 
Q 43.703125 -1.421875 29.984375 -1.421875 
Q 24.8125 -1.421875 18.96875 -0.25 
Q 13.140625 0.921875 6.890625 3.21875 
L 6.890625 13.375 
Q 12.890625 10.015625 18.65625 8.296875 
Q 24.421875 6.59375 29.984375 6.59375 
Q 38.421875 6.59375 43.015625 9.90625 
Q 47.609375 13.234375 47.609375 19.390625 
Q 47.609375 24.75 44.3125 27.78125 
Q 41.015625 30.8125 33.5 32.328125 
L 27.484375 33.5 
Q 16.453125 35.6875 11.515625 40.375 
Q 6.59375 45.0625 6.59375 53.421875 
Q 6.59375 63.09375 13.40625 68.65625 
Q 20.21875 74.21875 32.171875 74.21875 
Q 37.3125 74.21875 42.625 73.28125 
Q 47.953125 72.359375 53.515625 70.515625 
z
" id="DejaVuSans-53"/>
      <path d="M 30.421875 75.984375 
L 30.421875 -13.1875 
L 9.71875 -13.1875 
L 9.71875 -6.203125 
L 21.390625 -6.203125 
L 21.390625 69 
L 9.71875 69 
L 9.71875 75.984375 
z
" id="DejaVuSans-5d"/>
     </defs>
     <g transform="translate(218.767687 338.140062)scale(0.1 -0.1)">
      <use transform="translate(0 0.015625)" xlink:href="#DejaVuSans-74"/>
      <use transform="translate(39.208984 0.015625)" xlink:href="#DejaVuSans-69"/>
      <use transform="translate(66.992188 0.015625)" xlink:href="#DejaVuSans-6d"/>
      <use transform="translate(164.404297 0.015625)" xlink:href="#DejaVuSans-65"/>
      <use transform="translate(225.927734 0.015625)" xlink:href="#DejaVuSans-20"/>
      <use transform="translate(257.714844 0.015625)" xlink:href="#DejaVuSans-5b"/>
      <use transform="translate(296.728516 0.015625)" xlink:href="#DejaVuSans-44"/>
      <use transform="translate(373.730469 0.015625)" xlink:href="#DejaVuSans-41"/>
      <use transform="translate(442.138672 0.015625)" xlink:href="#DejaVuSans-53"/>
      <use transform="translate(505.615234 0.015625)" xlink:href="#DejaVuSans-5d"/>
     </g>
    </g>
   </g>
   <g id="matplotlib.axis_2">
    <g id="ytick_1">
     <g id="line2d_7">
      <defs>
       <path d="M 0 0 
L -3.5 0 
" id="m3783b99f32" style="stroke:#000000;stroke-width:0.8;"/>
      </defs>
      <g>
       <use style="stroke:#000000;stroke-width:0.8;" x="44.555375" xlink:href="#m3783b99f32" y="309.8635"/>
      </g>
     </g>
     <g id="text_8">
      <!-- −10 -->
      <defs>
       <path d="M 10.59375 35.5 
L 73.1875 35.5 
L 73.1875 27.203125 
L 10.59375 27.203125 
z
" id="DejaVuSans-2212"/>
      </defs>
      <g transform="translate(16.450688 313.662719)scale(0.1 -0.1)">
       <use xlink:href="#DejaVuSans-2212"/>
       <use x="83.789062" xlink:href="#DejaVuSans-31"/>
       <use x="147.412109" xlink:href="#DejaVuSans-30"/>
      </g>
     </g>
    </g>
    <g id="ytick_2">
     <g id="line2d_8">
      <g>
       <use style="stroke:#000000;stroke-width:0.8;" x="44.555375" xlink:href="#m3783b99f32" y="250.597887"/>
      </g>
     </g>
     <g id="text_9">
      <!-- 0 -->
      <g transform="translate(31.192875 254.397106)scale(0.1 -0.1)">
       <use xlink:href="#DejaVuSans-30"/>
      </g>
     </g>
    </g>
    <g id="ytick_3">
     <g id="line2d_9">
      <g>
       <use style="stroke:#000000;stroke-width:0.8;" x="44.555375" xlink:href="#m3783b99f32" y="191.332275"/>
      </g>
     </g>
     <g id="text_10">
      <!-- 10 -->
      <g transform="translate(24.830375 195.131494)scale(0.1 -0.1)">
       <use xlink:href="#DejaVuSans-31"/>
       <use x="63.623047" xlink:href="#DejaVuSans-30"/>
      </g>
     </g>
    </g>
    <g id="ytick_4">
     <g id="line2d_10">
      <g>
       <use style="stroke:#000000;stroke-width:0.8;" x="44.555375" xlink:href="#m3783b99f32" y="132.066663"/>
      </g>
     </g>
     <g id="text_11">
      <!-- 20 -->
      <g transform="translate(24.830375 135.865881)scale(0.1 -0.1)">
       <use xlink:href="#DejaVuSans-32"/>
       <use x="63.623047" xlink:href="#DejaVuSans-30"/>
      </g>
     </g>
    </g>
    <g id="ytick_5">
     <g id="line2d_11">
      <g>
       <use style="stroke:#000000;stroke-width:0.8;" x="44.555375" xlink:href="#m3783b99f32" y="72.80105"/>
      </g>
     </g>
     <g id="text_12">
      <!-- 30 -->
      <defs>
       <path d="M 40.578125 39.3125 
Q 47.65625 37.796875 51.625 33 
Q 55.609375 28.21875 55.609375 21.1875 
Q 55.609375 10.40625 48.1875 4.484375 
Q 40.765625 -1.421875 27.09375 -1.421875 
Q 22.515625 -1.421875 17.65625 -0.515625 
Q 12.796875 0.390625 7.625 2.203125 
L 7.625 11.71875 
Q 11.71875 9.328125 16.59375 8.109375 
Q 21.484375 6.890625 26.8125 6.890625 
Q 36.078125 6.890625 40.9375 10.546875 
Q 45.796875 14.203125 45.796875 21.1875 
Q 45.796875 27.640625 41.28125 31.265625 
Q 36.765625 34.90625 28.71875 34.90625 
L 20.21875 34.90625 
L 20.21875 43.015625 
L 29.109375 43.015625 
Q 36.375 43.015625 40.234375 45.921875 
Q 44.09375 48.828125 44.09375 54.296875 
Q 44.09375 59.90625 40.109375 62.90625 
Q 36.140625 65.921875 28.71875 65.921875 
Q 24.65625 65.921875 20.015625 65.03125 
Q 15.375 64.15625 9.8125 62.3125 
L 9.8125 71.09375 
Q 15.4375 72.65625 20.34375 73.4375 
Q 25.25 74.21875 29.59375 74.21875 
Q 40.828125 74.21875 47.359375 69.109375 
Q 53.90625 64.015625 53.90625 55.328125 
Q 53.90625 49.265625 50.4375 45.09375 
Q 46.96875 40.921875 40.578125 39.3125 
z
" id="DejaVuSans-33"/>
      </defs>
      <g transform="translate(24.830375 76.600269)scale(0.1 -0.1)">
       <use xlink:href="#DejaVuSans-33"/>
       <use x="63.623047" xlink:href="#DejaVuSans-30"/>
      </g>
     </g>
    </g>
    <g id="ytick_6">
     <g id="line2d_12">
      <g>
       <use style="stroke:#000000;stroke-width:0.8;" x="44.555375" xlink:href="#m3783b99f32" y="13.535438"/>
      </g>
     </g>
     <g id="text_13">
      <!-- 40 -->
      <g transform="translate(24.830375 17.334656)scale(0.1 -0.1)">
       <use xlink:href="#DejaVuSans-34"/>
       <use x="63.623047" xlink:href="#DejaVuSans-30"/>
      </g>
     </g>
    </g>
    <g id="text_14">
     <!-- leaf areas [$\mathrm{mm}^2$] -->
     <defs>
      <path d="M 9.421875 75.984375 
L 18.40625 75.984375 
L 18.40625 0 
L 9.421875 0 
z
" id="DejaVuSans-6c"/>
      <path d="M 34.28125 27.484375 
Q 23.390625 27.484375 19.1875 25 
Q 14.984375 22.515625 14.984375 16.5 
Q 14.984375 11.71875 18.140625 8.90625 
Q 21.296875 6.109375 26.703125 6.109375 
Q 34.1875 6.109375 38.703125 11.40625 
Q 43.21875 16.703125 43.21875 25.484375 
L 43.21875 27.484375 
z
M 52.203125 31.203125 
L 52.203125 0 
L 43.21875 0 
L 43.21875 8.296875 
Q 40.140625 3.328125 35.546875 0.953125 
Q 30.953125 -1.421875 24.3125 -1.421875 
Q 15.921875 -1.421875 10.953125 3.296875 
Q 6 8.015625 6 15.921875 
Q 6 25.140625 12.171875 29.828125 
Q 18.359375 34.515625 30.609375 34.515625 
L 43.21875 34.515625 
L 43.21875 35.40625 
Q 43.21875 41.609375 39.140625 45 
Q 35.0625 48.390625 27.6875 48.390625 
Q 23 48.390625 18.546875 47.265625 
Q 14.109375 46.140625 10.015625 43.890625 
L 10.015625 52.203125 
Q 14.9375 54.109375 19.578125 55.046875 
Q 24.21875 56 28.609375 56 
Q 40.484375 56 46.34375 49.84375 
Q 52.203125 43.703125 52.203125 31.203125 
z
" id="DejaVuSans-61"/>
      <path d="M 37.109375 75.984375 
L 37.109375 68.5 
L 28.515625 68.5 
Q 23.6875 68.5 21.796875 66.546875 
Q 19.921875 64.59375 19.921875 59.515625 
L 19.921875 54.6875 
L 34.71875 54.6875 
L 34.71875 47.703125 
L 19.921875 47.703125 
L 19.921875 0 
L 10.890625 0 
L 10.890625 47.703125 
L 2.296875 47.703125 
L 2.296875 54.6875 
L 10.890625 54.6875 
L 10.890625 58.5 
Q 10.890625 67.625 15.140625 71.796875 
Q 19.390625 75.984375 28.609375 75.984375 
z
" id="DejaVuSans-66"/>
      <path d="M 41.109375 46.296875 
Q 39.59375 47.171875 37.8125 47.578125 
Q 36.03125 48 33.890625 48 
Q 26.265625 48 22.1875 43.046875 
Q 18.109375 38.09375 18.109375 28.8125 
L 18.109375 0 
L 9.078125 0 
L 9.078125 54.6875 
L 18.109375 54.6875 
L 18.109375 46.1875 
Q 20.953125 51.171875 25.484375 53.578125 
Q 30.03125 56 36.53125 56 
Q 37.453125 56 38.578125 55.875 
Q 39.703125 55.765625 41.0625 55.515625 
z
" id="DejaVuSans-72"/>
      <path d="M 44.28125 53.078125 
L 44.28125 44.578125 
Q 40.484375 46.53125 36.375 47.5 
Q 32.28125 48.484375 27.875 48.484375 
Q 21.1875 48.484375 17.84375 46.4375 
Q 14.5 44.390625 14.5 40.28125 
Q 14.5 37.15625 16.890625 35.375 
Q 19.28125 33.59375 26.515625 31.984375 
L 29.59375 31.296875 
Q 39.15625 29.25 43.1875 25.515625 
Q 47.21875 21.78125 47.21875 15.09375 
Q 47.21875 7.46875 41.1875 3.015625 
Q 35.15625 -1.421875 24.609375 -1.421875 
Q 20.21875 -1.421875 15.453125 -0.5625 
Q 10.6875 0.296875 5.421875 2 
L 5.421875 11.28125 
Q 10.40625 8.6875 15.234375 7.390625 
Q 20.0625 6.109375 24.8125 6.109375 
Q 31.15625 6.109375 34.5625 8.28125 
Q 37.984375 10.453125 37.984375 14.40625 
Q 37.984375 18.0625 35.515625 20.015625 
Q 33.0625 21.96875 24.703125 23.78125 
L 21.578125 24.515625 
Q 13.234375 26.265625 9.515625 29.90625 
Q 5.8125 33.546875 5.8125 39.890625 
Q 5.8125 47.609375 11.28125 51.796875 
Q 16.75 56 26.8125 56 
Q 31.78125 56 36.171875 55.265625 
Q 40.578125 54.546875 44.28125 53.078125 
z
" id="DejaVuSans-73"/>
     </defs>
     <g transform="translate(10.371 204.099469)rotate(-90)scale(0.1 -0.1)">
      <use transform="translate(0 0.765625)" xlink:href="#DejaVuSans-6c"/>
      <use transform="translate(27.783203 0.765625)" xlink:href="#DejaVuSans-65"/>
      <use transform="translate(89.306641 0.765625)" xlink:href="#DejaVuSans-61"/>
      <use transform="translate(150.585938 0.765625)" xlink:href="#DejaVuSans-66"/>
      <use transform="translate(185.791016 0.765625)" xlink:href="#DejaVuSans-20"/>
      <use transform="translate(217.578125 0.765625)" xlink:href="#DejaVuSans-61"/>
      <use transform="translate(278.857422 0.765625)" xlink:href="#DejaVuSans-72"/>
      <use transform="translate(319.970703 0.765625)" xlink:href="#DejaVuSans-65"/>
      <use transform="translate(381.494141 0.765625)" xlink:href="#DejaVuSans-61"/>
      <use transform="translate(442.773438 0.765625)" xlink:href="#DejaVuSans-73"/>
      <use transform="translate(494.873047 0.765625)" xlink:href="#DejaVuSans-20"/>
      <use transform="translate(526.660156 0.765625)" xlink:href="#DejaVuSans-5b"/>
      <use transform="translate(565.673828 0.765625)" xlink:href="#DejaVuSans-6d"/>
      <use transform="translate(663.085938 0.765625)" xlink:href="#DejaVuSans-6d"/>
      <use transform="translate(761.455078 39.046875)scale(0.7)" xlink:href="#DejaVuSans-32"/>
      <use transform="translate(808.725586 0.765625)" xlink:href="#DejaVuSans-5d"/>
     </g>
    </g>
   </g>
   <g id="LineCollection_1">
    <path clip-path="url(#p3609eb9585)" d="M 168.532183 189.620747 
L 168.532183 184.681161 
" style="fill:none;stroke:#000080;stroke-opacity:0.1;stroke-width:1.5;"/>
    <path clip-path="url(#p3609eb9585)" d="M 168.842125 187.922702 
L 168.842125 183.612756 
" style="fill:none;stroke:#000080;stroke-opacity:0.1;stroke-width:1.5;"/>
    <path clip-path="url(#p3609eb9585)" d="M 169.152067 187.922702 
L 169.152067 182.575101 
" style="fill:none;stroke:#000080;stroke-opacity:0.1;stroke-width:1.5;"/>
    <path clip-path="url(#p3609eb9585)" d="M 169.462009 187.922702 
L 169.462009 182.15578 
" style="fill:none;stroke:#000080;stroke-opacity:0.1;stroke-width:1.5;"/>
    <path clip-path="url(#p3609eb9585)" d="M 169.771951 187.922702 
L 169.771951 181.43962 
" style="fill:none;stroke:#000080;stroke-opacity:0.1;stroke-width:1.5;"/>
    <path clip-path="url(#p3609eb9585)" d="M 170.081893 187.922702 
L 170.081893 181.825453 
" style="fill:none;stroke:#000080;stroke-opacity:0.1;stroke-width:1.5;"/>
    <path clip-path="url(#p3609eb9585)" d="M 170.391835 187.922702 
L 170.391835 184.286195 
" style="fill:none;stroke:#000080;stroke-opacity:0.1;stroke-width:1.5;"/>
    <path clip-path="url(#p3609eb9585)" d="M 170.701777 189.266103 
L 170.701777 184.681161 
" style="fill:none;stroke:#000080;stroke-opacity:0.1;stroke-width:1.5;"/>
    <path clip-path="url(#p3609eb9585)" d="M 171.011719 190.698485 
L 171.011719 184.681161 
" style="fill:none;stroke:#000080;stroke-opacity:0.1;stroke-width:1.5;"/>
    <path clip-path="url(#p3609eb9585)" d="M 171.321661 190.63199 
L 171.321661 184.681161 
" style="fill:none;stroke:#000080;stroke-opacity:0.1;stroke-width:1.5;"/>
    <path clip-path="url(#p3609eb9585)" d="M 171.631603 191.164243 
L 171.631603 184.681161 
" style="fill:none;stroke:#000080;stroke-opacity:0.1;stroke-width:1.5;"/>
    <path clip-path="url(#p3609eb9585)" d="M 171.941545 190.188395 
L 171.941545 184.681161 
" style="fill:none;stroke:#000080;stroke-opacity:0.1;stroke-width:1.5;"/>
    <path clip-path="url(#p3609eb9585)" d="M 172.251487 190.228776 
L 172.251487 184.681161 
" style="fill:none;stroke:#000080;stroke-opacity:0.1;stroke-width:1.5;"/>
    <path clip-path="url(#p3609eb9585)" d="M 172.561429 190.080155 
L 172.561429 184.681161 
" style="fill:none;stroke:#000080;stroke-opacity:0.1;stroke-width:1.5;"/>
    <path clip-path="url(#p3609eb9585)" d="M 172.871371 189.102404 
L 172.871371 184.681161 
" style="fill:none;stroke:#000080;stroke-opacity:0.1;stroke-width:1.5;"/>
    <path clip-path="url(#p3609eb9585)" d="M 173.181313 188.220706 
L 173.181313 184.874077 
" style="fill:none;stroke:#000080;stroke-opacity:0.1;stroke-width:1.5;"/>
    <path clip-path="url(#p3609eb9585)" d="M 173.491255 187.922702 
L 173.491255 184.602839 
" style="fill:none;stroke:#000080;stroke-opacity:0.1;stroke-width:1.5;"/>
    <path clip-path="url(#p3609eb9585)" d="M 173.801197 187.922702 
L 173.801197 184.432241 
" style="fill:none;stroke:#000080;stroke-opacity:0.1;stroke-width:1.5;"/>
    <path clip-path="url(#p3609eb9585)" d="M 174.111139 187.922702 
L 174.111139 184.978846 
" style="fill:none;stroke:#000080;stroke-opacity:0.1;stroke-width:1.5;"/>
   </g>
   <g id="LineCollection_2">
    <path clip-path="url(#p3609eb9585)" d="M 168.532183 221.011016 
L 168.532183 219.959191 
" style="fill:none;stroke:#0010ff;stroke-opacity:0.1;stroke-width:1.5;"/>
    <path clip-path="url(#p3609eb9585)" d="M 168.842125 220.674778 
L 168.842125 219.384709 
" style="fill:none;stroke:#0010ff;stroke-opacity:0.1;stroke-width:1.5;"/>
    <path clip-path="url(#p3609eb9585)" d="M 169.152067 220.674778 
L 169.152067 219.518964 
" style="fill:none;stroke:#0010ff;stroke-opacity:0.1;stroke-width:1.5;"/>
    <path clip-path="url(#p3609eb9585)" d="M 169.462009 220.674778 
L 169.462009 219.718717 
" style="fill:none;stroke:#0010ff;stroke-opacity:0.1;stroke-width:1.5;"/>
    <path clip-path="url(#p3609eb9585)" d="M 169.771951 221.508391 
L 169.771951 219.841166 
" style="fill:none;stroke:#0010ff;stroke-opacity:0.1;stroke-width:1.5;"/>
    <path clip-path="url(#p3609eb9585)" d="M 170.081893 220.961063 
L 170.081893 219.829816 
" style="fill:none;stroke:#0010ff;stroke-opacity:0.1;stroke-width:1.5;"/>
    <path clip-path="url(#p3609eb9585)" d="M 170.391835 220.994924 
L 170.391835 219.667968 
" style="fill:none;stroke:#0010ff;stroke-opacity:0.1;stroke-width:1.5;"/>
    <path clip-path="url(#p3609eb9585)" d="M 170.701777 220.674778 
L 170.701777 219.274815 
" style="fill:none;stroke:#0010ff;stroke-opacity:0.1;stroke-width:1.5;"/>
    <path clip-path="url(#p3609eb9585)" d="M 171.011719 220.674778 
L 171.011719 219.243603 
" style="fill:none;stroke:#0010ff;stroke-opacity:0.1;stroke-width:1.5;"/>
    <path clip-path="url(#p3609eb9585)" d="M 171.321661 220.674778 
L 171.321661 219.617468 
" style="fill:none;stroke:#0010ff;stroke-opacity:0.1;stroke-width:1.5;"/>
    <path clip-path="url(#p3609eb9585)" d="M 171.631603 220.674778 
L 171.631603 219.041709 
" style="fill:none;stroke:#0010ff;stroke-opacity:0.1;stroke-width:1.5;"/>
    <path clip-path="url(#p3609eb9585)" d="M 171.941545 220.674778 
L 171.941545 219.007554 
" style="fill:none;stroke:#0010ff;stroke-opacity:0.1;stroke-width:1.5;"/>
    <path clip-path="url(#p3609eb9585)" d="M 172.251487 220.867984 
L 172.251487 219.667968 
" style="fill:none;stroke:#0010ff;stroke-opacity:0.1;stroke-width:1.5;"/>
    <path clip-path="url(#p3609eb9585)" d="M 172.561429 220.674778 
L 172.561429 219.237289 
" style="fill:none;stroke:#0010ff;stroke-opacity:0.1;stroke-width:1.5;"/>
    <path clip-path="url(#p3609eb9585)" d="M 172.871371 220.674778 
L 172.871371 218.984854 
" style="fill:none;stroke:#0010ff;stroke-opacity:0.1;stroke-width:1.5;"/>
    <path clip-path="url(#p3609eb9585)" d="M 173.181313 220.39544 
L 173.181313 218.940497 
" style="fill:none;stroke:#0010ff;stroke-opacity:0.1;stroke-width:1.5;"/>
    <path clip-path="url(#p3609eb9585)" d="M 173.491255 220.856551 
L 173.491255 219.667968 
" style="fill:none;stroke:#0010ff;stroke-opacity:0.1;stroke-width:1.5;"/>
    <path clip-path="url(#p3609eb9585)" d="M 173.801197 220.681384 
L 173.801197 219.667968 
" style="fill:none;stroke:#0010ff;stroke-opacity:0.1;stroke-width:1.5;"/>
    <path clip-path="url(#p3609eb9585)" d="M 174.111139 220.856319 
L 174.111139 219.667968 
" style="fill:none;stroke:#0010ff;stroke-opacity:0.1;stroke-width:1.5;"/>
   </g>
   <g id="LineCollection_3">
    <path clip-path="url(#p3609eb9585)" d="M 168.532183 189.083027 
L 168.532183 182.520013 
" style="fill:none;stroke:#00a4ff;stroke-opacity:0.1;stroke-width:1.5;"/>
    <path clip-path="url(#p3609eb9585)" d="M 168.842125 189.537559 
L 168.842125 182.330679 
" style="fill:none;stroke:#00a4ff;stroke-opacity:0.1;stroke-width:1.5;"/>
    <path clip-path="url(#p3609eb9585)" d="M 169.152067 185.934119 
L 169.152067 182.268072 
" style="fill:none;stroke:#00a4ff;stroke-opacity:0.1;stroke-width:1.5;"/>
    <path clip-path="url(#p3609eb9585)" d="M 169.462009 185.934119 
L 169.462009 180.189684 
" style="fill:none;stroke:#00a4ff;stroke-opacity:0.1;stroke-width:1.5;"/>
    <path clip-path="url(#p3609eb9585)" d="M 169.771951 185.934119 
L 169.771951 180.611963 
" style="fill:none;stroke:#00a4ff;stroke-opacity:0.1;stroke-width:1.5;"/>
    <path clip-path="url(#p3609eb9585)" d="M 170.081893 186.728398 
L 170.081893 181.73164 
" style="fill:none;stroke:#00a4ff;stroke-opacity:0.1;stroke-width:1.5;"/>
    <path clip-path="url(#p3609eb9585)" d="M 170.391835 186.561231 
L 170.391835 181.73164 
" style="fill:none;stroke:#00a4ff;stroke-opacity:0.1;stroke-width:1.5;"/>
    <path clip-path="url(#p3609eb9585)" d="M 170.701777 186.260914 
L 170.701777 181.73164 
" style="fill:none;stroke:#00a4ff;stroke-opacity:0.1;stroke-width:1.5;"/>
    <path clip-path="url(#p3609eb9585)" d="M 171.011719 185.934119 
L 171.011719 179.105908 
" style="fill:none;stroke:#00a4ff;stroke-opacity:0.1;stroke-width:1.5;"/>
    <path clip-path="url(#p3609eb9585)" d="M 171.321661 185.934119 
L 171.321661 180.072321 
" style="fill:none;stroke:#00a4ff;stroke-opacity:0.1;stroke-width:1.5;"/>
    <path clip-path="url(#p3609eb9585)" d="M 171.631603 185.934119 
L 171.631603 178.727239 
" style="fill:none;stroke:#00a4ff;stroke-opacity:0.1;stroke-width:1.5;"/>
    <path clip-path="url(#p3609eb9585)" d="M 171.941545 185.934119 
L 171.941545 178.611906 
" style="fill:none;stroke:#00a4ff;stroke-opacity:0.1;stroke-width:1.5;"/>
    <path clip-path="url(#p3609eb9585)" d="M 172.251487 184.230019 
L 172.251487 180.060246 
" style="fill:none;stroke:#00a4ff;stroke-opacity:0.1;stroke-width:1.5;"/>
    <path clip-path="url(#p3609eb9585)" d="M 172.561429 184.230019 
L 172.561429 180.449503 
" style="fill:none;stroke:#00a4ff;stroke-opacity:0.1;stroke-width:1.5;"/>
    <path clip-path="url(#p3609eb9585)" d="M 172.871371 184.230019 
L 172.871371 179.233261 
" style="fill:none;stroke:#00a4ff;stroke-opacity:0.1;stroke-width:1.5;"/>
    <path clip-path="url(#p3609eb9585)" d="M 173.181313 184.230019 
L 173.181313 180.230376 
" style="fill:none;stroke:#00a4ff;stroke-opacity:0.1;stroke-width:1.5;"/>
    <path clip-path="url(#p3609eb9585)" d="M 173.491255 184.484443 
L 173.491255 180.554853 
" style="fill:none;stroke:#00a4ff;stroke-opacity:0.1;stroke-width:1.5;"/>
    <path clip-path="url(#p3609eb9585)" d="M 173.801197 183.996277 
L 173.801197 177.113429 
" style="fill:none;stroke:#00a4ff;stroke-opacity:0.1;stroke-width:1.5;"/>
    <path clip-path="url(#p3609eb9585)" d="M 174.111139 183.242149 
L 174.111139 180.554853 
" style="fill:none;stroke:#00a4ff;stroke-opacity:0.1;stroke-width:1.5;"/>
   </g>
   <g id="LineCollection_4">
    <path clip-path="url(#p3609eb9585)" d="M 168.532183 241.446147 
L 168.532183 237.357989 
" style="fill:none;stroke:#40ffb7;stroke-opacity:0.1;stroke-width:1.5;"/>
    <path clip-path="url(#p3609eb9585)" d="M 168.842125 239.515467 
L 168.842125 235.824175 
" style="fill:none;stroke:#40ffb7;stroke-opacity:0.1;stroke-width:1.5;"/>
    <path clip-path="url(#p3609eb9585)" d="M 169.152067 241.672946 
L 169.152067 237.357989 
" style="fill:none;stroke:#40ffb7;stroke-opacity:0.1;stroke-width:1.5;"/>
    <path clip-path="url(#p3609eb9585)" d="M 169.462009 239.515467 
L 169.462009 235.332175 
" style="fill:none;stroke:#40ffb7;stroke-opacity:0.1;stroke-width:1.5;"/>
    <path clip-path="url(#p3609eb9585)" d="M 169.771951 239.515467 
L 169.771951 235.20051 
" style="fill:none;stroke:#40ffb7;stroke-opacity:0.1;stroke-width:1.5;"/>
    <path clip-path="url(#p3609eb9585)" d="M 170.081893 241.232565 
L 170.081893 237.357989 
" style="fill:none;stroke:#40ffb7;stroke-opacity:0.1;stroke-width:1.5;"/>
    <path clip-path="url(#p3609eb9585)" d="M 170.391835 240.03942 
L 170.391835 237.357989 
" style="fill:none;stroke:#40ffb7;stroke-opacity:0.1;stroke-width:1.5;"/>
    <path clip-path="url(#p3609eb9585)" d="M 170.701777 240.541245 
L 170.701777 237.357989 
" style="fill:none;stroke:#40ffb7;stroke-opacity:0.1;stroke-width:1.5;"/>
    <path clip-path="url(#p3609eb9585)" d="M 171.011719 242.311605 
L 171.011719 236.018642 
" style="fill:none;stroke:#40ffb7;stroke-opacity:0.1;stroke-width:1.5;"/>
    <path clip-path="url(#p3609eb9585)" d="M 171.321661 242.396763 
L 171.321661 236.018642 
" style="fill:none;stroke:#40ffb7;stroke-opacity:0.1;stroke-width:1.5;"/>
    <path clip-path="url(#p3609eb9585)" d="M 171.631603 242.100497 
L 171.631603 236.018642 
" style="fill:none;stroke:#40ffb7;stroke-opacity:0.1;stroke-width:1.5;"/>
    <path clip-path="url(#p3609eb9585)" d="M 171.941545 242.257865 
L 171.941545 236.018642 
" style="fill:none;stroke:#40ffb7;stroke-opacity:0.1;stroke-width:1.5;"/>
    <path clip-path="url(#p3609eb9585)" d="M 172.251487 242.375038 
L 172.251487 236.018642 
" style="fill:none;stroke:#40ffb7;stroke-opacity:0.1;stroke-width:1.5;"/>
    <path clip-path="url(#p3609eb9585)" d="M 172.561429 241.557055 
L 172.561429 236.018642 
" style="fill:none;stroke:#40ffb7;stroke-opacity:0.1;stroke-width:1.5;"/>
    <path clip-path="url(#p3609eb9585)" d="M 172.871371 241.92442 
L 172.871371 236.018642 
" style="fill:none;stroke:#40ffb7;stroke-opacity:0.1;stroke-width:1.5;"/>
    <path clip-path="url(#p3609eb9585)" d="M 173.181313 241.60129 
L 173.181313 236.018642 
" style="fill:none;stroke:#40ffb7;stroke-opacity:0.1;stroke-width:1.5;"/>
    <path clip-path="url(#p3609eb9585)" d="M 173.491255 240.685631 
L 173.491255 236.018642 
" style="fill:none;stroke:#40ffb7;stroke-opacity:0.1;stroke-width:1.5;"/>
    <path clip-path="url(#p3609eb9585)" d="M 173.801197 239.207703 
L 173.801197 232.829582 
" style="fill:none;stroke:#40ffb7;stroke-opacity:0.1;stroke-width:1.5;"/>
    <path clip-path="url(#p3609eb9585)" d="M 174.111139 240.385859 
L 174.111139 236.018642 
" style="fill:none;stroke:#40ffb7;stroke-opacity:0.1;stroke-width:1.5;"/>
   </g>
   <g id="LineCollection_5">
    <path clip-path="url(#p3609eb9585)" d="M 168.532183 233.455594 
L 168.532183 229.410927 
" style="fill:none;stroke:#b7ff40;stroke-opacity:0.1;stroke-width:1.5;"/>
    <path clip-path="url(#p3609eb9585)" d="M 168.842125 233.024433 
L 168.842125 229.20042 
" style="fill:none;stroke:#b7ff40;stroke-opacity:0.1;stroke-width:1.5;"/>
    <path clip-path="url(#p3609eb9585)" d="M 169.152067 232.900969 
L 169.152067 228.743238 
" style="fill:none;stroke:#b7ff40;stroke-opacity:0.1;stroke-width:1.5;"/>
    <path clip-path="url(#p3609eb9585)" d="M 169.462009 233.22204 
L 169.462009 228.743238 
" style="fill:none;stroke:#b7ff40;stroke-opacity:0.1;stroke-width:1.5;"/>
    <path clip-path="url(#p3609eb9585)" d="M 169.771951 232.15843 
L 169.771951 228.594727 
" style="fill:none;stroke:#b7ff40;stroke-opacity:0.1;stroke-width:1.5;"/>
    <path clip-path="url(#p3609eb9585)" d="M 170.081893 231.657827 
L 170.081893 228.594727 
" style="fill:none;stroke:#b7ff40;stroke-opacity:0.1;stroke-width:1.5;"/>
    <path clip-path="url(#p3609eb9585)" d="M 170.391835 231.43326 
L 170.391835 228.515806 
" style="fill:none;stroke:#b7ff40;stroke-opacity:0.1;stroke-width:1.5;"/>
    <path clip-path="url(#p3609eb9585)" d="M 170.701777 231.527924 
L 170.701777 228.594727 
" style="fill:none;stroke:#b7ff40;stroke-opacity:0.1;stroke-width:1.5;"/>
    <path clip-path="url(#p3609eb9585)" d="M 171.011719 231.43326 
L 171.011719 228.051071 
" style="fill:none;stroke:#b7ff40;stroke-opacity:0.1;stroke-width:1.5;"/>
    <path clip-path="url(#p3609eb9585)" d="M 171.321661 231.43326 
L 171.321661 227.388593 
" style="fill:none;stroke:#b7ff40;stroke-opacity:0.1;stroke-width:1.5;"/>
    <path clip-path="url(#p3609eb9585)" d="M 171.631603 231.43326 
L 171.631603 226.967579 
" style="fill:none;stroke:#b7ff40;stroke-opacity:0.1;stroke-width:1.5;"/>
    <path clip-path="url(#p3609eb9585)" d="M 171.941545 231.112427 
L 171.941545 226.374049 
" style="fill:none;stroke:#b7ff40;stroke-opacity:0.1;stroke-width:1.5;"/>
    <path clip-path="url(#p3609eb9585)" d="M 172.251487 230.982639 
L 172.251487 226.703563 
" style="fill:none;stroke:#b7ff40;stroke-opacity:0.1;stroke-width:1.5;"/>
    <path clip-path="url(#p3609eb9585)" d="M 172.561429 230.982639 
L 172.561429 226.206815 
" style="fill:none;stroke:#b7ff40;stroke-opacity:0.1;stroke-width:1.5;"/>
    <path clip-path="url(#p3609eb9585)" d="M 172.871371 230.376578 
L 172.871371 227.060447 
" style="fill:none;stroke:#b7ff40;stroke-opacity:0.1;stroke-width:1.5;"/>
    <path clip-path="url(#p3609eb9585)" d="M 173.181313 230.126277 
L 173.181313 227.47776 
" style="fill:none;stroke:#b7ff40;stroke-opacity:0.1;stroke-width:1.5;"/>
    <path clip-path="url(#p3609eb9585)" d="M 173.491255 230.061326 
L 173.491255 227.451282 
" style="fill:none;stroke:#b7ff40;stroke-opacity:0.1;stroke-width:1.5;"/>
    <path clip-path="url(#p3609eb9585)" d="M 173.801197 230.061326 
L 173.801197 227.586116 
" style="fill:none;stroke:#b7ff40;stroke-opacity:0.1;stroke-width:1.5;"/>
    <path clip-path="url(#p3609eb9585)" d="M 174.111139 229.742166 
L 174.111139 226.939264 
" style="fill:none;stroke:#b7ff40;stroke-opacity:0.1;stroke-width:1.5;"/>
   </g>
   <g id="LineCollection_6">
    <path clip-path="url(#p3609eb9585)" d="M 168.532183 223.712405 
L 168.532183 222.358677 
" style="fill:none;stroke:#ffb900;stroke-opacity:0.1;stroke-width:1.5;"/>
    <path clip-path="url(#p3609eb9585)" d="M 168.842125 224.271419 
L 168.842125 222.358677 
" style="fill:none;stroke:#ffb900;stroke-opacity:0.1;stroke-width:1.5;"/>
    <path clip-path="url(#p3609eb9585)" d="M 169.152067 223.315048 
L 169.152067 221.785483 
" style="fill:none;stroke:#ffb900;stroke-opacity:0.1;stroke-width:1.5;"/>
    <path clip-path="url(#p3609eb9585)" d="M 169.462009 223.905172 
L 169.462009 222.358677 
" style="fill:none;stroke:#ffb900;stroke-opacity:0.1;stroke-width:1.5;"/>
    <path clip-path="url(#p3609eb9585)" d="M 169.771951 224.172074 
L 169.771951 222.358677 
" style="fill:none;stroke:#ffb900;stroke-opacity:0.1;stroke-width:1.5;"/>
    <path clip-path="url(#p3609eb9585)" d="M 170.081893 223.315048 
L 170.081893 222.271816 
" style="fill:none;stroke:#ffb900;stroke-opacity:0.1;stroke-width:1.5;"/>
    <path clip-path="url(#p3609eb9585)" d="M 170.391835 223.952512 
L 170.391835 222.32548 
" style="fill:none;stroke:#ffb900;stroke-opacity:0.1;stroke-width:1.5;"/>
    <path clip-path="url(#p3609eb9585)" d="M 170.701777 223.659039 
L 170.701777 222.32548 
" style="fill:none;stroke:#ffb900;stroke-opacity:0.1;stroke-width:1.5;"/>
    <path clip-path="url(#p3609eb9585)" d="M 171.011719 223.315048 
L 171.011719 221.935983 
" style="fill:none;stroke:#ffb900;stroke-opacity:0.1;stroke-width:1.5;"/>
    <path clip-path="url(#p3609eb9585)" d="M 171.321661 223.315048 
L 171.321661 221.402306 
" style="fill:none;stroke:#ffb900;stroke-opacity:0.1;stroke-width:1.5;"/>
    <path clip-path="url(#p3609eb9585)" d="M 171.631603 223.720859 
L 171.631603 222.32548 
" style="fill:none;stroke:#ffb900;stroke-opacity:0.1;stroke-width:1.5;"/>
    <path clip-path="url(#p3609eb9585)" d="M 171.941545 223.315048 
L 171.941545 221.601213 
" style="fill:none;stroke:#ffb900;stroke-opacity:0.1;stroke-width:1.5;"/>
    <path clip-path="url(#p3609eb9585)" d="M 172.251487 223.265376 
L 172.251487 221.928112 
" style="fill:none;stroke:#ffb900;stroke-opacity:0.1;stroke-width:1.5;"/>
    <path clip-path="url(#p3609eb9585)" d="M 172.561429 223.265376 
L 172.561429 221.88097 
" style="fill:none;stroke:#ffb900;stroke-opacity:0.1;stroke-width:1.5;"/>
    <path clip-path="url(#p3609eb9585)" d="M 172.871371 223.265376 
L 172.871371 221.385584 
" style="fill:none;stroke:#ffb900;stroke-opacity:0.1;stroke-width:1.5;"/>
    <path clip-path="url(#p3609eb9585)" d="M 173.181313 223.138996 
L 173.181313 221.933151 
" style="fill:none;stroke:#ffb900;stroke-opacity:0.1;stroke-width:1.5;"/>
    <path clip-path="url(#p3609eb9585)" d="M 173.491255 223.83315 
L 173.491255 222.32548 
" style="fill:none;stroke:#ffb900;stroke-opacity:0.1;stroke-width:1.5;"/>
    <path clip-path="url(#p3609eb9585)" d="M 173.801197 223.672755 
L 173.801197 222.32548 
" style="fill:none;stroke:#ffb900;stroke-opacity:0.1;stroke-width:1.5;"/>
    <path clip-path="url(#p3609eb9585)" d="M 174.111139 223.082241 
L 174.111139 222.32548 
" style="fill:none;stroke:#ffb900;stroke-opacity:0.1;stroke-width:1.5;"/>
   </g>
   <g id="line2d_13">
    <path clip-path="url(#p3609eb9585)" d="M 168.532183 187.150954 
L 168.842125 185.767729 
L 169.152067 185.248901 
L 169.462009 185.039241 
L 169.771951 184.681161 
L 170.081893 184.874077 
L 170.391835 186.104448 
L 170.701777 186.973632 
L 171.011719 187.689823 
L 171.321661 187.656575 
L 171.631603 187.922702 
L 171.941545 187.434778 
L 172.251487 187.454968 
L 172.561429 187.380658 
L 172.871371 186.891782 
L 173.181313 186.547392 
L 173.491255 186.262771 
L 173.801197 186.177471 
L 174.111139 186.450774 
" style="fill:none;stroke:#000080;stroke-dasharray:2,3.3;stroke-dashoffset:0;stroke-opacity:0.1;stroke-width:2;"/>
    <defs>
     <path d="M 0 3 
C 0.795609 3 1.55874 2.683901 2.12132 2.12132 
C 2.683901 1.55874 3 0.795609 3 0 
C 3 -0.795609 2.683901 -1.55874 2.12132 -2.12132 
C 1.55874 -2.683901 0.795609 -3 0 -3 
C -0.795609 -3 -1.55874 -2.683901 -2.12132 -2.12132 
C -2.683901 -1.55874 -3 -0.795609 -3 0 
C -3 0.795609 -2.683901 1.55874 -2.12132 2.12132 
C -1.55874 2.683901 -0.795609 3 0 3 
z
" id="mee20c5323d" style="stroke:#000000;stroke-opacity:0;"/>
    </defs>
    <g clip-path="url(#p3609eb9585)">
     <use style="fill:#000080;fill-opacity:0.1;stroke:#000000;stroke-opacity:0;" x="168.532183" xlink:href="#mee20c5323d" y="187.150954"/>
     <use style="fill:#000080;fill-opacity:0.1;stroke:#000000;stroke-opacity:0;" x="168.842125" xlink:href="#mee20c5323d" y="185.767729"/>
     <use style="fill:#000080;fill-opacity:0.1;stroke:#000000;stroke-opacity:0;" x="169.152067" xlink:href="#mee20c5323d" y="185.248901"/>
     <use style="fill:#000080;fill-opacity:0.1;stroke:#000000;stroke-opacity:0;" x="169.462009" xlink:href="#mee20c5323d" y="185.039241"/>
     <use style="fill:#000080;fill-opacity:0.1;stroke:#000000;stroke-opacity:0;" x="169.771951" xlink:href="#mee20c5323d" y="184.681161"/>
     <use style="fill:#000080;fill-opacity:0.1;stroke:#000000;stroke-opacity:0;" x="170.081893" xlink:href="#mee20c5323d" y="184.874077"/>
     <use style="fill:#000080;fill-opacity:0.1;stroke:#000000;stroke-opacity:0;" x="170.391835" xlink:href="#mee20c5323d" y="186.104448"/>
     <use style="fill:#000080;fill-opacity:0.1;stroke:#000000;stroke-opacity:0;" x="170.701777" xlink:href="#mee20c5323d" y="186.973632"/>
     <use style="fill:#000080;fill-opacity:0.1;stroke:#000000;stroke-opacity:0;" x="171.011719" xlink:href="#mee20c5323d" y="187.689823"/>
     <use style="fill:#000080;fill-opacity:0.1;stroke:#000000;stroke-opacity:0;" x="171.321661" xlink:href="#mee20c5323d" y="187.656575"/>
     <use style="fill:#000080;fill-opacity:0.1;stroke:#000000;stroke-opacity:0;" x="171.631603" xlink:href="#mee20c5323d" y="187.922702"/>
     <use style="fill:#000080;fill-opacity:0.1;stroke:#000000;stroke-opacity:0;" x="171.941545" xlink:href="#mee20c5323d" y="187.434778"/>
     <use style="fill:#000080;fill-opacity:0.1;stroke:#000000;stroke-opacity:0;" x="172.251487" xlink:href="#mee20c5323d" y="187.454968"/>
     <use style="fill:#000080;fill-opacity:0.1;stroke:#000000;stroke-opacity:0;" x="172.561429" xlink:href="#mee20c5323d" y="187.380658"/>
     <use style="fill:#000080;fill-opacity:0.1;stroke:#000000;stroke-opacity:0;" x="172.871371" xlink:href="#mee20c5323d" y="186.891782"/>
     <use style="fill:#000080;fill-opacity:0.1;stroke:#000000;stroke-opacity:0;" x="173.181313" xlink:href="#mee20c5323d" y="186.547392"/>
     <use style="fill:#000080;fill-opacity:0.1;stroke:#000000;stroke-opacity:0;" x="173.491255" xlink:href="#mee20c5323d" y="186.262771"/>
     <use style="fill:#000080;fill-opacity:0.1;stroke:#000000;stroke-opacity:0;" x="173.801197" xlink:href="#mee20c5323d" y="186.177471"/>
     <use style="fill:#000080;fill-opacity:0.1;stroke:#000000;stroke-opacity:0;" x="174.111139" xlink:href="#mee20c5323d" y="186.450774"/>
    </g>
   </g>
   <g id="line2d_14">
    <path clip-path="url(#p3609eb9585)" d="M 44.428258 200.078028 
L 447.662825 155.847653 
L 447.662825 155.847653 
" style="fill:none;stroke:#000080;stroke-linecap:square;stroke-width:2;"/>
   </g>
   <g id="line2d_15">
    <path clip-path="url(#p3609eb9585)" style="fill:none;stroke:#000080;stroke-dasharray:7.4,3.2;stroke-dashoffset:0;stroke-width:2;"/>
   </g>
   <g id="line2d_16">
    <path clip-path="url(#p3609eb9585)" d="M 168.532183 220.485103 
L 168.842125 220.029744 
L 169.152067 220.096871 
L 169.462009 220.196747 
L 169.771951 220.674778 
L 170.081893 220.39544 
L 170.391835 220.331446 
L 170.701777 219.974797 
L 171.011719 219.959191 
L 171.321661 220.146123 
L 171.631603 219.858243 
L 171.941545 219.841166 
L 172.251487 220.267976 
L 172.561429 219.956033 
L 172.871371 219.829816 
L 173.181313 219.667968 
L 173.491255 220.26226 
L 173.801197 220.174676 
L 174.111139 220.262144 
" style="fill:none;stroke:#0010ff;stroke-dasharray:2,3.3;stroke-dashoffset:0;stroke-opacity:0.1;stroke-width:2;"/>
    <defs>
     <path d="M 0 3 
C 0.795609 3 1.55874 2.683901 2.12132 2.12132 
C 2.683901 1.55874 3 0.795609 3 0 
C 3 -0.795609 2.683901 -1.55874 2.12132 -2.12132 
C 1.55874 -2.683901 0.795609 -3 0 -3 
C -0.795609 -3 -1.55874 -2.683901 -2.12132 -2.12132 
C -2.683901 -1.55874 -3 -0.795609 -3 0 
C -3 0.795609 -2.683901 1.55874 -2.12132 2.12132 
C -1.55874 2.683901 -0.795609 3 0 3 
z
" id="ma47083090f" style="stroke:#000000;stroke-opacity:0;"/>
    </defs>
    <g clip-path="url(#p3609eb9585)">
     <use style="fill:#0010ff;fill-opacity:0.1;stroke:#000000;stroke-opacity:0;" x="168.532183" xlink:href="#ma47083090f" y="220.485103"/>
     <use style="fill:#0010ff;fill-opacity:0.1;stroke:#000000;stroke-opacity:0;" x="168.842125" xlink:href="#ma47083090f" y="220.029744"/>
     <use style="fill:#0010ff;fill-opacity:0.1;stroke:#000000;stroke-opacity:0;" x="169.152067" xlink:href="#ma47083090f" y="220.096871"/>
     <use style="fill:#0010ff;fill-opacity:0.1;stroke:#000000;stroke-opacity:0;" x="169.462009" xlink:href="#ma47083090f" y="220.196747"/>
     <use style="fill:#0010ff;fill-opacity:0.1;stroke:#000000;stroke-opacity:0;" x="169.771951" xlink:href="#ma47083090f" y="220.674778"/>
     <use style="fill:#0010ff;fill-opacity:0.1;stroke:#000000;stroke-opacity:0;" x="170.081893" xlink:href="#ma47083090f" y="220.39544"/>
     <use style="fill:#0010ff;fill-opacity:0.1;stroke:#000000;stroke-opacity:0;" x="170.391835" xlink:href="#ma47083090f" y="220.331446"/>
     <use style="fill:#0010ff;fill-opacity:0.1;stroke:#000000;stroke-opacity:0;" x="170.701777" xlink:href="#ma47083090f" y="219.974797"/>
     <use style="fill:#0010ff;fill-opacity:0.1;stroke:#000000;stroke-opacity:0;" x="171.011719" xlink:href="#ma47083090f" y="219.959191"/>
     <use style="fill:#0010ff;fill-opacity:0.1;stroke:#000000;stroke-opacity:0;" x="171.321661" xlink:href="#ma47083090f" y="220.146123"/>
     <use style="fill:#0010ff;fill-opacity:0.1;stroke:#000000;stroke-opacity:0;" x="171.631603" xlink:href="#ma47083090f" y="219.858243"/>
     <use style="fill:#0010ff;fill-opacity:0.1;stroke:#000000;stroke-opacity:0;" x="171.941545" xlink:href="#ma47083090f" y="219.841166"/>
     <use style="fill:#0010ff;fill-opacity:0.1;stroke:#000000;stroke-opacity:0;" x="172.251487" xlink:href="#ma47083090f" y="220.267976"/>
     <use style="fill:#0010ff;fill-opacity:0.1;stroke:#000000;stroke-opacity:0;" x="172.561429" xlink:href="#ma47083090f" y="219.956033"/>
     <use style="fill:#0010ff;fill-opacity:0.1;stroke:#000000;stroke-opacity:0;" x="172.871371" xlink:href="#ma47083090f" y="219.829816"/>
     <use style="fill:#0010ff;fill-opacity:0.1;stroke:#000000;stroke-opacity:0;" x="173.181313" xlink:href="#ma47083090f" y="219.667968"/>
     <use style="fill:#0010ff;fill-opacity:0.1;stroke:#000000;stroke-opacity:0;" x="173.491255" xlink:href="#ma47083090f" y="220.26226"/>
     <use style="fill:#0010ff;fill-opacity:0.1;stroke:#000000;stroke-opacity:0;" x="173.801197" xlink:href="#ma47083090f" y="220.174676"/>
     <use style="fill:#0010ff;fill-opacity:0.1;stroke:#000000;stroke-opacity:0;" x="174.111139" xlink:href="#ma47083090f" y="220.262144"/>
    </g>
   </g>
   <g id="line2d_17">
    <path clip-path="url(#p3609eb9585)" d="M 44.38941 224.935612 
L 447.623977 209.759875 
L 447.623977 209.759875 
" style="fill:none;stroke:#0010ff;stroke-linecap:square;stroke-width:2;"/>
   </g>
   <g id="line2d_18">
    <path clip-path="url(#p3609eb9585)" style="fill:none;stroke:#0010ff;stroke-dasharray:7.4,3.2;stroke-dashoffset:0;stroke-width:2;"/>
   </g>
   <g id="line2d_19">
    <path clip-path="url(#p3609eb9585)" d="M 168.532183 185.80152 
L 168.842125 185.934119 
L 169.152067 184.101095 
L 169.462009 183.061902 
L 169.771951 183.273041 
L 170.081893 184.230019 
L 170.391835 184.146436 
L 170.701777 183.996277 
L 171.011719 182.520013 
L 171.321661 183.00322 
L 171.631603 182.330679 
L 171.941545 182.273012 
L 172.251487 182.145133 
L 172.561429 182.339761 
L 172.871371 181.73164 
L 173.181313 182.230198 
L 173.491255 182.519648 
L 173.801197 180.554853 
L 174.111139 181.898501 
" style="fill:none;stroke:#00a4ff;stroke-dasharray:2,3.3;stroke-dashoffset:0;stroke-opacity:0.1;stroke-width:2;"/>
    <defs>
     <path d="M 0 3 
C 0.795609 3 1.55874 2.683901 2.12132 2.12132 
C 2.683901 1.55874 3 0.795609 3 0 
C 3 -0.795609 2.683901 -1.55874 2.12132 -2.12132 
C 1.55874 -2.683901 0.795609 -3 0 -3 
C -0.795609 -3 -1.55874 -2.683901 -2.12132 -2.12132 
C -2.683901 -1.55874 -3 -0.795609 -3 0 
C -3 0.795609 -2.683901 1.55874 -2.12132 2.12132 
C -1.55874 2.683901 -0.795609 3 0 3 
z
" id="m7144793b9f" style="stroke:#000000;stroke-opacity:0;"/>
    </defs>
    <g clip-path="url(#p3609eb9585)">
     <use style="fill:#00a4ff;fill-opacity:0.1;stroke:#000000;stroke-opacity:0;" x="168.532183" xlink:href="#m7144793b9f" y="185.80152"/>
     <use style="fill:#00a4ff;fill-opacity:0.1;stroke:#000000;stroke-opacity:0;" x="168.842125" xlink:href="#m7144793b9f" y="185.934119"/>
     <use style="fill:#00a4ff;fill-opacity:0.1;stroke:#000000;stroke-opacity:0;" x="169.152067" xlink:href="#m7144793b9f" y="184.101095"/>
     <use style="fill:#00a4ff;fill-opacity:0.1;stroke:#000000;stroke-opacity:0;" x="169.462009" xlink:href="#m7144793b9f" y="183.061902"/>
     <use style="fill:#00a4ff;fill-opacity:0.1;stroke:#000000;stroke-opacity:0;" x="169.771951" xlink:href="#m7144793b9f" y="183.273041"/>
     <use style="fill:#00a4ff;fill-opacity:0.1;stroke:#000000;stroke-opacity:0;" x="170.081893" xlink:href="#m7144793b9f" y="184.230019"/>
     <use style="fill:#00a4ff;fill-opacity:0.1;stroke:#000000;stroke-opacity:0;" x="170.391835" xlink:href="#m7144793b9f" y="184.146436"/>
     <use style="fill:#00a4ff;fill-opacity:0.1;stroke:#000000;stroke-opacity:0;" x="170.701777" xlink:href="#m7144793b9f" y="183.996277"/>
     <use style="fill:#00a4ff;fill-opacity:0.1;stroke:#000000;stroke-opacity:0;" x="171.011719" xlink:href="#m7144793b9f" y="182.520013"/>
     <use style="fill:#00a4ff;fill-opacity:0.1;stroke:#000000;stroke-opacity:0;" x="171.321661" xlink:href="#m7144793b9f" y="183.00322"/>
     <use style="fill:#00a4ff;fill-opacity:0.1;stroke:#000000;stroke-opacity:0;" x="171.631603" xlink:href="#m7144793b9f" y="182.330679"/>
     <use style="fill:#00a4ff;fill-opacity:0.1;stroke:#000000;stroke-opacity:0;" x="171.941545" xlink:href="#m7144793b9f" y="182.273012"/>
     <use style="fill:#00a4ff;fill-opacity:0.1;stroke:#000000;stroke-opacity:0;" x="172.251487" xlink:href="#m7144793b9f" y="182.145133"/>
     <use style="fill:#00a4ff;fill-opacity:0.1;stroke:#000000;stroke-opacity:0;" x="172.561429" xlink:href="#m7144793b9f" y="182.339761"/>
     <use style="fill:#00a4ff;fill-opacity:0.1;stroke:#000000;stroke-opacity:0;" x="172.871371" xlink:href="#m7144793b9f" y="181.73164"/>
     <use style="fill:#00a4ff;fill-opacity:0.1;stroke:#000000;stroke-opacity:0;" x="173.181313" xlink:href="#m7144793b9f" y="182.230198"/>
     <use style="fill:#00a4ff;fill-opacity:0.1;stroke:#000000;stroke-opacity:0;" x="173.491255" xlink:href="#m7144793b9f" y="182.519648"/>
     <use style="fill:#00a4ff;fill-opacity:0.1;stroke:#000000;stroke-opacity:0;" x="173.801197" xlink:href="#m7144793b9f" y="180.554853"/>
     <use style="fill:#00a4ff;fill-opacity:0.1;stroke:#000000;stroke-opacity:0;" x="174.111139" xlink:href="#m7144793b9f" y="181.898501"/>
    </g>
   </g>
   <g id="line2d_20">
    <path clip-path="url(#p3609eb9585)" d="M 47.807734 250.597887 
L 447.632939 32.217104 
L 447.632939 32.217104 
" style="fill:none;stroke:#00a4ff;stroke-linecap:square;stroke-width:2;"/>
   </g>
   <g id="line2d_21">
    <path clip-path="url(#p3609eb9585)" d="M 47.807734 346.6 
L 47.807734 -1 
" style="fill:none;stroke:#00a4ff;stroke-dasharray:7.4,3.2;stroke-dashoffset:0;stroke-width:2;"/>
   </g>
   <g id="line2d_22">
    <path clip-path="url(#p3609eb9585)" d="M 168.532183 239.402068 
L 168.842125 237.669821 
L 169.152067 239.515467 
L 169.462009 237.423821 
L 169.771951 237.357989 
L 170.081893 239.295277 
L 170.391835 238.698704 
L 170.701777 238.949617 
L 171.011719 239.165124 
L 171.321661 239.207703 
L 171.631603 239.05957 
L 171.941545 239.138254 
L 172.251487 239.19684 
L 172.561429 238.787848 
L 172.871371 238.971531 
L 173.181313 238.809966 
L 173.491255 238.352137 
L 173.801197 236.018642 
L 174.111139 238.202251 
" style="fill:none;stroke:#40ffb7;stroke-dasharray:2,3.3;stroke-dashoffset:0;stroke-opacity:0.1;stroke-width:2;"/>
    <defs>
     <path d="M 0 3 
C 0.795609 3 1.55874 2.683901 2.12132 2.12132 
C 2.683901 1.55874 3 0.795609 3 0 
C 3 -0.795609 2.683901 -1.55874 2.12132 -2.12132 
C 1.55874 -2.683901 0.795609 -3 0 -3 
C -0.795609 -3 -1.55874 -2.683901 -2.12132 -2.12132 
C -2.683901 -1.55874 -3 -0.795609 -3 0 
C -3 0.795609 -2.683901 1.55874 -2.12132 2.12132 
C -1.55874 2.683901 -0.795609 3 0 3 
z
" id="mc68608aafb" style="stroke:#000000;stroke-opacity:0;"/>
    </defs>
    <g clip-path="url(#p3609eb9585)">
     <use style="fill:#40ffb7;fill-opacity:0.1;stroke:#000000;stroke-opacity:0;" x="168.532183" xlink:href="#mc68608aafb" y="239.402068"/>
     <use style="fill:#40ffb7;fill-opacity:0.1;stroke:#000000;stroke-opacity:0;" x="168.842125" xlink:href="#mc68608aafb" y="237.669821"/>
     <use style="fill:#40ffb7;fill-opacity:0.1;stroke:#000000;stroke-opacity:0;" x="169.152067" xlink:href="#mc68608aafb" y="239.515467"/>
     <use style="fill:#40ffb7;fill-opacity:0.1;stroke:#000000;stroke-opacity:0;" x="169.462009" xlink:href="#mc68608aafb" y="237.423821"/>
     <use style="fill:#40ffb7;fill-opacity:0.1;stroke:#000000;stroke-opacity:0;" x="169.771951" xlink:href="#mc68608aafb" y="237.357989"/>
     <use style="fill:#40ffb7;fill-opacity:0.1;stroke:#000000;stroke-opacity:0;" x="170.081893" xlink:href="#mc68608aafb" y="239.295277"/>
     <use style="fill:#40ffb7;fill-opacity:0.1;stroke:#000000;stroke-opacity:0;" x="170.391835" xlink:href="#mc68608aafb" y="238.698704"/>
     <use style="fill:#40ffb7;fill-opacity:0.1;stroke:#000000;stroke-opacity:0;" x="170.701777" xlink:href="#mc68608aafb" y="238.949617"/>
     <use style="fill:#40ffb7;fill-opacity:0.1;stroke:#000000;stroke-opacity:0;" x="171.011719" xlink:href="#mc68608aafb" y="239.165124"/>
     <use style="fill:#40ffb7;fill-opacity:0.1;stroke:#000000;stroke-opacity:0;" x="171.321661" xlink:href="#mc68608aafb" y="239.207703"/>
     <use style="fill:#40ffb7;fill-opacity:0.1;stroke:#000000;stroke-opacity:0;" x="171.631603" xlink:href="#mc68608aafb" y="239.05957"/>
     <use style="fill:#40ffb7;fill-opacity:0.1;stroke:#000000;stroke-opacity:0;" x="171.941545" xlink:href="#mc68608aafb" y="239.138254"/>
     <use style="fill:#40ffb7;fill-opacity:0.1;stroke:#000000;stroke-opacity:0;" x="172.251487" xlink:href="#mc68608aafb" y="239.19684"/>
     <use style="fill:#40ffb7;fill-opacity:0.1;stroke:#000000;stroke-opacity:0;" x="172.561429" xlink:href="#mc68608aafb" y="238.787848"/>
     <use style="fill:#40ffb7;fill-opacity:0.1;stroke:#000000;stroke-opacity:0;" x="172.871371" xlink:href="#mc68608aafb" y="238.971531"/>
     <use style="fill:#40ffb7;fill-opacity:0.1;stroke:#000000;stroke-opacity:0;" x="173.181313" xlink:href="#mc68608aafb" y="238.809966"/>
     <use style="fill:#40ffb7;fill-opacity:0.1;stroke:#000000;stroke-opacity:0;" x="173.491255" xlink:href="#mc68608aafb" y="238.352137"/>
     <use style="fill:#40ffb7;fill-opacity:0.1;stroke:#000000;stroke-opacity:0;" x="173.801197" xlink:href="#mc68608aafb" y="236.018642"/>
     <use style="fill:#40ffb7;fill-opacity:0.1;stroke:#000000;stroke-opacity:0;" x="174.111139" xlink:href="#mc68608aafb" y="238.202251"/>
    </g>
   </g>
   <g id="line2d_23">
    <path clip-path="url(#p3609eb9585)" d="M 44.330657 244.535788 
L 447.565225 225.577156 
L 447.565225 225.577156 
" style="fill:none;stroke:#40ffb7;stroke-linecap:square;stroke-width:2;"/>
   </g>
   <g id="line2d_24">
    <path clip-path="url(#p3609eb9585)" style="fill:none;stroke:#40ffb7;stroke-dasharray:7.4,3.2;stroke-dashoffset:0;stroke-width:2;"/>
   </g>
   <g id="line2d_25">
    <path clip-path="url(#p3609eb9585)" d="M 168.532183 231.43326 
L 168.842125 231.112427 
L 169.152067 230.822104 
L 169.462009 230.982639 
L 169.771951 230.376578 
L 170.081893 230.126277 
L 170.391835 229.974533 
L 170.701777 230.061326 
L 171.011719 229.742166 
L 171.321661 229.410927 
L 171.631603 229.20042 
L 171.941545 228.743238 
L 172.251487 228.843101 
L 172.561429 228.594727 
L 172.871371 228.718513 
L 173.181313 228.802018 
L 173.491255 228.756304 
L 173.801197 228.823721 
L 174.111139 228.340715 
" style="fill:none;stroke:#b7ff40;stroke-dasharray:2,3.3;stroke-dashoffset:0;stroke-opacity:0.1;stroke-width:2;"/>
    <defs>
     <path d="M 0 3 
C 0.795609 3 1.55874 2.683901 2.12132 2.12132 
C 2.683901 1.55874 3 0.795609 3 0 
C 3 -0.795609 2.683901 -1.55874 2.12132 -2.12132 
C 1.55874 -2.683901 0.795609 -3 0 -3 
C -0.795609 -3 -1.55874 -2.683901 -2.12132 -2.12132 
C -2.683901 -1.55874 -3 -0.795609 -3 0 
C -3 0.795609 -2.683901 1.55874 -2.12132 2.12132 
C -1.55874 2.683901 -0.795609 3 0 3 
z
" id="mbd72119a21" style="stroke:#000000;stroke-opacity:0;"/>
    </defs>
    <g clip-path="url(#p3609eb9585)">
     <use style="fill:#b7ff40;fill-opacity:0.1;stroke:#000000;stroke-opacity:0;" x="168.532183" xlink:href="#mbd72119a21" y="231.43326"/>
     <use style="fill:#b7ff40;fill-opacity:0.1;stroke:#000000;stroke-opacity:0;" x="168.842125" xlink:href="#mbd72119a21" y="231.112427"/>
     <use style="fill:#b7ff40;fill-opacity:0.1;stroke:#000000;stroke-opacity:0;" x="169.152067" xlink:href="#mbd72119a21" y="230.822104"/>
     <use style="fill:#b7ff40;fill-opacity:0.1;stroke:#000000;stroke-opacity:0;" x="169.462009" xlink:href="#mbd72119a21" y="230.982639"/>
     <use style="fill:#b7ff40;fill-opacity:0.1;stroke:#000000;stroke-opacity:0;" x="169.771951" xlink:href="#mbd72119a21" y="230.376578"/>
     <use style="fill:#b7ff40;fill-opacity:0.1;stroke:#000000;stroke-opacity:0;" x="170.081893" xlink:href="#mbd72119a21" y="230.126277"/>
     <use style="fill:#b7ff40;fill-opacity:0.1;stroke:#000000;stroke-opacity:0;" x="170.391835" xlink:href="#mbd72119a21" y="229.974533"/>
     <use style="fill:#b7ff40;fill-opacity:0.1;stroke:#000000;stroke-opacity:0;" x="170.701777" xlink:href="#mbd72119a21" y="230.061326"/>
     <use style="fill:#b7ff40;fill-opacity:0.1;stroke:#000000;stroke-opacity:0;" x="171.011719" xlink:href="#mbd72119a21" y="229.742166"/>
     <use style="fill:#b7ff40;fill-opacity:0.1;stroke:#000000;stroke-opacity:0;" x="171.321661" xlink:href="#mbd72119a21" y="229.410927"/>
     <use style="fill:#b7ff40;fill-opacity:0.1;stroke:#000000;stroke-opacity:0;" x="171.631603" xlink:href="#mbd72119a21" y="229.20042"/>
     <use style="fill:#b7ff40;fill-opacity:0.1;stroke:#000000;stroke-opacity:0;" x="171.941545" xlink:href="#mbd72119a21" y="228.743238"/>
     <use style="fill:#b7ff40;fill-opacity:0.1;stroke:#000000;stroke-opacity:0;" x="172.251487" xlink:href="#mbd72119a21" y="228.843101"/>
     <use style="fill:#b7ff40;fill-opacity:0.1;stroke:#000000;stroke-opacity:0;" x="172.561429" xlink:href="#mbd72119a21" y="228.594727"/>
     <use style="fill:#b7ff40;fill-opacity:0.1;stroke:#000000;stroke-opacity:0;" x="172.871371" xlink:href="#mbd72119a21" y="228.718513"/>
     <use style="fill:#b7ff40;fill-opacity:0.1;stroke:#000000;stroke-opacity:0;" x="173.181313" xlink:href="#mbd72119a21" y="228.802018"/>
     <use style="fill:#b7ff40;fill-opacity:0.1;stroke:#000000;stroke-opacity:0;" x="173.491255" xlink:href="#mbd72119a21" y="228.756304"/>
     <use style="fill:#b7ff40;fill-opacity:0.1;stroke:#000000;stroke-opacity:0;" x="173.801197" xlink:href="#mbd72119a21" y="228.823721"/>
     <use style="fill:#b7ff40;fill-opacity:0.1;stroke:#000000;stroke-opacity:0;" x="174.111139" xlink:href="#mbd72119a21" y="228.340715"/>
    </g>
   </g>
   <g id="line2d_26">
    <path clip-path="url(#p3609eb9585)" d="M 165.17878 231.851978 
L 166.418548 231.740143 
L 167.658316 231.404637 
L 168.898084 230.84546 
L 170.137852 230.062612 
L 171.37762 229.056093 
L 172.92733 227.483407 
L 174.47704 225.561235 
L 176.026751 223.289578 
L 177.886403 220.102268 
L 179.746055 216.411699 
L 181.605707 212.217871 
L 183.465359 207.520782 
L 185.634953 201.404782 
L 187.804547 194.60379 
L 189.974141 187.117806 
L 192.453678 177.72363 
L 194.933214 167.43477 
L 197.41275 156.251227 
L 200.202228 142.600314 
L 202.991706 127.817068 
L 205.781184 111.901489 
L 208.880605 92.889465 
L 211.980025 72.479499 
L 215.079445 50.67159 
L 218.488807 25.068266 
L 221.749158 -1 
L 221.749158 -1 
" style="fill:none;stroke:#b7ff40;stroke-linecap:square;stroke-width:2;"/>
   </g>
   <g id="line2d_27">
    <path clip-path="url(#p3609eb9585)" d="M 165.17878 346.6 
L 165.17878 -1 
" style="fill:none;stroke:#b7ff40;stroke-dasharray:7.4,3.2;stroke-dashoffset:0;stroke-width:2;"/>
   </g>
   <g id="line2d_28">
    <path clip-path="url(#p3609eb9585)" d="M 168.532183 223.035541 
L 168.842125 223.315048 
L 169.152067 222.550265 
L 169.462009 223.131924 
L 169.771951 223.265376 
L 170.081893 222.793432 
L 170.391835 223.138996 
L 170.701777 222.992259 
L 171.011719 222.625515 
L 171.321661 222.358677 
L 171.631603 223.02317 
L 171.941545 222.45813 
L 172.251487 222.596744 
L 172.561429 222.573173 
L 172.871371 222.32548 
L 173.181313 222.536073 
L 173.491255 223.079315 
L 173.801197 222.999117 
L 174.111139 222.703861 
" style="fill:none;stroke:#ffb900;stroke-dasharray:2,3.3;stroke-dashoffset:0;stroke-opacity:0.1;stroke-width:2;"/>
    <defs>
     <path d="M 0 3 
C 0.795609 3 1.55874 2.683901 2.12132 2.12132 
C 2.683901 1.55874 3 0.795609 3 0 
C 3 -0.795609 2.683901 -1.55874 2.12132 -2.12132 
C 1.55874 -2.683901 0.795609 -3 0 -3 
C -0.795609 -3 -1.55874 -2.683901 -2.12132 -2.12132 
C -2.683901 -1.55874 -3 -0.795609 -3 0 
C -3 0.795609 -2.683901 1.55874 -2.12132 2.12132 
C -1.55874 2.683901 -0.795609 3 0 3 
z
" id="m5c2f7adb58" style="stroke:#000000;stroke-opacity:0;"/>
    </defs>
    <g clip-path="url(#p3609eb9585)">
     <use style="fill:#ffb900;fill-opacity:0.1;stroke:#000000;stroke-opacity:0;" x="168.532183" xlink:href="#m5c2f7adb58" y="223.035541"/>
     <use style="fill:#ffb900;fill-opacity:0.1;stroke:#000000;stroke-opacity:0;" x="168.842125" xlink:href="#m5c2f7adb58" y="223.315048"/>
     <use style="fill:#ffb900;fill-opacity:0.1;stroke:#000000;stroke-opacity:0;" x="169.152067" xlink:href="#m5c2f7adb58" y="222.550265"/>
     <use style="fill:#ffb900;fill-opacity:0.1;stroke:#000000;stroke-opacity:0;" x="169.462009" xlink:href="#m5c2f7adb58" y="223.131924"/>
     <use style="fill:#ffb900;fill-opacity:0.1;stroke:#000000;stroke-opacity:0;" x="169.771951" xlink:href="#m5c2f7adb58" y="223.265376"/>
     <use style="fill:#ffb900;fill-opacity:0.1;stroke:#000000;stroke-opacity:0;" x="170.081893" xlink:href="#m5c2f7adb58" y="222.793432"/>
     <use style="fill:#ffb900;fill-opacity:0.1;stroke:#000000;stroke-opacity:0;" x="170.391835" xlink:href="#m5c2f7adb58" y="223.138996"/>
     <use style="fill:#ffb900;fill-opacity:0.1;stroke:#000000;stroke-opacity:0;" x="170.701777" xlink:href="#m5c2f7adb58" y="222.992259"/>
     <use style="fill:#ffb900;fill-opacity:0.1;stroke:#000000;stroke-opacity:0;" x="171.011719" xlink:href="#m5c2f7adb58" y="222.625515"/>
     <use style="fill:#ffb900;fill-opacity:0.1;stroke:#000000;stroke-opacity:0;" x="171.321661" xlink:href="#m5c2f7adb58" y="222.358677"/>
     <use style="fill:#ffb900;fill-opacity:0.1;stroke:#000000;stroke-opacity:0;" x="171.631603" xlink:href="#m5c2f7adb58" y="223.02317"/>
     <use style="fill:#ffb900;fill-opacity:0.1;stroke:#000000;stroke-opacity:0;" x="171.941545" xlink:href="#m5c2f7adb58" y="222.45813"/>
     <use style="fill:#ffb900;fill-opacity:0.1;stroke:#000000;stroke-opacity:0;" x="172.251487" xlink:href="#m5c2f7adb58" y="222.596744"/>
     <use style="fill:#ffb900;fill-opacity:0.1;stroke:#000000;stroke-opacity:0;" x="172.561429" xlink:href="#m5c2f7adb58" y="222.573173"/>
     <use style="fill:#ffb900;fill-opacity:0.1;stroke:#000000;stroke-opacity:0;" x="172.871371" xlink:href="#m5c2f7adb58" y="222.32548"/>
     <use style="fill:#ffb900;fill-opacity:0.1;stroke:#000000;stroke-opacity:0;" x="173.181313" xlink:href="#m5c2f7adb58" y="222.536073"/>
     <use style="fill:#ffb900;fill-opacity:0.1;stroke:#000000;stroke-opacity:0;" x="173.491255" xlink:href="#m5c2f7adb58" y="223.079315"/>
     <use style="fill:#ffb900;fill-opacity:0.1;stroke:#000000;stroke-opacity:0;" x="173.801197" xlink:href="#m5c2f7adb58" y="222.999117"/>
     <use style="fill:#ffb900;fill-opacity:0.1;stroke:#000000;stroke-opacity:0;" x="174.111139" xlink:href="#m5c2f7adb58" y="222.703861"/>
    </g>
   </g>
   <g id="line2d_29">
    <path clip-path="url(#p3609eb9585)" d="M 167.492692 222.999701 
L 169.662286 222.87623 
L 171.83188 222.505818 
L 174.001474 221.888465 
L 176.171068 221.02417 
L 178.340662 219.912934 
L 180.510256 218.554757 
L 182.679851 216.949639 
L 185.159387 214.81284 
L 187.638923 212.353506 
L 190.118459 209.571637 
L 192.597995 206.467232 
L 195.387473 202.589245 
L 198.176952 198.303049 
L 200.96643 193.608644 
L 203.755908 188.50603 
L 206.855328 182.357696 
L 209.954748 175.705399 
L 213.054168 168.54914 
L 216.463531 160.09518 
L 219.872893 151.031425 
L 223.282255 141.357877 
L 227.001559 130.109448 
L 230.720864 118.135314 
L 234.440168 105.435475 
L 238.469414 90.858378 
L 242.49866 75.429585 
L 246.527907 59.149096 
L 250.867095 40.663775 
L 255.206283 21.190688 
L 259.545471 0.729836 
L 259.902914 -1 
L 259.902914 -1 
" style="fill:none;stroke:#ffb900;stroke-linecap:square;stroke-width:2;"/>
   </g>
   <g id="line2d_30">
    <path clip-path="url(#p3609eb9585)" d="M 167.492692 346.6 
L 167.492692 -1 
" style="fill:none;stroke:#ffb900;stroke-dasharray:7.4,3.2;stroke-dashoffset:0;stroke-width:2;"/>
   </g>
   <g id="line2d_31">
    <path clip-path="url(#p3609eb9585)" d="M -1 250.597887 
L 461.8 250.597887 
" style="fill:none;stroke:#000000;stroke-dasharray:7.4,3.2;stroke-dashoffset:0;stroke-width:2;"/>
   </g>
   <g id="line2d_32">
    <path clip-path="url(#p3609eb9585)" d="M 168.532183 187.150954 
L 168.842125 185.767729 
L 169.152067 185.248901 
L 169.462009 185.039241 
L 169.771951 184.681161 
L 170.081893 184.874077 
L 170.391835 186.104448 
L 170.701777 186.973632 
L 171.011719 187.689823 
L 171.321661 187.656575 
L 171.631603 187.922702 
L 171.941545 187.434778 
L 172.251487 187.454968 
L 172.561429 187.380658 
L 172.871371 186.891782 
L 173.181313 186.547392 
L 173.491255 186.262771 
L 173.801197 186.177471 
L 174.111139 186.450774 
" style="fill:none;stroke:#000080;stroke-linecap:square;stroke-opacity:0.1;stroke-width:1.5;"/>
   </g>
   <g id="line2d_33">
    <path clip-path="url(#p3609eb9585)" d="M 168.532183 220.485103 
L 168.842125 220.029744 
L 169.152067 220.096871 
L 169.462009 220.196747 
L 169.771951 220.674778 
L 170.081893 220.39544 
L 170.391835 220.331446 
L 170.701777 219.974797 
L 171.011719 219.959191 
L 171.321661 220.146123 
L 171.631603 219.858243 
L 171.941545 219.841166 
L 172.251487 220.267976 
L 172.561429 219.956033 
L 172.871371 219.829816 
L 173.181313 219.667968 
L 173.491255 220.26226 
L 173.801197 220.174676 
L 174.111139 220.262144 
" style="fill:none;stroke:#0010ff;stroke-linecap:square;stroke-opacity:0.1;stroke-width:1.5;"/>
   </g>
   <g id="line2d_34">
    <path clip-path="url(#p3609eb9585)" d="M 168.532183 185.80152 
L 168.842125 185.934119 
L 169.152067 184.101095 
L 169.462009 183.061902 
L 169.771951 183.273041 
L 170.081893 184.230019 
L 170.391835 184.146436 
L 170.701777 183.996277 
L 171.011719 182.520013 
L 171.321661 183.00322 
L 171.631603 182.330679 
L 171.941545 182.273012 
L 172.251487 182.145133 
L 172.561429 182.339761 
L 172.871371 181.73164 
L 173.181313 182.230198 
L 173.491255 182.519648 
L 173.801197 180.554853 
L 174.111139 181.898501 
" style="fill:none;stroke:#00a4ff;stroke-linecap:square;stroke-opacity:0.1;stroke-width:1.5;"/>
   </g>
   <g id="line2d_35">
    <path clip-path="url(#p3609eb9585)" d="M 168.532183 239.402068 
L 168.842125 237.669821 
L 169.152067 239.515467 
L 169.462009 237.423821 
L 169.771951 237.357989 
L 170.081893 239.295277 
L 170.391835 238.698704 
L 170.701777 238.949617 
L 171.011719 239.165124 
L 171.321661 239.207703 
L 171.631603 239.05957 
L 171.941545 239.138254 
L 172.251487 239.19684 
L 172.561429 238.787848 
L 172.871371 238.971531 
L 173.181313 238.809966 
L 173.491255 238.352137 
L 173.801197 236.018642 
L 174.111139 238.202251 
" style="fill:none;stroke:#40ffb7;stroke-linecap:square;stroke-opacity:0.1;stroke-width:1.5;"/>
   </g>
   <g id="line2d_36">
    <path clip-path="url(#p3609eb9585)" d="M 168.532183 231.43326 
L 168.842125 231.112427 
L 169.152067 230.822104 
L 169.462009 230.982639 
L 169.771951 230.376578 
L 170.081893 230.126277 
L 170.391835 229.974533 
L 170.701777 230.061326 
L 171.011719 229.742166 
L 171.321661 229.410927 
L 171.631603 229.20042 
L 171.941545 228.743238 
L 172.251487 228.843101 
L 172.561429 228.594727 
L 172.871371 228.718513 
L 173.181313 228.802018 
L 173.491255 228.756304 
L 173.801197 228.823721 
L 174.111139 228.340715 
" style="fill:none;stroke:#b7ff40;stroke-linecap:square;stroke-opacity:0.1;stroke-width:1.5;"/>
   </g>
   <g id="line2d_37">
    <path clip-path="url(#p3609eb9585)" d="M 168.532183 223.035541 
L 168.842125 223.315048 
L 169.152067 222.550265 
L 169.462009 223.131924 
L 169.771951 223.265376 
L 170.081893 222.793432 
L 170.391835 223.138996 
L 170.701777 222.992259 
L 171.011719 222.625515 
L 171.321661 222.358677 
L 171.631603 223.02317 
L 171.941545 222.45813 
L 172.251487 222.596744 
L 172.561429 222.573173 
L 172.871371 222.32548 
L 173.181313 222.536073 
L 173.491255 223.079315 
L 173.801197 222.999117 
L 174.111139 222.703861 
" style="fill:none;stroke:#ffb900;stroke-linecap:square;stroke-opacity:0.1;stroke-width:1.5;"/>
   </g>
   <g id="patch_3">
    <path d="M 44.555375 309.8635 
L 44.555375 13.535438 
" style="fill:none;stroke:#000000;stroke-linecap:square;stroke-linejoin:miter;stroke-width:0.8;"/>
   </g>
   <g id="patch_4">
    <path d="M 447.48 309.8635 
L 447.48 13.535438 
" style="fill:none;stroke:#000000;stroke-linecap:square;stroke-linejoin:miter;stroke-width:0.8;"/>
   </g>
   <g id="patch_5">
    <path d="M 44.555375 309.8635 
L 447.48 309.8635 
" style="fill:none;stroke:#000000;stroke-linecap:square;stroke-linejoin:miter;stroke-width:0.8;"/>
   </g>
   <g id="patch_6">
    <path d="M 44.555375 13.535438 
L 447.48 13.535438 
" style="fill:none;stroke:#000000;stroke-linecap:square;stroke-linejoin:miter;stroke-width:0.8;"/>
   </g>
   <g id="text_15">
    <!-- I -->
    <defs>
     <path d="M 9.8125 72.90625 
L 19.671875 72.90625 
L 19.671875 0 
L 9.8125 0 
z
" id="DejaVuSans-49"/>
    </defs>
    <g transform="translate(-417.620583 191.332275)scale(0.1 -0.1)">
     <use xlink:href="#DejaVuSans-49"/>
    </g>
   </g>
   <g id="text_16">
    <!-- II -->
    <g transform="translate(-640.433032 191.332275)scale(0.1 -0.1)">
     <use xlink:href="#DejaVuSans-49"/>
     <use x="29.492188" xlink:href="#DejaVuSans-49"/>
    </g>
   </g>
   <g id="text_17">
    <!-- 1 -->
    <g transform="translate(44.626484 191.332275)scale(0.1 -0.1)">
     <use xlink:href="#DejaVuSans-31"/>
    </g>
   </g>
   <g id="text_18">
    <!-- 2 -->
    <g transform="translate(-87.786473 191.332275)scale(0.1 -0.1)">
     <use xlink:href="#DejaVuSans-32"/>
    </g>
   </g>
   <g id="text_19">
    <!-- 3 -->
    <g transform="translate(161.99753 191.332275)scale(0.1 -0.1)">
     <use xlink:href="#DejaVuSans-33"/>
    </g>
   </g>
   <g id="text_20">
    <!-- 4 -->
    <g transform="translate(164.311442 191.332275)scale(0.1 -0.1)">
     <use xlink:href="#DejaVuSans-34"/>
    </g>
   </g>
  </g>
 </g>
 <defs>
  <clipPath id="p3609eb9585">
   <rect height="296.328062" width="402.924625" x="44.555375" y="13.535438"/>
  </clipPath>
 </defs>
</svg>
